<?xml version="1.0" encoding="utf-8"?>
<!-- Generator: Adobe Illustrator 22.0.0, SVG Export Plug-In . SVG Version: 6.00 Build 0)  -->
<svg version="1.1" id="Layer_1" xmlns="http://www.w3.org/2000/svg" xmlns:xlink="http://www.w3.org/1999/xlink" x="0px" y="0px"
	 viewBox="0 0 1280 1280" style="enable-background:new 0 0 1280 1280;" xml:space="preserve">
<style type="text/css">
	.st0{fill:#F5F6F6;}
	.st1{fill:#DCCF04;}
	.st2{fill:#252526;}
	.st3{fill:#262627;}
	.st4{fill:#016C54;}
	.st5{fill:#606565;}
	.st6{fill:#404040;}
	.st7{fill:#DACD05;}
	.st8{fill:#3F3F3F;}
	.st9{fill:#006B53;}
	.st10{fill:#006C54;}
	.st11{fill:#00886B;}
	.st12{fill:#8A8D7E;}
	.st13{fill:#F3F5F4;}
	.st14{fill:#A5A7A7;}
	.st15{fill:#016B53;}
	.st16{fill:#01876A;}
	.st17{fill:#F6F7F7;}
	.st18{fill:#DDD004;}
	.st19{fill:#8C8D7C;}
	.st20{fill:#030303;}
	.st21{fill:#DCD004;}
	.st22{fill:#006D55;}
	.st23{fill:#00876A;}
	.st24{fill:#034C3A;}
	.st25{fill:#006C55;}
	.st26{fill:#016D55;}
	.st27{fill:#232425;}
	.st28{fill:#026C55;}
	.st29{fill:#D6693D;}
	.st30{fill:#898C7C;}
	.st31{fill:#F4F5F5;}
	.st32{fill:#5D6765;}
	.st33{fill:#A3A5A4;}
	.st34{fill:#B7B315;}
	.st35{fill:#DBCE05;}
	.st36{fill:#3E3E3E;}
	.st37{fill:#075441;}
	.st38{fill:#A6A8A7;}
	.st39{fill:#F0F1F1;}
	.st40{fill:#016B54;}
	.st41{fill:#DED104;}
	.st42{fill:#F7F8F8;}
	.st43{fill:#B7B314;}
	.st44{fill:#014E3B;}
	.st45{fill:#43645B;}
	.st46{fill:#8B8C7B;}
	.st47{fill:#5F6665;}
	.st48{fill:#242425;}
	.st49{fill:#D7683C;}
	.st50{fill:#444241;}
	.st51{fill:#1B3C34;}
	.st52{fill:#272728;}
	.st53{fill:#B5B225;}
	.st54{fill:#6D6B5E;}
	.st55{fill:#0D4E3E;}
	.st56{fill:#01513E;}
	.st57{fill:#034F3C;}
	.st58{fill:#A6A8A8;}
	.st59{fill:#2B2C2C;}
	.st60{fill:#0A2268;}
	.st61{fill:#0A2166;}
	.st62{fill:#0A2369;}
	.st63{fill:#092168;}
	.st64{fill:#6E6C5F;}
	.st65{fill:#026A53;}
	.st66{fill:#04513F;}
	.st67{fill:#202021;}
	.st68{fill:#0A236A;}
	.st69{fill:#2F3231;}
	.st70{fill:#5E6F62;}
	.st71{fill:#A7A9A8;}
	.st72{fill:#006851;}
	.st73{fill:#808778;}
	.st74{fill:#D9CD07;}
	.st75{fill:#006A53;}
	.st76{fill:#024E3C;}
	.st77{fill:#D6CB07;}
	.st78{fill:#494F4D;}
	.st79{fill:#606A65;}
	.st80{fill:#DBCF05;}
	.st81{fill:#606E6B;}
	.st82{fill:#0C765F;}
	.st83{fill:#014F3C;}
	.st84{fill:#A2A3A1;}
	.st85{fill:#0A4E3D;}
	.st86{fill:#232324;}
	.st87{fill:#706D60;}
	.st88{fill:#9A9E9A;}
	.st89{fill:#556D63;}
	.st90{fill:#EAEBEB;}
	.st91{fill:#024F3C;}
	.st92{fill:#3F4040;}
	.st93{fill:#8B8C7C;}
	.st94{fill:#B9B515;}
	.st95{fill:#D8CC06;}
	.st96{fill:#DBCF04;}
	.st97{fill:#427067;}
	.st98{fill:#E4E5E4;}
	.st99{fill:#537060;}
	.st100{fill:#ABADAB;}
	.st101{fill:#D8683C;}
	.st102{fill:#024C3A;}
	.st103{fill:#0E0F0F;}
	.st104{fill:#1D1D1D;}
	.st105{fill:#3B3C3C;}
	.st106{fill:#024E3B;}
	.st107{fill:#6E6A5E;}
	.st108{fill:#8D9085;}
	.st109{fill:#303030;}
	.st110{fill:#989A94;}
	.st111{fill:#437065;}
	.st112{fill:#E5EDF1;}
	.st113{fill:#D9CD06;}
	.st114{fill:#040404;}
	.st115{fill:#02876A;}
	.st116{fill:#81887C;}
	.st117{fill:#606F65;}
	.st118{fill:#546D64;}
	.st119{fill:#007057;}
	.st120{fill:#516C65;}
	.st121{fill:#8C8D7D;}
	.st122{fill:#474644;}
	.st123{fill:#8D8E86;}
	.st124{fill:#545654;}
	.st125{fill:#014E3C;}
	.st126{fill:#3D3D3D;}
	.st127{fill:#066952;}
	.st128{fill:#7A8173;}
	.st129{fill:#007158;}
	.st130{fill:#5B5E5B;}
	.st131{fill:#313132;}
	.st132{fill:#696962;}
	.st133{fill:#516F68;}
	.st134{fill:#4B6D66;}
	.st135{fill:#94958A;}
	.st136{fill:#8D918B;}
	.st137{fill:#222223;}
	.st138{fill:#6F7C75;}
	.st139{fill:#2D2D2E;}
	.st140{fill:#515451;}
	.st141{fill:#DFE8EB;}
	.st142{fill:#058469;}
	.st143{fill:#6F7772;}
	.st144{fill:#00523E;}
	.st145{fill:#6D6B5F;}
	.st146{fill:#080808;}
	.st147{fill:#333333;}
	.st148{fill:#7B857F;}
	.st149{fill:#D7CC06;}
	.st150{fill:#383838;}
	.st151{fill:#3D524C;}
	.st152{fill:#7A7A70;}
	.st153{fill:#B6B217;}
	.st154{fill:#226A59;}
	.st155{fill:#959693;}
	.st156{fill:#95968D;}
	.st157{fill:#1D1D1E;}
	.st158{fill:#575956;}
	.st159{fill:#A4A6A5;}
	.st160{fill:#62635F;}
	.st161{fill:#9C9D99;}
	.st162{fill:#626566;}
	.st163{fill:#5F7065;}
	.st164{fill:#5D6B66;}
	.st165{fill:#40766A;}
	.st166{fill:#3C4140;}
	.st167{fill:#8D9082;}
	.st168{fill:#BEB811;}
	.st169{fill:#A1A29F;}
	.st170{fill:#D1C709;}
	.st171{fill:#555A56;}
	.st172{fill:#47504D;}
	.st173{fill:#3A3A3A;}
	.st174{fill:#151818;}
	.st175{fill:#414745;}
	.st176{fill:#0B0B0C;}
	.st177{fill:#7B8979;}
	.st178{fill:#7C8072;}
	.st179{fill:#2B2B2C;}
	.st180{fill:#566966;}
	.st181{fill:#101010;}
	.st182{fill:#0D0D0D;}
	.st183{fill:#2F3030;}
	.st184{fill:#0E0E0D;}
	.st185{fill:#2E3030;}
	.st186{fill:#63665C;}
	.st187{fill:#516E64;}
	.st188{fill:#606A62;}
	.st189{fill:#7A8B7D;}
	.st190{fill:#7F8374;}
	.st191{fill:#B67F63;}
	.st192{fill:#555957;}
	.st193{fill:#888980;}
	.st194{fill:#0E0E0E;}
	.st195{fill:#29292A;}
	.st196{fill:#6A6E6D;}
	.st197{fill:#9C9F9D;}
	.st198{fill:#202725;}
	.st199{fill:#888979;}
	.st200{fill:#9B9C97;}
	.st201{fill:#6D726E;}
	.st202{fill:#95968A;}
	.st203{fill:#C7C036;}
	.st204{fill:#060607;}
	.st205{fill:#414443;}
	.st206{fill:#5B5951;}
	.st207{fill:#090909;}
	.st208{fill:#212121;}
	.st209{fill:#267D67;}
	.st210{fill:#A4A6A4;}
	.st211{fill:#476E67;}
	.st212{fill:#282828;}
	.st213{fill:#070707;}
	.st214{fill:#343434;}
	.st215{fill:#1A1A1A;}
	.st216{fill:#999B98;}
	.st217{fill:#848A84;}
	.st218{fill:#3B4342;}
	.st219{fill:#0C0C0C;}
	.st220{fill:#726F62;}
	.st221{fill:#2C2C2D;}
	.st222{fill:#060606;}
	.st223{fill:#303635;}
	.st224{fill:#050505;}
	.st225{fill:#AFAD42;}
	.st226{fill:#595C59;}
	.st227{fill:#CBC20B;}
	.st228{fill:#696861;}
	.st229{fill:#90948E;}
	.st230{fill:#393939;}
	.st231{fill:#5D6A65;}
	.st232{fill:#979C95;}
	.st233{fill:#3E4D48;}
	.st234{fill:#505452;}
	.st235{fill:#343736;}
	.st236{fill:#0C0C0D;}
	.st237{fill:#343435;}
	.st238{fill:#1D725F;}
	.st239{fill:#397467;}
	.st240{fill:#90918C;}
	.st241{fill:#8A8B7B;}
	.st242{fill:#586561;}
	.st243{fill:#707768;}
	.st244{fill:#373B39;}
	.st245{fill:#586C63;}
	.st246{fill:#2E2E2F;}
	.st247{fill:#A0A29E;}
	.st248{fill:#0B0B0B;}
	.st249{fill:#2E2E2E;}
	.st250{fill:#6B6F66;}
	.st251{fill:#3A3A3B;}
	.st252{fill:#6F6E64;}
	.st253{fill:#575B57;}
	.st254{fill:#087960;}
	.st255{fill:#4E5955;}
	.st256{fill:#677771;}
	.st257{fill:#6B6C68;}
	.st258{fill:#3C7466;}
	.st259{fill:#818979;}
	.st260{fill:#626B65;}
	.st261{fill:#8D928B;}
	.st262{fill:#A6A21B;}
	.st263{fill:#080B0A;}
	.st264{fill:#BAB212;}
	.st265{fill:#868B85;}
	.st266{fill:#D6CB0B;}
	.st267{fill:#4D5651;}
	.st268{fill:#606965;}
	.st269{fill:#878878;}
	.st270{fill:#A5A7A6;}
	.st271{fill:#122255;}
	.st272{fill:#3E7167;}
	.st273{fill:#858678;}
	.st274{fill:#494C49;}
	.st275{fill:#A1A3A0;}
	.st276{fill:#616962;}
	.st277{fill:#363636;}
	.st278{fill:#09886C;}
	.st279{fill:#456F67;}
	.st280{fill:#424242;}
	.st281{fill:#333435;}
	.st282{fill:#898A85;}
	.st283{fill:#6F6B5E;}
	.st284{fill:#626565;}
	.st285{fill:#5B6A63;}
	.st286{fill:#5A6A64;}
	.st287{fill:#3B504A;}
	.st288{fill:#959691;}
	.st289{fill:#9FA09C;}
	.st290{fill:#1D806A;}
	.st291{fill:#545553;}
	.st292{fill:#718776;}
	.st293{fill:#E7EEF1;}
	.st294{fill:#367667;}
	.st295{fill:none;stroke:#E5EDF1;stroke-miterlimit:10;}
	.st296{fill:#DB833C;}
	.st297{fill:#3D5280;}
	.st298{fill:#DB833C;fill-opacity:0.9765;}
	.st299{fill:#446BAF;}
	.st300{fill:#F9F9F9;fill-opacity:0.9922;}
</style>
<path class="st0" d="M168.8,369.5h116l56,11.2l28,7.2l23.2,6.4l20.8,6.4l23.2,8l1.6,1.6l8,2.4l20,8l19.2,8.8l21.6,10.4l18.4,10.4
	l14.4,8.8l8.8,5.6l14.4,10.4l10.4,8l8,7.2l8.8,7.2l12,12l7.2,8.8l8,8.8l8,10.4l8.8,13.6l6.4,12l4,10.4l3.2,16l0.8,4.8v12l-2.4,14.4
	l-6.4,16l1.6-0.8H676v75.2h-74.4v-34.4l-8.8,4.8l-0.8,0.8l-0.8,28.8h-77.6l-20.8,4l-38.4,5.6l-13.6,0.8H432l-3.2,0.8h-69.6
	l-47.2-4.8l-24-3.2l-37.6-6.4l-28-6.4l-34.4-8.8l-12.8-4l-9.6-2.4l-19.2-6.4l-8-3.2l-23.2-8.8l-18.4-8l-14.4-6.4l-8.8-4v-1.6
	l-4.8-0.8l-5.6-3.2l-4-2.4l-3.2-1.6l-2.4-4l-9.6-4l-10.4-4.8l-10.4-7.2h-2.4l1.6-16.8l2.4-24.8l0.8-16.8l1.8-14.2l1.1-8.1l1.1-7.3
	l4.8-37.6l8-51.2l7.2-29.6l8-23.2l4.8-8.8l4.8-4l6.4-2.4l15.2-2.4l25.6-1.6L168.8,369.5z"/>
<path class="st1" d="M284.8,369.6h196l112.8,0.8l89.6,1.6l45.6,1.6l28,1.6l24.8,3.2l16.8,4l16.8,5.6l16,7.2l12,6.4l17.6,11.2
	l25.6,19.2l12,10.4l8.8,7.2l22.4,19.2l8.8,7.2l8,10.4l96,96l5.6,6.4l8,8l5.6,6.4l8,8l5.6,6.4l4.8,4l14.4,2.4l12.8,2.4l12.8,6.4
	l16.8,7.2l15.2,7.2l16.8,7.2l36.8,18.4l21.6,12.8l9.6,7.2l6.4,6.4l6.4,10.4l4.8,12.8l4.8,20l2.4,17.6v8l-2.4,5.6h-40.8l-32-0.8
	l-8-0.8v-52H1104l-0.8,10.4l0.8,26.4l-12.8-0.8h-12l-12.8,1.6l-14.4,4l-12.8,6.4l-8,4.8l-3.2,2.4l-16.8-2.4l-0.8-4v-12l8-7.2
	l11.2-7.2v-31.2h64.8v-68l0.8-7.2h-33.6l-6.4-7.2l-6.4-8l-10.4-12.8l-7.2-8.8l-5.6-8l-0.8-3.2l-0.8-20l-3.2-3.2l-12-1.6l-0.8,5.6
	l-3.2,0.8l-6.4-6.4l-5.6-6.4l-16-16l-5.6-6.4L932.8,496l-6.4-4.8l-9.6-4.8l-15.2-4l-18.4-3.2l-39.2-4.8l-23.2-2.4h-12l-5.6,2.4
	l-4.8,4l-1.6,4v8.8l4.8,39.2l4,27.2l7.2,32l4,9.6l4,5.6v1.6l3.2,1.6l6.4,4.8l10.4,4l21.6,4l60,10.4l57.6,10.4l39.2,8l0.8,1.6v60h8
	v31.2l-8.8,5.6l-7.2,5.6h-0.8V720H936v49.6h-8.8V720H852v48.8h-24.8l-25.6-0.8l-1.6-35.2l-1.6-16.8v-4.8h44.8V676l0.8-2.4V668h6.4
	l5.6-1.6l0.8-3.2l-1.6-1.6l-11.2-0.8l-0.8-0.8v-4h2.4l-2.4-2.4V636h-54.4l-0.8-8l-2.4-56l-0.8-33.6l-1.6-38.4v-40H800l38.4,2.4
	l-43.2-3.2l-14.4-0.8l0.8,1.6l0.8,16.8l1.6,60.8l1.6,39.2l0.8,32.8l0.8,14.4v12H772l-0.8-32v-94.4L770.4,636h-1.6v29.6l-0.8,45.6
	h2.4v8l0.8,0.8v-8.8h25.6l1.6,8.8l1.6,35.2V768h-40l-0.8-5.6V720h-74.4v47.2L684,768h-7.2l-0.8-0.8l-0.8-8.8V720h-74.4v46.4
	l-0.8,0.8h-7.2l-0.8-0.8V720h-74.4v42.4l-0.8,4h-8l-0.8-0.8V720h-47.2v-0.8l37.6-5.6l15.2-3.2l77.6,0.8v-28.8l8-5.6h2.4v34.4H676
	V636l-36.8,0.8l0.8-4l4.8-12l2.4-14.4v-12l-3.2-17.6l-3.2-9.6l-6.4-12.8l-6.4-11.2l-8-10.4l-6.4-8l-7.2-8l-7.2-8.8L588,496.8
	l-8.8-7.2l-8-7.2L556.8,472l-11.2-8l-14.4-8.8l-10.4-6.4l-22.4-12l-21.6-10.4l-22.4-9.6l-16.8-6.4l-1.6-1.6l-7.2-1.6l-28.8-9.6
	l-28-8l-28-7.2l-26.4-5.6l-26.4-4.8l-6.4-1.6L284.8,369.6L284.8,369.6z"/>
<path class="st2" d="M1104,720h74.4v52l40,0.8h38.4l2.4,1.6l4.8,5.6l3.2,3.2v7.2l-4.8,31.2v7.2l-4,13.6l-7.2,8l-6.4,4.8l-19.2,10.4
	l-7.2,4l-16.8,1.6h-26.4l-12-4.8l-1.6,2.4l-3.2,10.4l-6.4,13.6l-8,11.2l-8.8,8.8l-10.4,7.2l-15.2,7.2l-14.4,3.2h-24.8l-14.4-3.2
	l-12.8-5.6l-8.8-4.8l-11.2-8.8l-4-4v-1.6l-4-1.6l-13.6-3.2l-16.8-6.4l-7.2-4l-12-8v-1.6h11.2V876h-7.2l-6.4-1.6l-25.6-0.8l-4,3.2
	l-19.2-0.8l-72-1.6l-74.4-0.8l-168-0.8l-196.8-1.6v-0.8h21.6V812h165.6l2.4-0.8h92l6.4,0.8l12.8-0.8l32.8,0.8h16.8l5.6-1.6h8.8v-4.8
	l1.6-0.8v8l-0.8,1.6l1.6,0.8l-0.8,17.6V856l-0.8,8.8l4,0.8l34.4-0.8H840l3.2,0.8v-7.2l1.6-1.6l6.4,0.8l0.8,0.8V872h25.6l45.6,1.6
	l3.2,0.8l0.8-16.8V816l0.8-0.8h42.4l24.8,0.8l-0.8,5.6l-3.2,9.6h-1.6l-2.4,8.8l-1.6,5.6l-1.6,12l2.4-11.2l2.4-5.6l6.4-20.8l2.4-8
	l6.4-12l7.2-9.6l12-12l8-6.4l8.8-5.6l14.4-6.4l16-4l8.8-0.8h12l12.8,1.6l-0.8-2.4v-24h-6.4v-0.8h6.4v-7.2L1104,720z"/>
<path class="st2" d="M21.6,619.2l4,1.6l8.8,6.4l9.6,4l12,8.8l7.2,4l10.4,5.6l7.2,2.4l10.4,4.8l18.4,8l17.6,7.2l12.8,4.8l16,5.6
	l14.4,4.8l12.8,3.2l23.2,6.4l32.8,8l24,4.8l35.2,5.6l29.6,3.2l21.6,2.4v44l-6.4,2.4l-27.2,3.2h-6.4l-12-5.6l-16.8-4.8l-8-0.8h-19.2
	l-13.6,2.4l-11.2,3.2l-10.4,4.8H216v1.6l-9.6,6.4l-6.4,4l-9.6,9.6l-6.4,8l-4.8,8l-0.8,4l-3.2,6.4l-1.6,0.8l-1.6,8l-3.2,12l-2.4,16
	l-0.8,8.8l2.4,0.8l-0.8,4l-10.4-0.8l-48.8-6.4l-40.8-6.4l-30.4-4.8l-4-1.6l-1.6-1.6l-10.4-3.2l-3.2-3.2l-2.4-13.6v-4.8l1.6-1.6
	v-38.4l-0.8-2.4l-0.8-14.4l3.2-2.4l-1.6-3.2v-24.8l0.8-34.4l2.4-24.8l-0.8-2.4v-40l1.6-12.8L21.6,619.2z"/>
<path class="st3" d="M808.8,471.2h12l44,4.8l28,4l19.2,4l10.4,4l7.2,4.8l9.6,8.8l37.6,37.6l5.6,6.4l16,16l5.6,6.4l3.2,0.8l1.6-5.6
	l12,0.8l4,4l0.8,20l2.4,5.6l5.6,7.2l10.4,12.8l6.4,8l10.4,12.8l4,1.6l0.8,4.8l8.8,11.2l2.4,4l-0.8,4l-0.8,0.8h-5.6l-33.6-7.2
	l-7.2-1.6l-0.8,1.6l-7.2-3.2l-0.8,3.2l-0.8-4l-7.2-0.8l-40-8l-128-22.4l-12-4l-7.2-4.8l-4-3.2l-5.6-8.8l-3.2-8l-7.2-32L800,524
	l-4-32.8v-8.8l2.4-4.8l5.6-4.8L808.8,471.2z"/>
<path class="st2" d="M253.6,758.4h19.2l12,1.6l16.8,5.6l8,4l7.2,0.8l-3.2,0.8l3.2,3.2l8.8,6.4l8.8,8l7.2,8.8l5.6,8l6.4,11.2
	l5.6,13.6l2.4,5.6l4,16.8L368,864l2.4,6.4l11.2,0.8l-1.6,3.2l-7.2,7.2l-12,8l-18.4,8l-8,3.2l-8,8l-10.4,8l-11.2,6.4l-11.2,4.8
	l-9.6,2.4l-9.6,0.8h-12l-11.2-0.8l-11.2-3.2l-9.6-4l-11.2-7.2l-9.6-8l-7.2-8.8l-5.6-8.8L192,880l-4.8-20l-1.6-2.4l-6.4,1.6l-10.4,4
	h-3.2v-8.8l2.4-16l4-14.4l0.8-6.4h1.6l4-7.2l0.8-4.8l5.6-8.8l12-12.8l4.8-4.8l4.8-2.4l8-5.6h1.6v-1.6l15.2-6.4l12-3.2L253.6,758.4z"
	/>
<path class="st4" d="M768.8,804.8h0.8v8l-0.8,1.6l1.6,0.8l-0.8,17.6V856l-0.8,8.8l4,0.8l34.4-0.8H840l3.2,0.8v-7.2l1.6-1.6l6.4,0.8
	l0.8,0.8V872h25.6l45.6,1.6l3.2,0.8l0.8-16.8V816l0.8-0.8h42.4l24.8,0.8l-0.8,5.6l-3.2,9.6h-1.6l-2.4,8.8l-1.6,5.6l-1.6,12
	l-2.4,14.4l-1.6,2.4h-1.6l-0.8,3.2l-0.8-1.6h-7.2l-6.4-1.6l-25.6-0.8l-4,3.2l-19.2-0.8l-72-1.6l-74.4-0.8l-168-0.8l-196.8-1.6v-0.8
	h21.6V812h165.6l2.4-0.8h92l6.4,0.8l12.8-0.8l32.8,0.8h16.8l5.6-1.6h8.8v-4.8L768.8,804.8z"/>
<path class="st1" d="M1085.8,624.9h15.2l8,2.4l11.2,5.6l16.8,7.2l15.2,7.2l16.8,7.2l36.8,18.4l21.6,12.8l9.6,7.2l6.4,6.4l6.4,10.4
	l4.8,12.8l4.8,20l2.4,17.6v8l-2.4,5.6h-40.8l-32-0.8l-8-0.8v-52h-74.4l-0.8,10.4l0.8,26.4l-12.8-0.8h-12l-12.8,1.6l-14.4,4
	l-12.8,6.4l-8,4.8l-3.2,2.4l-16.8-2.4l-0.8-4v-12l8-7.2l11.2-7.2v-31.2h64.8v-68l0.8-7.2h-33.6l-4-4l-0.8-4.8l3.2-0.8h14.4l9.6-0.8
	L1085.8,624.9z"/>
<path class="st5" d="M812.8,476.8h8.8l16.8,2.4l28,3.2l20,3.2l12.8,3.2l6.4,3.2l4,4l4,1.6l1.6,8l6.4,0.8L924,520l1.6,16.8l0.8,19.2
	l2.4,10.4v9.6l2.4,8l2.4,28l0.8,12.8l-4,2.4v-5.6l-3.2-1.6l-7.2-4.8l-1.6-3.2l0.8-6.4l0.8-1.6h1.6l0.8-4l3.2-5.6v-4l-3.2-1.6
	l-0.8,3.2l-6.4,3.2l-3.2,4l-3.2,4.8h-1.6l-0.8,3.2l-9.6,13.6l-4,0.8l-4-0.8l-38.4-6.4l-9.6-2.4l-8-3.2l-8-7.2l-4.8-7.2l-4-14.4
	l-6.4-29.6l-4-28.8l-2.4-24v-16L812.8,476.8z"/>
<path class="st6" d="M436.8,768h37.6l40.8,0.8h57.6l10.4,0.8h75.2l98.4,0.8l12,0.8v33.6l-0.8,5.6l-8.8,0.8l-5.6,1.6h-18.4l-36-0.8
	l-9.6,0.8l-10.4-0.8h-94.4l-69.6-0.8l-0.8-0.8h-63.2l-11.2-0.8l-8-0.8l-0.8-0.8v-38.4L436.8,768z"/>
<path class="st7" d="M89.6,656.8l7.2,2.4l18.4,8l12,4.8l12.8,4.8l16,5.6l14.4,4.8l12.8,3.2l23.2,6.4l32.8,8l24,4.8l35.2,5.6
	l29.6,3.2l21.6,2.4v44l-6.4,2.4l-27.2,3.2h-6.4l-12-5.6l-16.8-4.8l-24-1.6l0.8-38.4h-75.2v36.8l-0.8,7.2h-8l-0.8-7.2v-23.2l0.8-13.6
	l-74.4,0.8l-0.8,42.4h-8.8V720H52.8l-1.6-3.2l0.8-5.6h37.6V656.8z"/>
<path class="st8" d="M60.8,765.6h102.4l22.4,0.8l20,3.2l8,1.6v1.6l-9.6,6.4l-4,2.4l-9.6,9.6l-6.4,8l-4.8,8l-0.8,4l-3.2,6.4l-1.6,0.8
	l-1.6,8l-3.2,12l-2.4,16l-0.8,8.8l2.4,0.8l-0.8,4l-10.4-0.8l-48.8-6.4l-36-5.6l3.2-0.8L72,848l-1.6-40l1.6-3.2l-8-2.4l-4-2.4
	l-3.2-6.4l-0.8-4L55.2,768l0.8-1.6L60.8,765.6z"/>
<path class="st9" d="M770.4,448h0.8l0.8,61.6V636h15.2l-1.6-26.4L784,552l-0.8-14.4l-1.6-60.8l-0.8-18.4h14.4l43.2,3.2l5.6,0.8v0.8
	h-8l-36-2.4l-16.8-0.8l0.8,40l1.6,38.4l0.8,33.6l2.4,56v8h54.4l0.8,17.6l2.4,3.2l-3.2-0.8l0.8,4l11.2,0.8l2.4,2.4l-0.8,3.2l-1.6,1.6
	l-9.6,0.8L844,668l0.8,6.4L844,676l-0.8,35.2h-44.8l2.4,21.6l0.8,19.2v16h25.6v0.8h-68L684,768l0.8-48h74.4l0.8,48h40l-2.4-48
	l-0.8-8.8h-25.6v8.8l-1.6-0.8l0.8-8H768v-60l0.8-15.2h1.6L770.4,448L770.4,448z"/>
<path class="st10" d="M770.4,814.4H804l1.6,2.4l1.6,16l-0.8-9.6v-8.8h18.4l18.4,0.8l0.8,40l8,0.8v-40l0.8-0.8H924l2.4,0.8l0.8,40.8
	l0.8,3.2l-0.8,14.4l-1.6,0.8l-2.4-0.8l-48-1.6H852l-0.8-0.8v-13.6l-6.4-0.8l-0.8,0.8l-0.8,7.2h-46.4l-24.8,0.8l-3.2-1.6V828
	l0.8-12.8L770.4,814.4z"/>
<path class="st11" d="M432,721.6l22.4-1.6H508v46.4h-74.4l-83.2-0.8l-0.8-0.8v-43.2l79.2,0.8L432,721.6z"/>
<path class="st12" d="M260,805.6h12l10.4,2.4l10.4,5.6l8,7.2l4.8,5.6l6.4,12.8l1.6,7.2v12.8l-4,12.8l-2.4,4.8h-1.6v2.4H304l-1.6,4.8
	l-5.6,5.6l-8.8,5.6l-9.6,4l-4,0.8h-16.8l-10.4-3.2l-9.6-5.6l-7.2-7.2v-1.6h-1.6l-0.8-3.2h-1.6l-3.2-6.4v-2.4h-1.6l-2.4-8l-0.8-5.6
	v-11.2l4.8-13.6l6.4-8.8l4-4l6.4-5.6l6.4-4l8.8-3.2L260,805.6z"/>
<path class="st13" d="M1076.8,805.6h15.2l11.2,3.2l11.2,7.2l7.2,7.2l5.6,8.8l3.2,8l0.8,4v19.2l-4,9.6l-3.2,6.4h-1.6l-0.8,3.2l-4.8,4
	h-1.6l-1.6,3.2l-6.4,4h-1.6v1.6l-8,3.2l-8,1.6h-10.4l-12.8-3.2l-8.8-4.8l-6.4-5.6l-4-4.8l-5.6-8l-4-11.2l-0.8-4.8V848l2.4-10.4
	l5.6-11.2l7.2-8l7.2-6.4l10.4-4.8L1076.8,805.6z"/>
<path class="st14" d="M805.6,515.2L816,516l29.6,4l22.4,4l8,4l2.4,4.8l4,38.4l4.8,48.8l-8.8-0.8l-8.8-1.6l-19.2-3.2l-9.6-2.4l-8-3.2
	l-8-7.2l-4.8-7.2l-4-14.4l-6.4-29.6l-4-28.8L805.6,515.2L805.6,515.2z"/>
<path class="st15" d="M684.8,636H760v75.2h-75.2V636z"/>
<path class="st16" d="M741.6,552l17.6,0.8l0.8,56V628h-75.2v-75.2L741.6,552z"/>
<path class="st17" d="M852,636h75.2v75.2H852v-42.4l4-2.4l0.8-3.2L852,660V636z"/>
<path class="st18" d="M424.8,812h82.4l10.4,0.8V852l-0.8,2.4v16.8h52v0.8h-68l-97.6-0.8v-0.8h21.6V812z"/>
<path class="st19" d="M929.6,504l4,0.8l8,6.4l17.6,17.6l5.6,6.4l14.4,14.4l5.6,6.4l4,5.6l1.6,11.2l4,33.6v6.4l-3.2,2.4h-4.8
	l-5.6-2.4l-1.6,20.8l-1.6,2.4l-16-3.2l-11.2-1.6l-8-3.2l-2.4-16.8l-3.2-34.4l-0.8-5.6l-0.8-14.4l-3.2-8l-4-36v-6.4L929.6,504z"/>
<path class="st20" d="M1079.2,755.2h12l16.8,2.4l14.4,4.8l13.6,7.2l8,5.6l12,12l7.2,10.4l4.8,8.8l5.6,16.8l2.4,12.8l0.8,9.6V856
	l-3.2,9.6l-0.8,0.8h-6.4l-2.4-1.6l1.6-4l-0.8-6.4l-4-23.2l-4-11.2l-2.4-4l-2.4-5.6l-4-5.6v-1.6l-2.4-0.8l-4-4.8l-8-6.4l-10.4-7.2
	l-5.6-3.2l-2.4-0.8v-1.6l-3.2,0.8l-5.6-2.4l-5.6-0.8l-2.4-0.8l-10.4-0.8l-5.6-0.8l-2.4,0.8h-12.8l-9.6,2.4l-4,1.6l-11.2,6.4l-4,3.2
	l-12.8,8.8l-7.2,9.6l-4,7.2l-5.6,11.2l-4,14.4l-1.6,14.4l-1.6,3.2h-1.6l-1.6,4.8l-1.6,1.6l-12,0.8l0.8-8l3.2-15.2l6.4-20.8l2.4-8
	l6.4-12l7.2-9.6l12-12l8-6.4l8.8-5.6l14.4-6.4l16-4L1079.2,755.2z"/>
<path class="st4" d="M1064.8,636h30.4v39.2l-0.8,36h-64.8l-0.8-32l-0.8,32h-8l-0.8-55.2l1.6-5.6l6.4,1.6h3.2l20,4l19.2,4h5.6l0.8-4
	l-5.6-8l-6.4-8.8L1064.8,636z"/>
<path class="st20" d="M253.6,758.4h19.2l12,1.6l16.8,5.6l8,4l7.2,0.8l-3.2,0.8l3.2,3.2l8.8,6.4l8.8,8l7.2,8.8l5.6,8l6.4,11.2
	l5.6,13.6l1.6,3.2l0.8,8L364,852v4.8l-9.6,0.8l-4-3.2l-4-1.6l-0.8-2.4l0.8-4l-1.6-8l-0.8-1.6l0.8-2.4l-2.4-4l-1.6-5.6l-3.2-7.2
	l-3.2-6.4l-8-10.4L313.6,788l-7.2-4.8l-8-4l-11.2-3.2l-12.8-1.6l-14.4-0.8l-16,2.4l-14.4,6.4L220,788l-12,11.2l-6.4,7.2l-5.6,8.8
	l-6.4,12.8l-3.2,12l-2.4,10.4l-1.6,2.4h-12.8l-0.8-0.8v-7.2l2.4-13.6l3.2-9.6l8-16.8l5.6-8.8l7.2-8.8l8.8-8.8l10.4-7.2h1.6v-1.6
	l15.2-6.4l12-3.2L253.6,758.4z"/>
<path class="st4" d="M100,808h25.6l46.4,1.6l0.8,0.8V824l-4,14.4l-2.4,16l-0.8,8.8l2.4,0.8l-0.8,4l-10.4-0.8l-48.8-6.4l-9.6-1.6
	v-50.4L100,808z"/>
<path class="st8" d="M349.6,768h67.2l11.2,0.8l0.8,0.8v25.6l-0.8,11.2l-1.6,2.4l-3.2,0.8l-18.4,0.8l-56-0.8l-7.2-11.2l-7.2-8
	l-4.8-5.6l-11.2-8.8l-2.4-1.6v-1.6h6.4l8-2.4l15.2-1.6L349.6,768z"/>
<path class="st21" d="M592,812.8h47.2l45.6,0.8v40.8h-92l-0.8-0.8V812.8z"/>
<path class="st10" d="M351.2,811.2H424l0.8,1.6v57.6l-41.6,0.8l-1.6,0.8l-11.2-0.8l-4-9.6l-2.4-12l-4-16l-6.4-14.4l-2.4-5.6
	L351.2,811.2L351.2,811.2z"/>
<path class="st22" d="M852,720h75.2v48.8l-0.8,0.8h-73.6l-0.8-6.4L852,720L852,720z"/>
<path class="st23" d="M684.8,720h74.4l0.8,48h40l-0.8-12.8v-8.8l0.8-13.6h0.8l0.8,19.2v16h25.6v0.8h-68L684,768L684.8,720z"/>
<path class="st24" d="M1104,720h74.4v52l-4.8,0.8l-28,3.2l-4-1.6l-11.2-7.2l-12-5.6l-13.6-4l-1.6-3.2v-24v-0.8v-7.2L1104,720z"/>
<path class="st10" d="M936,720h75.2v27.2l-0.8,8l-6.4,5.6l-9.6,9.6h-16l-42.4-0.8V720z"/>
<path class="st17" d="M928,815.2h42.4l24.8,0.8l-0.8,5.6l-3.2,9.6h-1.6l-2.4,8.8l-1.6,5.6l-1.6,12l-2.4,14.4l-1.6,2.4h-1.6l-0.8,3.2
	l-0.8-1.6h-7.2l-6.4-1.6l-25.6-0.8l-4,3.2h-6.4l-0.8-2.4l0.8-16.8V816L928,815.2z"/>
<path class="st23" d="M600.8,720h74.4l0.8,42.4l-0.8,4.8H600L600.8,720z"/>
<path class="st25" d="M517.6,720H592v46.4l-0.8,0.8h-61.6l-12-0.8l-0.8-4L517.6,720z"/>
<path class="st4" d="M182.4,720h75.2v37.6l-4,1.6l-13.6,2.4l-11.2,3.2l-10.4,4.8l-9.6-0.8l-23.2-3.2l-4-1.6L182.4,720z"/>
<path class="st26" d="M349.6,721.6l75.2,0.8v43.2h-74.4l-0.8-0.8V721.6z"/>
<path class="st23" d="M99.2,720h74.4v13.6l-0.8,30.4h-35.2l-38.4-0.8l-0.8-4.8v-37.6L99.2,720z"/>
<path class="st27" d="M675.2,762.4h0.8l0.8,4.8l82.4,0.8l43.2,0.8l2.4,35.2l0.8,10.4h-36.8v-43.2l-113.6-0.8h-74.4l-8-0.8h-61.6
	l-36.8-0.8h-37.6l-4.8,0.8V808l8,0.8l18.4,0.8h56.8v1.6l2.4-0.8l67.2,0.8l5.6,0.8v0.8H424v-1.6h-72.8l-0.8,1.6l-0.8-3.2h56l17.6-0.8
	l3.2-0.8l0.8-1.6l0.8-11.2v-25.6l-11.2-0.8h-67.2l-8.8,1.6l-10.4,0.8l-9.6,2.4h-6.4l-0.8-2.4l2.4-1.6l27.2-3.2l4-1.6l86.4,0.8h84
	l12,0.8h63.2l82.4,0.8L675.2,762.4L675.2,762.4z"/>
<path class="st10" d="M852.8,815.2H924l2.4,0.8v42.4l-10.4-0.8l-24-0.8l-39.2-0.8l-0.8-8.8V816L852.8,815.2z"/>
<path class="st10" d="M517.6,812.8h73.6l0.8,0.8v40l-74.4-0.8l-0.8-9.6v-20L517.6,812.8z"/>
<path class="st28" d="M98.4,660.8l7.2,2.4l21.6,8.8l12.8,4.8l16,5.6l17.6,5.6v23.2H99.2l-0.8-0.8C98.4,710.4,98.4,660.8,98.4,660.8z
	"/>
<path class="st29" d="M19.2,636.8H20l0.8,35.2v1.6h1.6l0.8,1.6l3.2-0.8l24,0.8l0.8,56L52,756l-1.6,0.8H23.2v-1.6h-1.6l-0.8-2.4
	l0.8-9.6v-4.8H20l-0.8,3.2h-1.6l0.8,8L20,752v8h-2.4l-0.8-0.8v-24.8l0.8-34.4l2.4-24.8l-0.8-2.4V636.8z"/>
<path class="st30" d="M1076.8,809.6h12.8l8,2.4l6.4,4l5.6,5.6l1.6,3.2l2.4,2.4l1.6,4.8l0.8,1.6l2.4,0.8v1.6h1.6l2.4,7.2v9.6
	l-2.4,0.8h-3.2V852h-2.4l-3.2-12l-3.2-3.2v-2.4l-3.2-1.6l-4-4l-8-4H1076l-7.2,3.2l-6.4,4.8l-5.6,8l-1.6,7.2l0.8,8.8l3.2,8l3.2,4.8
	l6.4,5.6l7.2,3.2l3.2,0.8h10.4l8-2.4l8.8-6.4l2.4-4l2.4-2.4l2.4-4.8h1.6v-2.4l5.6-0.8v8l-4,9.6l-5.6,6.4l-4,4l-10.4,6.4l-10.4,3.2
	h-12l-10.4-3.2l-8-5.6l-7.2-7.2l-1.6-3.2V872h-1.6l-3.2-8l-0.8-3.2V844l2.4-8l4-8.8l2.4-3.2h1.6l1.6-3.2l4-4l12-5.6L1076.8,809.6z"
	/>
<path class="st31" d="M257.6,824h16l9.6,4.8l7.2,7.2l3.2,6.4l1.6,10.4l-1.6,8.8l-4,7.2l-4.8,5.6l-8,4.8l-5.6,1.6h-10.4l-9.6-3.2
	l-8-7.2l-4-5.6l-2.4-8v-9.6l3.2-8.8l6.4-8l7.2-4.8L257.6,824z"/>
<path class="st32" d="M929.6,504l4,0.8l8,6.4l17.6,17.6l5.6,6.4l14.4,14.4l5.6,6.4l4,5.6l1.6,11.2l4,33.6v6.4l-3.2,2.4h-4.8
	l-5.6-2.4l-1.6,20.8l-1.6,2.4l-16-3.2l-11.2-1.6l-8-3.2l-2.4-16.8l-3.2-34.4l-0.8-5.6l-0.8-14.4l-3.2-8l-4-36v-6.4L929.6,504z
	 M930.4,505.6l-0.8,0.8v8.8l3.2,32l2.4,7.2l5.6,5.6l5.6,6.4l9.6,9.6l5.6,6.4l12.8,13.6l4,4l9.6,8l4,1.6v-6.4l-3.2-22.4v-7.2
	l-2.4-12.8l-7.2-8l-5.6-6.4l-7.2-7.2l-5.6-6.4L952,524l-5.6-6.4l-8.8-8l-4.8-4L930.4,505.6L930.4,505.6z"/>
<path class="st18" d="M1072,729.6h24.8l6.4,0.8l0.8,26.4l-12.8-0.8h-12l-12.8,1.6l-14.4,4l-12.8,6.4l-8,4.8l-3.2,2.4l-16.8-2.4
	l-0.8-4v-12l8-7.2l11.2-7.2l12.8-5.6l12-4L1072,729.6z"/>
<path class="st6" d="M31.2,766.4h17.6l2.4,1.6l0.8,5.6l0.8,18.4l1.6,6.4l4.8,5.6l8,4.8h1.6l2.4-3.2l0.8,28l0.8,14.4l2.4,4v2.4h-8
	L56,852.8V852h8.8l8,0.8l-2.4-6.4L69.6,832l-0.8-3.2l-3.2-2.4l-4,2.4l-4,1.6l-3.2,2.4v4.8l-4,1.6l-12.8-1.6l-5.6-3.2l-2.4-2.4
	l-3.2-8.8l-1.6-14.4L24,792l-1.6-16.8l0.8-5.6l2.4-2.4L31.2,766.4z"/>
<path class="st28" d="M53.6,638.4l6.4,3.2l3.2,2.4l10.4,5.6l7.2,2.4l8.8,4.8v54.4h-36l-1.6-0.8l-0.8-17.6l0.8-53.6L53.6,638.4z"/>
<path class="st33" d="M885.6,536.8h2.4l1.6,2.4l4,2.4l11.2,11.2l5.6,6.4l12,12.8l6.4,8l1.6,0.8l1.6,10.4l1.6,20.8l0.8,12.8l-4,2.4
	v-5.6l-3.2-1.6l-7.2-4.8l-1.6-3.2l0.8-6.4l0.8-1.6h1.6l0.8-4l3.2-5.6v-4l-3.2-1.6l-0.8,3.2l-6.4,3.2l-3.2,4l-3.2,4.8h-1.6l-0.8,3.2
	l-9.6,13.6l-4,0.8l-3.2-3.2l-1.6-13.6l-1.6-22.4l-3.2-40.8l0.8-4L885.6,536.8z"/>
<path class="st14" d="M1208,689.6h6.4l7.2,1.6l8.8,6.4l11.2,12l6.4,12.8l4.8,15.2l4,16v6.4l-7.2-1.6l-10.4-4l-7.2-4.8l-8-7.2
	l-6.4-6.4l-7.2-8.8l-9.6-12l-11.2-16.8l-0.8-3.2l4.8-3.2l7.2-1.6L1208,689.6z"/>
<path class="st34" d="M936.8,478.4l4.8,1.6l5.6,7.2l95.2,95.2l5.6,6.4l8,8l5.6,6.4l8,8l5.6,6.4l4.8,4l14.4,2.4v0.8l-8.8,0.8
	l-1.6,0.8l-16,0.8h-10.4l-0.8,3.2L1048,620l-9.6-12l-7.2-8.8l-5.6-8l-0.8-3.2l-0.8-20l-3.2-3.2l-12-1.6l-0.8,5.6l-3.2,0.8l-6.4-6.4
	l-5.6-6.4l-16-16l-5.6-6.4L932.8,496l-6.4-4.8l-2.4-2.4l4.8,1.6l8,7.2l6.4,6.4l4.8,4l4.8,5.6l6.4,5.6l8.8,9.6l16.8,16.8l5.6,6.4
	l15.2,15.2l2.4-6.4l-3.2-1.6l-12-12.8l-5.6-6.4l-0.8-4.8l-5.6-4l-4-1.6V528l-3.2-1.6l-3.2-4l-2.4-7.2l-6.4-6.4l-3.2-4l-4-2.4l-4.8-4
	l-0.8-2.4l-1.6-0.8v-1.6L944,492l-2.4-3.2l-0.8-3.2l-4-5.6V478.4z"/>
<path class="st35" d="M771.2,457.6h8l2.4,2.4l0.8,16.8l1.6,60.8l1.6,39.2l0.8,32.8l0.8,14.4v12H772l-0.8-32V457.6z"/>
<path class="st18" d="M424.8,812h6.4l0.8,39.2l56.8,0.8l28,0.8v18.4h52v0.8h-68l-97.6-0.8v-0.8h21.6L424.8,812L424.8,812z"/>
<path class="st17" d="M799.2,720h44v48.8h-16l-25.6-0.8l-1.6-35.2L799.2,720z"/>
<path class="st18" d="M257.6,732H268l18.4,1.6l13.6,3.2l10.4,4L324,748l12.8,9.6l9.6,8l-3.2,1.6l-27.2,3.2h-6.4l-12-5.6l-16.8-4.8
	l-24-1.6L257.6,732z"/>
<path class="st36" d="M1028,669.6h0.8l0.8,9.6v62.4l1.6,0.8l-10.4,6.4l-8.8,7.2l-0.8,4v12l15.2,2.4v2.4l-9.6,8.8l-6.4,6.4l-8,12
	l-5.6,12l-40.8-1.6v-0.8l15.2-1.6l4.8-9.6l8-16.8l2.4-0.8l1.6-4.8l2.4-6.4l-47.2-0.8H916l-37.6-1.6l0.8-1.6l48-0.8l51.2,0.8h16
	l14.4-14.4h1.6v-8h0.8l0.8,5.6l10.4-8l4-2.4h1.6V669.6z"/>
<path class="st37" d="M768.8,804.8h0.8v8l-0.8,1.6l1.6,0.8l-0.8,17.6V856l-0.8,8.8l4,0.8l34.4-0.8H840l3.2,0.8v-7.2l1.6-1.6l6.4,0.8
	l0.8,0.8V872h25.6l45.6,1.6l3.2,1.6v0.8l-52.8-0.8l-31.2-0.8l-74.4-0.8h-21.6v-0.8h12.8v-57.6l-51.2-0.8l-22.4-0.8l-0.8,1.6v-1.6
	h-93.6v-2.4h93.6l6.4,0.8l12.8-0.8l32.8,0.8h16.8l5.6-1.6h8.8v-4.8L768.8,804.8z"/>
<path class="st8" d="M832,478.4h12.8l21.6,2.4l32,4.8l12.8,3.2l8,3.2l8,2.4l1.6,0.8v-1.6l-3.2-1.6l-7.2-4l-17.6-4.8l-12-2.4V480
	l8.8,0.8l16.8,4l9.6,4l6.4,4.8l8,7.2l38.4,38.4l5.6,6.4l16,16l-0.8,1.6l-20-20l-4.8-4l-5.6-6.4l-3.2-2.4l0.8,0.8l5.6,6.4l5.6,5.6
	v1.6h1.6l5.6,6.4l6.4,8.8l1.6,4.8l2.4,22.4l0.8,11.2l1.6,14.4l-0.8,2.4v6.4l0.8,11.2l-3.2,4.8h-5.6l-4.8-1.6l-0.8-11.2h-0.8
	l-0.8,5.6h-0.8V620l1.6-7.2l5.6,1.6h4.8l2.4-1.6v-6.4l-4-33.6l-1.6-11.2l-5.6-7.2l-11.2-12l-12-12l-5.6-6.4l-14.4-14.4l-6.4-4.8
	h-3.2l-0.8,1.6l0.8,15.2l3.2,27.2l3.2,8l0.8,14.4l3.2,30.4v9.6h-0.8l-1.6-14.4l-3.2-13.6V576h-1.6v1.6h-1.6v6.4l-1.6-3.2l-1.6-6.4
	v-8l-2.4-12l-1.6-27.2l-2.4-20.8l-6.4-0.8l-1.6-4.8v-3.2L908,496l-3.2-4l-7.2-3.2l-14.4-3.2l-36-4.8l-15.2-1.6L832,478.4L832,478.4z
	"/>
<path class="st38" d="M1076.8,805.6h15.2l11.2,3.2l11.2,7.2l7.2,7.2l5.6,8.8l3.2,8l0.8,4v19.2l-4,9.6l-3.2,6.4h-1.6l-0.8,3.2l-4.8,4
	h-1.6l-1.6,3.2l-6.4,4h-1.6v1.6l-8,3.2l-8,1.6h-10.4l-12.8-3.2l-8.8-4.8l-6.4-5.6l-4-4.8l-5.6-8l-4-11.2l-0.8-4.8V848l2.4-10.4
	l5.6-11.2l7.2-8l7.2-6.4l10.4-4.8L1076.8,805.6z M1076.8,809.6l-9.6,2.4l-10.4,5.6l-4,4l-0.8,2.4l-3.2,1.6l-3.2,6.4l-2.4,5.6
	l-1.6,6.4v16.8l3.2,9.6l0.8,1.6h1.6l0.8,3.2l2.4,4l7.2,7.2l8,4.8l8.8,2.4h12l12-4l8.8-5.6l4-4l6.4-8l3.2-8v-8l-5.6,0.8v2.4l-2.4,0.8
	l-0.8,1.6l1.6-7.2l-0.8-8l-2.4-8l2.4,7.2l1.6,6.4h2.4v1.6h4.8l0.8-0.8v-9.6l-2.4-7.2h-1.6v-1.6l-3.2-1.6l-0.8-4l-1.6-3.2l-2.4-1.6
	l-2.4-4l-5.6-5.6l-8.8-4l-4-0.8L1076.8,809.6L1076.8,809.6z"/>
<path class="st17" d="M771.2,711.2h25.6l1.6,8.8l1.6,35.2V768h-31.2v-48h2.4L771.2,711.2L771.2,711.2z"/>
<path class="st28" d="M53.6,720h36v37.6l-0.8,5.6H56l-1.6-0.8l-1.6-12v-29.6L53.6,720z"/>
<path class="st18" d="M592.8,855.2l92,0.8v8l-0.8,8.8h-84l-8.8-0.8l0.8-16L592.8,855.2z"/>
<path class="st39" d="M260,805.6h12l10.4,2.4l10.4,5.6l8,7.2l4.8,5.6l6.4,12.8l1.6,7.2v12.8l-4,12.8l-2.4,4.8h-1.6v2.4H304l-1.6,4.8
	l-5.6,5.6l-8.8,5.6l-9.6,4l-4,0.8h-16.8l-10.4-3.2l-9.6-5.6l-7.2-7.2v-1.6h-1.6l-0.8-3.2h-1.6l-3.2-6.4v-2.4h-1.6l-2.4-8l-0.8-5.6
	v-11.2l4.8-13.6l6.4-8.8l4-4l6.4-5.6l6.4-4l8.8-3.2L260,805.6z M258.4,807.2l-19.2,9.6l-8,8l-4.8,11.2l0.8,11.2v8.8l2.4,11.2
	l3.2,4.8l4,6.4l7.2,7.2l9.6,4.8l2.4-0.8V888l4.8,0.8l-2.4,1.6l0.8,2.4h15.2l2.4-1.6L288,888l5.6-4l4-2.4l4.8-5.6l4.8-9.6l2.4-8.8
	v-12l-4.8-12.8l-4-7.2h-1.6l-1.6-3.2l-8-6.4l-5.6-3.2l-12-4l2.4-1.6H258.4z"/>
<path class="st40" d="M806.4,814.4h18.4l18.4,0.8v40h-12l-16-0.8l-3.2-3.2l-3.2-15.2v-6.4h-1.6l-0.8-6.4L806.4,814.4L806.4,814.4z"
	/>
<path class="st41" d="M71.2,806.4l26.4,0.8l0.8,0.8v50.4l-11.2-0.8L72,855.2l3.2-0.8L72,848l-1.6-40L71.2,806.4z"/>
<path class="st10" d="M684.8,692l23.2,0.8l51.2,3.2v14.4l-2.4,0.8h-72V692z"/>
<path class="st42" d="M936.8,816h25.6l8.8,0.8l-3.2,12.8l-3.2,13.6l-1.6,11.2l-3.2,3.2h-10.4l-13.6-0.8v-40L936.8,816z"/>
<path class="st8" d="M772,772h28l1.6,15.2l0.8,0.8l0.8,24.8h-28.8l-2.4-2.4L772,772L772,772z"/>
<path class="st25" d="M182.4,720h75.2l-0.8,5.6l-15.2,1.6l-15.2,4l-12.8,4.8l-13.6,8l-15.2,11.2l-2.4,1.6V720z"/>
<path class="st43" d="M1163.2,654.4l5.6,2.4l20.8,9.6l12,5.6l14.4,8l5.6,2.4l11.2,7.2l8,7.2l5.6,7.2l5.6,11.2l4.8,16l4,20.8l0.8,8v8
	l-2.4,5.6h-40.8v-0.8l6.4-0.8l17.6-0.8l-0.8-3.2v-5.6l0.8-4l-9.6-6.4l-3.2-4l3.2,1.6l8,4.8l16,5.6l-2.4-13.6L1248,724l-6.4-12.8
	l-5.6-6.4l-6.4-7.2l-8-5.6l-7.2-1.6l-13.6,0.8l-7.2,1.6l-4,2.4l-1.6,2.4v-4l6.4-3.2l11.2-2.4l11.2-0.8l-15.2-9.6l-16.8-9.6
	l-17.6-8.8l-4-2.4L1163.2,654.4L1163.2,654.4z"/>
<path class="st44" d="M1020.8,650.4l6.4,1.6h3.2l20,4l19.2,4h6.4v2.4l12,2.4l4.8,2.4v4l-2.4,1.6h-8l-16.8-3.2l-27.2-4l-8.8-2.4v16
	h-0.8l-0.8,32h-8l-0.8-55.2L1020.8,650.4z"/>
<path class="st45" d="M1076.8,809.6h12.8l8,2.4l6.4,4l5.6,5.6l1.6,3.2l2.4,2.4l1.6,4.8l0.8,1.6l2.4,0.8v1.6h1.6l2.4,7.2v9.6
	l-2.4,0.8h-3.2V852h-2.4l-3.2-12l-3.2-3.2v-2.4l-3.2-1.6l-4-4l-8-4H1076l-7.2,3.2l-6.4,4.8l-6.4,8.8l-0.8-2.4l-0.8-0.8l-4.8-3.2
	l1.6-4l1.6-1.6l4.8,0.8l1.6,0.8l-2.4-4l0.8-3.2l3.2-2.4h4.8v-4l-8,4l-4,3.2l-4.8,7.2l-4.8,12h-0.8v-6.4l4.8-10.4l2.4-3.2h1.6
	l1.6-3.2l4-4l12-5.6L1076.8,809.6z"/>
<path class="st46" d="M1208,689.6h6.4l7.2,1.6l8.8,6.4l11.2,12l6.4,12.8l4.8,15.2l4,16v6.4l-7.2-1.6l-10.4-4l-7.2-4.8l-8-7.2
	l-6.4-6.4l0.8-1.6l5.6,4l5.6,6.4l6.4,4.8l4,0.8l2.4-2.4h5.6l-1.6-3.2l-4.8-2.4l-0.8-2.4l0.8-9.6l-4-1.6l-4-2.4l0.8-4.8l2.4-2.4
	l-0.8-4l-4-4l-13.6-5.6l-0.8-1.6h1.6l-0.8-3.2l-11.2-2.4l-13.6-0.8l-2.4,0.8l-2.4-0.8l0.8-3.2l6.4-3.2L1208,689.6z"/>
<path class="st6" d="M1170.4,784.8h9.6l18.4,1.6h8l11.2,0.8l8,2.4l0.8,2.4l-3.2,1.6l-4,4.8l-4,0.8l0.8,4l-0.8,4l-2.4-0.8l-4,1.6
	l-3.2,3.2l-12,0.8l-11.2-0.8l-3.2-7.2l-8.8-14.4l-1.6-4L1170.4,784.8z"/>
<path class="st10" d="M772.8,636.8h14.4l1.6,28.8l1.6,32h-16.8l-1.6-0.8v-52L772.8,636.8z"/>
<path class="st47" d="M932,504l7.2,4.8l20,20l5.6,6.4l14.4,14.4l5.6,6.4l4,5.6l1.6,11.2l4,33.6v6.4l-3.2,2.4h-4.8l-5.6-2.4
	l-1.6,20.8l-1.6,2.4l-20-4l0.8-4l4.8-5.6h1.6l1.6-3.2l6.4-5.6l0.8-1.6l-4.8,1.6l-6.4,4.8l-8.8,8H952l1.6-4.8l1.6-9.6l-0.8-8l2.4,0.8
	v2.4l3.2,0.8l1.6,2.4v-4.8l-0.8-3.2l2.4-1.6h5.6l10.4,4l0.8-3.2l3.2,1.6l6.4,4.8l1.6,0.8l-0.8-11.2l-2.4-16.8v-7.2l-2.4-12.8l-7.2-8
	l-5.6-6.4l-7.2-7.2l-5.6-6.4l-8.8-8.8l-5.6-6.4l-8-7.2l-4.8-4l-2.4-1.6L932,504z"/>
<path class="st2" d="M852,763.2h0.8v6.4h26.4l112.3,4.1L969.6,815l-43.2,1.1h-73.6l-0.8,40h-8l-0.8-0.8v-40h-18.4l-18.4-0.8
	l1.6,15.2v7.2h-0.8l-1.6-9.6l-0.8-10.4l-0.8-2.4h1.6L804,804l-1.6-22.4v-12.8H852V763.2z"/>
<path class="st2" d="M768.8,804.8h0.8v8l-0.8,1.6l1.6,0.8l-0.8,17.6V856l-0.8,3.2v13.6l-0.8,0.8h-21.6v-0.8h12.8v-57.6l-51.2-0.8
	l-22.4-0.8l-0.8,1.6v-1.6h-93.6v-2.4h93.6l6.4,0.8l12.8-0.8l32.8,0.8h16.8l5.6-1.6h8.8v-4.8L768.8,804.8z"/>
<path class="st22" d="M517.6,855.2h40l33.6,0.8v9.6h-52.8l-20.8,0.8v2.4l59.2,0.8l14.4,0.8v1.6h-22.4l-52-0.8V856L517.6,855.2z"/>
<path class="st48" d="M830.4,649.6l8,0.8l4.8,2.4l3.2,4l-3.2-0.8l0.8,4l11.2,0.8l2.4,2.4l-0.8,3.2l-1.6,1.6l-9.6,0.8L844,668
	l0.8,6.4l-3.2,3.2l-3.2,1.6h-7.2l-6.4-3.2l-4.8-5.6v-1.6h-14.4l-3.2-2.4v-4.8l2.4-1.6H820l1.6-4l6.4-5.6L830.4,649.6z"/>
<path class="st49" d="M31.2,636h18.4l0.8,0.8l0.8,10.4L50.4,668l-1.6,0.8H28l-4-2.4l-0.8-11.2l2.4-16l1.6-2.4L31.2,636z"/>
<path class="st50" d="M21.6,619.2l4,1.6l8.8,6.4l9.6,4l12,8h-4v71.2l1.6,0.8H52l-0.8,20h-0.8v-56h-24l-3.2,0.8l-0.8-2.4h-1.6L20,672
	l-0.8-39.2l1.6-12.8L21.6,619.2z M31.2,636l-4.8,1.6l-1.6,8l-1.6,11.2l0.8,9.6l4,2.4h20.8l1.6-0.8l0.8-22.4l-0.8-8.8l-0.8-0.8H31.2z
	"/>
<path class="st51" d="M516.8,852l72,0.8l4,0.8l123.2,0.8l40.8,0.8l-3.2,1.6L592.8,856l-0.8,15.2l-15.2-0.8l-55.2-0.8l-4-0.8v-2.4
	l2.4-0.8l25.6-0.8l45.6,0.8V856h-74.4v-1.6h-9.6v-0.8h9.6L516.8,852L516.8,852z"/>
<path class="st25" d="M852.8,858.4h24.8l48.8,1.6l0.8,0.8v8l-0.8,1.6l-50.4-1.6l-23.2-0.8L852.8,858.4L852.8,858.4z"/>
<path class="st52" d="M732,648.8h6.4l4,1.6l-2.4,0.8h-9.6l-4,4l-2.4,4h24l-3.2-4.8l0.8-1.6l3.2,3.2l2.4,4l8,1.6v4.8l-8,1.6l-5.6,6.4
	l-4,3.2l-2.4,0.8H732l-6.4-3.2l-4.8-5.6V668h-13.6l-3.2-1.6l-0.8-4l3.2-3.2l14.4-0.8l3.2-4.8l5.6-4L732,648.8z"/>
<path class="st53" d="M424.8,840.8h0.8l0.8,22.4l55.2,0.8l28,0.8l6.4,1.6v-4.8h0.8v9.6h52v0.8h-68l-97.6-0.8v-0.8h21.6V840.8z"/>
<path class="st54" d="M942.4,593.6l11.2,1.6l15.2,4h2.4l1.6-0.8l7.2,2.4l-0.8,4l-4.8-0.8l-6.4-2.4h-4.8l-2.4,0.8l1.6,3.2v4.8H960
	l-0.8-2.4l-2.4-0.8v-2.4h-1.6l0.8,8l-1.6,9.6l-2.4,4l6.4-5.6l8.8-7.2l4.8-2.4l2.4,0.8l-4,4.8l-4.8,4l-5.6,6.4l-2.4,4.8l-7.2-0.8
	l-8-3.2l-2.4-16.8v-8l1.6-8L942.4,593.6z"/>
<path class="st55" d="M808,829.6h0.8l3.2,19.2l0.8,4l2.4,0.8l28.8,1.6l8,0.8v-8.8h0.8v8.8H892l24,0.8l8.8,0.8l1.6,0.8l0.8-1.6
	l0.8,3.2l-1.6,0.8l-73.6-2.4v9.6H876l46.4,1.6l4,0.8l0.8-1.6v5.6l-1.6,0.8l-2.4-0.8l-48-1.6H852l-0.8-0.8v-13.6l-6.4-0.8l-0.8,0.8
	l-0.8,7.2h-0.8l-0.8-6.4l-23.2-0.8L812,856l-4-8l-1.6-9.6v-5.6L808,829.6z"/>
<path class="st2" d="M1028,669.6h0.8l0.8,9.6v62.4l1.6,0.8l-10.4,6.4l-8.8,7.2l-12,11.2l-3.2,4l-4,4L984,792l-3.2,8.8l-4.8,12.8
	l3.2-0.8h14.4l3.2,0.8L996,816l-40-1.6v-0.8l15.2-1.6l4.8-9.6l8-16.8l2.4-0.8l1.6-4.8l2.4-6.4l-47.2-0.8H916l-37.6-1.6l0.8-1.6
	l48-0.8l51.2,0.8h16l14.4-14.4h1.6v-8h0.8l0.8,5.6l10.4-8l4-2.4h1.6V669.6z"/>
<path class="st56" d="M756.8,863.2l2.4,0.8v8.8H684V864L756.8,863.2z"/>
<path class="st57" d="M256.8,722.4h0.8v10.4l-19.2,2.4l-7.2,2.4l-16,6.4l-12,7.2l-9.6,7.2l-8.8,6.4l-3.2-0.8v-7.2l15.2-11.2l8-5.6
	l12.8-6.4l16.8-5.6l12-2.4h10.4V722.4z"/>
<path class="st58" d="M260,805.6h12l2.4,1.6l-16,0.8l-19.2,9.6l-7.2,7.2l-4.8,11.2l0.8,11.2v8.8l2.4,11.2l3.2,4.8l4,6.4l6.4,6.4
	l9.6,4.8h1.6l0.8-1.6h4.8l0.8,1.6l-3.2,0.8l0.8,1.6h15.2l2.4-1.6l11.2-3.2l5.6-4l1.6,0.8l-7.2,5.6l-9.6,4l-6.4,1.6h-16.8l-12-4.8
	l-8-6.4l-5.6-7.2l-4.8-9.6l-1.6-6.4l-0.8-11.2l1.6-11.2l3.2-8l-1.6,1.6l-3.2,11.2l-0.8,5.6v9.6l2.4,11.2l2.4,7.2l-2.4-2.4l-0.8-4
	h-1.6l-2.4-8l-0.8-5.6v-11.2l4.8-13.6l6.4-8.8l4-4l6.4-5.6l6.4-4l8.8-3.2L260,805.6z"/>
<path class="st59" d="M260.8,815.2h7.2v4l2.4-0.8l1.6-3.2h4.8l3.2,1.6l-0.8,5.6h1.6l1.6-3.2l4.8,0.8l4.8,4v1.6l3.2,1.6l3.2,4.8
	l-1.6,3.2l3.2-0.8l2.4,4.8l-0.8,4l-4.8,3.2v4l1.6-3.2l4.8-1.6l0.8,0.8v7.2h-5.6l-0.8,3.2H296l-4-16.8l-4.8-6.4l-6.4-5.6l-7.2-3.2
	h-16l-9.6,4.8l-2.4,2.4H244v-1.6h-1.6l-1.6-4.8l4-3.2h3.2v1.6h1.6l0.8-4.8l1.6-1.6l5.6-0.8l0.8,3.2h2.4V815.2z"/>
<path class="st60" d="M646.4,409.6h18.4l3.2,2.4l0.8,5.6l-2.4,8l-3.2,4l-1.6,0.8l-12.8,0.8L648,436h16l-0.8,7.2l-1.6,0.8h-16.8
	l-6.4-0.8l1.6-8.8l1.6-7.2l4.8-4l12.8-0.8l0.8-4.8h-16.8l2.4-7.2L646.4,409.6z"/>
<path class="st60" d="M617.6,409.6H636l3.2,3.2v7.2l-2.4,7.2l-4,3.2l-13.6,0.8v4.8h15.2l0.8,2.4l-1.6,4.8l-7.2,0.8h-16.8l1.6-12.8
	l1.6-4l4.8-4l11.2-0.8l1.6-4l-16-0.8l0.8-4.8L617.6,409.6z"/>
<path class="st61" d="M704.8,409.6h18.4l3.2,3.2l0.8,3.2l-2.4,9.6l-4,4l-1.6,0.8l-11.2,0.8l-1.6,4.8h16l-0.8,7.2l-6.4,0.8h-9.6
	l-8.8-0.8l0.8-6.4l2.4-9.6l4.8-4l12-0.8l0.8-4.8h-16l0.8-4.8L704.8,409.6z"/>
<path class="st62" d="M588.8,409.6H604l4.8,1.6l1.6,2.4l-0.8,8l-2.4,5.6l-4,3.2l-11.2,0.8l-2.4,4.8h16l0.8,3.2l-1.6,4l-1.6,0.8
	h-21.6l-0.8-0.8l0.8-8.8l2.4-7.2l4-4l12.8-0.8l0.8-4.8H588l-2.4-0.8l0.8-4.8L588.8,409.6z"/>
<path class="st34" d="M592,864l0.8,1.6h46.4l44.8,0.8v6.4h-84l-8.8-0.8L592,864z"/>
<path class="st63" d="M675.2,409.6h18.4l4,4l-0.8,8.8l-3.2,6.4l-3.2,1.6l-12.8,0.8v4.8h15.2v5.6l-0.8,1.6l-8,0.8h-12l-4-0.8l0.8-7.2
	l1.6-8l4.8-4.8l11.2-0.8l1.6-0.8l0.8-4h-16l0.8-4.8L675.2,409.6z"/>
<path class="st64" d="M922.4,588.8l3.2,0.8l0.8,0.8l-0.8,5.6l-4,8H920l-0.8,8l0.8,3.2l3.2,1.6l7.2,4.8l0.8-1.6v5.6l-0.8,1.6l-8-0.8
	l-24-4l-2.4-1.6l10.4-14.4l0.8-2.4h1.6l1.6-3.2l3.2-4.8l2.4-2.4l5.6-2.4L922.4,588.8z"/>
<path class="st65" d="M800,732.8h0.8l0.8,19.2v16h25.6v0.8h-68L684,768l0.8-5.6l33.6-0.8V760h8v1.6h1.6l0.8-1.6l1.6,0.8v-1.6l4,0.8
	l5.6,1.6h7.2l1.6-0.8v1.6h9.6l0.8-2.4l0.8,2.4v5.6h40l-0.8-12.8v-8.8L800,732.8z"/>
<path class="st66" d="M172,821.6l0.8,2.4l-4,14.4l-2.4,16l-0.8,8.8l2.4,0.8l-0.8,4l-10.4-0.8l-48.8-6.4l-8.8-3.2l1.6-4.8l14.4,0.8
	l33.6,4l11.2,1.6h3.2l4-24l4-12L172,821.6z"/>
<path class="st67" d="M613.6,768h145.6l43.2,0.8l2.4,35.2l0.8,10.4h-36.8v-44l-155.2-1.6V768z M772,772v38.4l2.4,2.4h28.8l-0.8-24.8
	l-0.8-0.8L800,772H772z"/>
<path class="st68" d="M564.8,409.6h4.8l1.6,0.8l-1.6,4l-8,12.8l8.8-0.8L572,416l2.4-5.6h6.4l-1.6,12.8l-3.2,20l-8.8,0.8l0.8-7.2
	l0.8-2.4h-14.4l-4-0.8l0.8-4.8l6.4-10.4l5.6-7.2L564.8,409.6z"/>
<path class="st18" d="M928,815.2h7.2l0.8,0.8v59.2l-2.4,1.6h-6.4l-0.8-2.4l0.8-16.8V816L928,815.2z"/>
<path class="st10" d="M684.8,856l41.6,0.8l19.2,0.8h12.8l0.8,0.8v5.6l-72.8,0.8l-1.6-0.8V856z"/>
<path class="st39" d="M1100,808.8l4,0.8l9.6,5.6l8,8l5.6,8.8l3.2,8l0.8,4v19.2l-2.4,0.8l-0.8,4l-4,8l-7.2,8.8l-8.8,7.2l-10.4,4
	l-8,0.8l0.8-1.6l10.4-3.2l8.8-5.6l1.6-4.8l6.4-8l4-8.8l1.6-6.4l0.8-7.2V836l-3.2-7.2l-4.8-6.4l-5.6-5.6l-8-5.6L1100,808.8z"/>
<path class="st69" d="M1077.6,814.4h6.4l1.6,4h1.6l0.8-2.4l-2.4-1.6h6.4l4,3.2v4.8l2.4-1.6l0.8-2.4l4,1.6l2.4,3.2l-0.8,3.2h-2.4
	l4,3.2v1.6l-3.2-0.8l-8-4.8l-2.4-0.8H1076l-7.2,3.2l-6.4,4.8l-6.4,8.8l-0.8-2.4l-0.8-0.8l-4.8-3.2l1.6-4l1.6-1.6l4.8,0.8l1.6,0.8
	l-2.4-4l0.8-3.2l3.2-2.4h4.8l1.6-4l1.6-0.8h4.8h2.4L1077.6,814.4z"/>
<path class="st70" d="M258.4,807.2h16l-2.4,1.6l12,4l8.8,5.6l6.4,5.6v1.6h1.6l4.8,8.8v4.8l-3.2-4L300,832v-1.6h-1.6l-5.6-7.2
	L288,820h-5.6l-1.6,2.4h-1.6l0.8-5.6l-8-1.6l-1.6,4H268v-4h-7.2v4.8l-3.2,0.8v-4l-6.4,2.4l-1.6,4.8H248v-1.6l-5.6,2.4l-1.6,0.8
	l-1.6-5.6l4-4l4.8-2.4l2.4-2.4L258.4,807.2z"/>
<path class="st71" d="M1042.4,837.6h0.8l-0.8,6.4v16.8l3.2,9.6v1.6h1.6l3.2,6.4l7.2,7.2l8,4.8l8.8,2.4h12l12-4l8.8-5.6l4-4l5.6-4.8
	l-1.6,3.2l-4,4.8l-1.6,4.8l-8.8,5.6l-10.4,3.2l7.2-0.8l10.4-4l10.4-8.8l5.6-8l4-8l1.6-2.4l-0.8,5.6l-4.8,9.6h-1.6l-0.8,3.2l-4.8,4
	h-1.6l-1.6,3.2l-6.4,4h-1.6v1.6l-8,3.2l-8,1.6h-10.4l-12.8-3.2l-8.8-4.8l-6.4-5.6l-4-4.8l0.8-1.6l7.2,7.2l9.6,5.6h1.6l-7.2-4
	l-7.2-5.6l-6.4-8.8l-4-9.6l-1.6-11.2l0.8-10.4L1042.4,837.6z"/>
<path class="st6" d="M1005.6,610.4h8l7.2,3.2l0.8,5.6V632l-4,3.2l-2.4,0.8H1004l-1.6-2.4v-14.4l1.6-7.2L1005.6,610.4z"/>
<path class="st72" d="M433.6,760.8H508v5.6h-74.4V760.8z"/>
<path class="st73" d="M248.8,812l1.6,0.8l-3.2,1.6l-5.6,4H240l2.4,12h1.6l0.8,2.4l-5.6,8.8l-0.8,2.4h-1.6l-1.6,7.2l-0.8,6.4
	l-0.8,1.6h-4l-2.4-3.2v-14.4l-0.8-5.6l4-8l1.6-4l7.2-7.2L248.8,812z"/>
<path class="st19" d="M917.6,508l3.2,0.8l2.4,16.8L924,540l-3.2-0.8l-8.8-9.6l-12.8-12.8l1.6-3.2L917.6,508z"/>
<path class="st6" d="M988.8,562.4h1.6l1.6,10.4l2.4,25.6l1.6,14.4l-0.8,2.4v6.4l0.8,11.2l-3.2,4.8h-5.6l-4.8-1.6l-0.8-11.2h-0.8
	l-0.8,5.6h-0.8V620l1.6-7.2l5.6,1.6h4.8l2.4-1.6v-6.4l-4-33.6L988.8,562.4z"/>
<path class="st10" d="M1020.8,661.6l5.6,0.8l1.6,4.8v44h-8v-48.8L1020.8,661.6z"/>
<path class="st74" d="M428.8,721.6h6.4l-1.6,0.8v43.2h-8.8v-43.2L428.8,721.6z"/>
<path class="st75" d="M99.2,758.4h73.6v5.6h-35.2l-38.4-0.8C99.2,763.2,99.2,758.4,99.2,758.4z"/>
<path class="st76" d="M366.4,857.6l1.6,3.2l1.6,2.4l53.6,0.8l1.6-0.8v7.2l-41.6,0.8l-1.6,0.8l-11.2-0.8l-4-9.6V857.6z"/>
<path class="st25" d="M600.8,760.8l1.6,1.6h8l10.4-0.8h5.6l4-0.8l7.2,0.8l37.6,0.8v4.8H600L600.8,760.8z"/>
<path class="st6" d="M1050.4,639.2l4,1.6l4.8,2.4v1.6h1.6l5.6,6.4l8,5.6v1.6l-12-0.8l-23.2-4.8l-8.8-1.6v-2.4l4.8-1.6l5.6,0.8
	l0.8-2.4l4.8-2.4L1050.4,639.2z"/>
<path class="st9" d="M1104,749.6l7.2,1.6l16,5.6l12,6.4l13.6,9.6v1.6l-7.2,1.6l-4-1.6l-11.2-7.2l-12-5.6l-13.6-4l-0.8-0.8V749.6z"/>
<path class="st77" d="M843.2,815.2h8.8V856h-8l-0.8-0.8V815.2z"/>
<path class="st78" d="M299.2,857.6l5.6,0.8l-0.8,3.2l-1.6,4l-2.4,0.8l0.8,4.8l-5.6,4.8h-2.4v4l-4,3.2l-4.8-0.8v2.4l-6.4,3.2h-2.4
	l-2.4-2.4v1.6l-1.6,0.8h-5.6l-0.8-3.2l7.2-2.4v-1.6l6.4-1.6l5.6-4l6.4-8.8l0.8-1.6l4.8-1.6l1.6-4.8L299.2,857.6z"/>
<path class="st34" d="M430.4,812h0.8l0.8,39.2l56.8,0.8l28,0.8L516,856h-57.6l-28.8-0.8v-42.4L430.4,812z"/>
<path class="st79" d="M1119.2,856h1.6v8l-4,9.6l-5.6,6.4l-2.4,1.6h-2.4v1.6l-3.2-0.8l-1.6-2.4h-1.6l-0.8,4.8l-8,0.8l-1.6,1.6h-5.6
	l-1.6-2.4v-2.4l14.4-2.4l0.8-3.2l8.8-6.4l2.4-4l2.4-2.4l2.4-4.8h1.6v-2.4L1119.2,856z"/>
<path class="st80" d="M760,814.4h8l0.8,0.8l-0.8,40h-8V814.4z"/>
<path class="st81" d="M1045.6,851.2h6.4l3.2,6.4v2.4h1.6l6.4,12.8l2.4,2.4l4,1.6l3.2,3.2l5.6,4v3.2l-6.4-0.8l-0.8-4l-3.2,2.4
	l-4.8-0.8l-2.4-2.4l3.2-6.4l-4.8,3.2l-4.8-0.8l-1.6-3.2v-4.8l-3.2-0.8l-2.4-4.8l1.6-3.2l3.2-0.8v-1.6l-5.6-0.8l-0.8-1.6
	L1045.6,851.2L1045.6,851.2z"/>
<path class="st6" d="M1254.4,772.8l4.8,0.8l1.6,3.2l6.4,6.4v7.2l-4.8,31.2v7.2l-4,13.6l-6.4,7.2v-2.4l2.4-4.8l7.2-28.8l2.4-16.8V792
	l-2.4-4.8l-9.6-4l-3.2-7.2l-4.8-0.8l-21.6-0.8v-0.8L1254.4,772.8z"/>
<path class="st82" d="M844.8,856.8l6.4,0.8l0.8,0.8V872h25.6l45.6,1.6l3.2,1.6v0.8l-52.8-0.8l-31.2-0.8l0.8-1.6v-14.4L844.8,856.8z"
	/>
<path class="st83" d="M538.4,864.8l52.8,0.8v4.8h-14.4l-55.2-0.8l-4-0.8v-2.4l2.4-0.8L538.4,864.8z"/>
<path class="st76" d="M852.8,868H876l46.4,1.6l4,0.8l0.8-1.6v5.6l-1.6,0.8l-2.4-0.8l-48-1.6H852v-4L852.8,868z"/>
<path class="st44" d="M544,762.4h48v4l-0.8,0.8h-61.6l-12-0.8v-1.6h3.2v-1.6L544,762.4z"/>
<path class="st84" d="M935.2,815.2h35.2l24.8,0.8l-0.8,3.2v-2.4l-20.8,0.8l-5.6,24.8l-2.4,16l-1.6,3.2l-1.6,0.8l-21.6-0.8l-4.8-0.8
	v-4h24l2.4-2.4l2.4-14.4l5.6-21.6l0.8-1.6H936L935.2,815.2z"/>
<path class="st85" d="M926.4,720h0.8v48.8l-0.8,0.8h-73.6v-2.4l24.8-0.8l12.8-0.8l36-0.8V720z"/>
<path class="st86" d="M752.8,665.6h2.4v1.6l-4,0.8l-5.6,6.4l-4,3.2l-2.4,0.8H732l-6.4-3.2l-4.8-5.6V668h-13.6l-0.8-1.6h23.2
	L752.8,665.6z"/>
<path class="st87" d="M1208,689.6h6.4l4,0.8l12,12l0.8,4l-4-0.8l-4.8-4l-9.6-2.4l-16.8-1.6l-4.8,0.8l-2.4-0.8l0.8-3.2l6.4-3.2
	L1208,689.6z"/>
<path class="st88" d="M1064.8,816.8l1.6,0.8v4l-2.4,0.8l-4,0.8l-2.4,1.6l1.6,6.4l-6.4-0.8l-2.4,3.2l0.8,2.4l3.2,1.6l1.6-0.8l-0.8,16
	l0.8,7.2l-1.6-2.4l-2.4-5.6l-5.6-0.8v-0.8h5.6V848l-4.8-0.8l-1.6-4.8l-1.6,6.4v10.4l3.2,10.4l1.6,3.2l-1.6,0.8V872h-1.6l-3.2-8
	l-0.8-3.2V844l1.6-2.4l1.6-0.8l3.2-8.8l6.4-8.8l8.8-5.6L1064.8,816.8z"/>
<path class="st89" d="M1106.4,819.2l3.2,2.4l1.6,3.2l2.4,2.4l1.6,4.8l0.8,1.6l2.4,0.8v1.6h1.6l2.4,7.2v9.6l-2.4,0.8h-3.2V852h-2.4
	l-3.2-12l-3.2-3.2v-2.4l-3.2-1.6l-0.8-1.6h2.4l-4-4l-0.8-1.6l3.2,0.8v-1.6h1.6l-1.6-4L1106.4,819.2z"/>
<path class="st17" d="M262.4,844h6.4l4,2.4l2.4,3.2v6.4l-4,4.8l-4,1.6l-5.6-0.8l-4-3.2l-1.6-4l0.8-5.6l2.4-2.4h1.6v-1.6L262.4,844z"
	/>
<path class="st36" d="M1150.4,778.4l6.4,0.8l3.2,0.8l5.6,6.4l4.8,8l6.4,14.4l-0.8,3.2h-4l-8-14.4l-4-4l-7.2-8.8l-4-4v-1.6
	L1150.4,778.4z"/>
<path class="st90" d="M1056,814.4l3.2,1.6l-3.2,4l-6.4,5.6l-3.2,6.4l-2.4,5.6h-1.6l-1.6,10.4l0.8,13.6l3.2,9.6l4.8,8l4.8,5.6
	l8.8,5.6l6.4,3.2l-2.4,0.8l-9.6-4.8l-8-7.2l-5.6-4.8l-4-8l-2.4-7.2l-0.8-4.8V848l2.4-10.4l5.6-11.2l7.2-8L1056,814.4z"/>
<path class="st34" d="M838.4,461.6h8l20.8,2.4l20,3.2l27.2,5.6l11.2,4l8.8,6.4l3.2,3.2l1.6,2.4l-0.8,2.4l-9.6-8l-11.2-5.6l-10.4-3.2
	l-18.4-4l-32-4.8l-19.2-1.6L838.4,461.6z"/>
<path class="st91" d="M424,756.8h0.8v8.8h-74.4l-0.8-1.6l30.4-1.6l0.8-0.8l10.4-0.8h32L424,756.8z"/>
<path class="st92" d="M21.6,755.2h1.6v1.6L52,756l-0.8-8v-29.6l2.4,2.4l-0.8,36.8l-3.2,3.2l-8,0.8H20l-0.8,3.2L16,764l2.4-1.6
	l0.8-2.4v-8l-1.6-2.4v-8h1.6l0.8-3.2h1.6"/>
<path class="st10" d="M772,698.4h17.6l6.4,11.2v0.8h-24l-0.8-4.8L772,698.4z"/>
<path class="st20" d="M613.6,768h145.6l43.2,0.8l1.6,24V804h-0.8l-3.2-34.4h-28.8l-0.8,2.4l-1.6-1.6l-155.2-1.6V768z"/>
<path class="st93" d="M236.8,844l0.8,3.2v9.6l3.2,9.6l7.2,8l3.2,3.2l-4-1.6l-6.4-6.4l-5.6-8l-4,1.6l0.8,4.8l3.2,0.8l3.2-1.6l1.6,2.4
	l-2.4,4l1.6,4.8h1.6l2.4-2.4l2.4,0.8l-0.8,7.2l3.2-1.6l6.4,0.8v1.6l4,0.8v1.6l2.4,0.8H256l-0.8,2.4L248,888l-6.4-4.8l-6.4-6.4
	l-2.4-4.8l-3.2-4.8L228,860l0.8-3.2l0.8,2.4l4.8-1.6v-6.4L236.8,844z"/>
<path class="st94" d="M71.2,806.4l26.4,0.8l0.8,0.8v50.4l-11.2-0.8L72,855.2l3.2-0.8L72,848l-1.6-40L71.2,806.4z M72,807.2l-0.8,3.2
	l1.6,34.4l1.6,4.8l12.8,2.4l9.6,0.8l0.8-1.6v-42.4l-0.8-0.8L72,807.2z"/>
<path class="st95" d="M21.6,619.2l4,1.6l8.8,6.4l9.6,4l12,8l-3.2-0.8l-7.2-4.8l-22.4,1.6L20,636l-0.8-3.2l1.6-12.8L21.6,619.2z"/>
<path class="st96" d="M771.2,711.2h25.6l0.8,2.4v6.4h-26.4L771.2,711.2L771.2,711.2z"/>
<path class="st2" d="M488.8,809.6h26.4v1.6l2.4-0.8l67.2,0.8l5.6,0.8v0.8h-83.2l-76.8-0.8v-0.8l55.2-0.8L488.8,809.6z"/>
<path class="st41" d="M676.8,868h7.2v4.8h-84l-8.8-0.8l1.6-0.8l0.8-1.6l5.6,0.8h46.4l18.4-0.8L676.8,868z"/>
<path class="st6" d="M1008.8,575.2h5.6l0.8,1.6v10.4l-1.6,14.4l-1.6,1.6l-5.6-0.8l-0.8-1.6l0.8-20L1008.8,575.2z"/>
<path class="st97" d="M932,504l7.2,4.8l20,20l5.6,6.4l14.4,14.4l5.6,6.4l4,5.6l1.6,11.2l3.2,28v5.6l-0.8,4l-1.6-0.8v-6.4l-3.2-22.4
	v-7.2l-2.4-12.8l-7.2-8l-5.6-6.4l-7.2-7.2l-5.6-6.4l-8.8-8.8l-5.6-6.4l-8-7.2l-4.8-4l-2.4-1.6L932,504z"/>
<path class="st98" d="M260,805.6h12l2.4,1.6l-16,0.8l-19.2,9.6L228,828.8l-2.4,3.2l-3.2,11.2l-0.8,5.6v9.6l2.4,11.2l2.4,7.2
	l-2.4-2.4l-0.8-4h-1.6l-2.4-8l-0.8-5.6v-11.2l4.8-13.6l6.4-8.8l4-4l6.4-5.6l6.4-4l8.8-3.2L260,805.6z"/>
<path class="st18" d="M513.6,867.2h2.4v4h-80.8l-9.6-0.8v-0.8l11.2-0.8L464,868l5.6,0.8h44V867.2z"/>
<path class="st99" d="M1236.8,706.4l3.2,1.6l4.8,7.2l4,8.8l6.4,22.4l1.6,7.2v6.4l-7.2-1.6v-1.6l-3.2-1.6l-3.2-0.8l1.6-4l7.2,1.6
	l-0.8-6.4l-3.2-11.2l-0.8-5.6l-6.4-14.4L1236.8,706.4z"/>
<path class="st100" d="M984,849.6h0.8l-0.8,8l-2.4,14.4l-1.6,2.4h-1.6l-0.8,3.2l-0.8-1.6h-7.2l-6.4-1.6l-25.6-0.8l-1.6,0.8v-4.8
	l35.2,0.8l7.2,0.8l2.4-7.2L984,849.6z"/>
<path class="st34" d="M927.2,824.8h0.8v32h6.4l1.6,0.8v17.6l-2.4,1.6h-6.4l-0.8-2.4l0.8-16.8L927.2,824.8L927.2,824.8z"/>
<path class="st101" d="M1007.2,612.8h6.4l4.8,4l0.8,6.4l-7.2,7.2h-4.8l-2.4-4l0.8-10.4L1007.2,612.8z"/>
<path class="st2" d="M98.4,804.8l36,0.8l39.2,1.6v2.4l-1.6,0.8L99.2,808l-1.6-2.4L98.4,804.8z"/>
<path class="st10" d="M684.8,636h38.4l-3.2,2.4l-4.8,2.4l-6.4,0.8h-21.6l-2.4-0.8V636z"/>
<path class="st102" d="M730.4,650.4h9.6l4.8,1.6l4,8h-10.4l-14.4-0.8l0.8-3.2l4-4.8L730.4,650.4z"/>
<path class="st103" d="M970.4,880h8l3.2,4l7.2,5.6l5.6,1.6h9.6l4,1.6l2.4,4l-1.6,1.6l-7.2-0.8l-16.8-6.4l-7.2-4l-5.6-4L970.4,880z"
	/>
<path class="st83" d="M808,829.6h0.8l3.2,19.2l0.8,4l2.4,0.8l19.2,0.8l8.8,0.8l-0.8,4l-24-0.8L812,856l-4-8l-1.6-9.6v-5.6L808,829.6
	z"/>
<path class="st104" d="M508,765.6h9.6l12,0.8l30.4,0.8v0.8l-48.8,0.8h-36.8L448,768v-0.8l20.8-0.8L508,765.6z"/>
<path class="st42" d="M1224,730.4h11.2l4,2.4l0.8,4.8l-3.2,6.4l-3.2,0.8l-7.2-6.4l-3.2-5.6L1224,730.4z"/>
<path class="st105" d="M1056,869.6l3.2,1.6l4,1.6l2.4,2.4l4,1.6l3.2,3.2l5.6,4v3.2l-6.4-0.8l-0.8-4l-3.2,2.4l-4.8-0.8l-2.4-2.4
	l3.2-6.4l-4.8,3.2l-4.8-0.8l-1.6-4.8L1056,869.6z"/>
<path class="st106" d="M829.6,651.2h7.2l9.6,4.8l-1.6,0.8l-1.6-0.8v4.8h-13.6L824,660v-3.2l4-4.8L829.6,651.2z"/>
<path class="st107" d="M979.2,609.6l3.2,0.8l-2.4,3.2l-1.6,11.2l-1.6,1.6l-2.4,1.6l0.8,4l-0.8,2.4H968V632h-1.6v-5.6l4.8-8l3.2-3.2
	l4-2.4L979.2,609.6z"/>
<path class="st3" d="M984.8,784.8l0.8,1.6l-3.2,7.2l0.8,1.6l-6.4,15.2l-0.8,3.2l3.2-0.8h14.4l3.2,0.8L996,816l-40-1.6v-0.8l15.2-1.6
	l4.8-9.6l8-16.8L984.8,784.8z"/>
<path class="st108" d="M432,721.6l-2.4,0.8l-0.8-0.8H432z"/>
<path class="st109" d="M1028,669.6h0.8l0.8,9.6v62.4l1.6,0.8l-10.4,6.4l-8.8,7.2l-1.6-1.6v-7.2h0.8l0.8,5.6l10.4-8l4-2.4h1.6
	L1028,669.6L1028,669.6z"/>
<path class="st34" d="M761.6,856l6.4,0.8l0.8,16l-0.8,0.8h-21.6v-0.8H760v-16L761.6,856z"/>
<path class="st110" d="M1128.8,864h0.8l-0.8,5.6l-4.8,9.6l-2.4,3.2l-4.8,4h-1.6l-1.6,3.2l-6.4,4l-1.6,1.6l-8,3.2l-8,1.6h-10.4
	l-12.8-3.2l-8.8-4.8l-6.4-5.6l-4-4.8l0.8-1.6l7.2,7.2l4.8,3.2l2.4,2.4l10.4,4l3.2,0.8h16.8l1.6-1.6l12-4l6.4-4.8l5.6-4.8l5.6-8l4-8
	L1128.8,864z"/>
<path class="st111" d="M260,810.4h12.8l8,1.6l5.6,2.4l8.8,5.6l4,4v1.6h1.6l4.8,8.8v4.8l-3.2-4L300,832v-1.6h-1.6l-5.6-7.2L288,820
	l-3.2-1.6v-1.6l-4.8-1.6l-5.6-1.6l-4.8-1.6l-9.6-0.8V810.4z"/>
<path class="st112" d="M800,720h41.6v16.8h-0.8l-0.8-8l-2.4-4l-5.6-1.6h-32V720z"/>
<path class="st113" d="M844.8,856.8l6.4,0.8l0.8,0.8V872l0.8,2.4h-10.4l0.8-1.6v-14.4L844.8,856.8z"/>
<path class="st114" d="M752.8,665.6h2.4v1.6l-4,0.8l-1.6,2.4l-4,0.8v-2.4h-15.2l-3.2,1.6v1.6l4,2.4l5.6,2.4l-2.4,1.6l-4.8-0.8
	l-4.8-3.2l-4-4.8V668h-13.6l-0.8-1.6h23.2L752.8,665.6z"/>
<path class="st115" d="M908.8,605.6l4,0.8l1.6,4l0.8,4l-4,4l-1.6,4.8l-11.2-0.8l0.8-4l4-1.6h1.6l2.4-7.2l0.8-3.2L908.8,605.6z"/>
<path class="st116" d="M1119.2,856h1.6v8l-4,9.6l-5.6,6.4l-3.2-4v-3.2l5.6,1.6l1.6-2.4v-5.6l-5.6,2.4l-4.8,5.6l-4.8,3.2l-2.4-0.8
	l8.8-6.4l2.4-4l2.4-2.4l2.4-4.8h1.6v-2.4L1119.2,856z"/>
<path class="st117" d="M296,833.6l0.8,1.6l3.2-0.8l2.4,4.8l-0.8,4l-4.8,3.2v4l1.6-3.2l4.8-1.6l0.8,0.8v7.2h-5.6l-0.8,3.2H296
	l-2.4-12.8h0.8l-0.8-5.6l-0.8-3.2L296,833.6z"/>
<path class="st16" d="M974.4,609.6h4.8l0.8,1.6l-4,4l-4,2.4l-1.6,3.2l-3.2,5.6v4l2.4,3.2l-8-0.8l-4-0.8l0.8-4l4.8-5.6h1.6l1.6-3.2
	l6.4-5.6l0.8-1.6l-1.6-1.6L974.4,609.6z"/>
<path class="st118" d="M234.4,860.8l3.2,3.2l6.4,8l5.6,4.8l2.4,4l-4,1.6l-3.2,1.6v-7.2h-3.2l-0.8,2.4l-2.4-0.8l-1.6-4.8l2.4-4.8H236
	l-3.2,0.8l-2.4-4l0.8-3.2L234.4,860.8z"/>
<path class="st119" d="M372.8,867.2H424l0.8,3.2l-42.4,0.8l-10.4-0.8l-0.8-2.4L372.8,867.2z"/>
<path class="st120" d="M283.2,874.4l1.6,0.8l-4,3.2l-4,2.4H272v1.6l-2.4,1.6l-4,0.8v3.2h4.8v0.8h-5.6l-1.6-2.4l-4.8,0.8v-1.6l-4-0.8
	v-1.6l-7.2-0.8l3.2-1.6v-1.6l-0.8-1.6l5.6,0.8l5.6,1.6h10.4l8.8-3.2L283.2,874.4z"/>
<path class="st121" d="M972,611.2l2.4,0.8l-4,4.8l-4.8,4l-5.6,6.4l-2.4,4.8l-7.2-0.8l-0.8-1.6h1.6l1.6-3.2l6.4-6.4l8-6.4L972,611.2z
	"/>
<path class="st20" d="M1010.4,754.4l0.8,2.4l-10.4,9.6l-4,4.8l-4,4l-9.6,18.4l-1.6,0.8l1.6-4.8l9.6-18.4h-63.2v-0.8l64.8-0.8
	l14.4-14.4L1010.4,754.4z"/>
<path class="st122" d="M1008.8,563.2l12,0.8l4,4l0.8,20l2.4,7.2l-4-4l-1.6-3.2l-0.8-19.2l-0.8-0.8l-11.2-0.8l-1.6,4l-4-0.8l-1.6-3.2
	l2.4,1.6h2.4L1008.8,563.2z"/>
<path class="st123" d="M230.4,882.4l5.6,4.8l8,5.6l8,3.2l6.4,1.6h14.4l9.6-2.4l11.2-5.6l8-7.2v2.4l-8,7.2l-12.8,6.4l-6.4,1.6h-16.8
	l-10.4-3.2l-9.6-5.6l-7.2-7.2L230.4,882.4L230.4,882.4z"/>
<path class="st124" d="M1264.8,796.8h0.8l-0.8,10.4l-2.4,14.4v7.2l-4,13.6l-6.4,7.2v-2.4l2.4-4.8l7.2-28.8l2.4-16L1264.8,796.8z"/>
<path class="st125" d="M716,854.4h44l-0.8,4H740l-16-0.8l-28.8-0.8V856h59.2l-38.4-0.8V854.4z"/>
<path class="st126" d="M721.6,660.8h21.6l8.8,0.8l-0.8,4l-21.6,0.8v-0.8h-8.8L721.6,660.8z"/>
<path class="st127" d="M1009.6,757.6l1.6,2.4v8.8l-0.8,3.2h-8l-5.6-0.8l1.6-3.2l8.8-8.8L1009.6,757.6z"/>
<path class="st128" d="M1108,835.2l2.4,0.8l4.8-0.8l-0.8,1.6h-1.6l1.6,6.4l4-2.4l0.8-4.8l1.6,2.4l1.6,4.8v9.6l-2.4,0.8h-3.2V852
	h-2.4l-3.2-12l-3.2-3.2L1108,835.2L1108,835.2z"/>
<path class="st129" d="M524.8,868.8l52,0.8l14.4,0.8v1.6h-22.4l-45.6-0.8l-0.8-1.6L524.8,868.8z"/>
<path class="st130" d="M1060.8,868.8l5.6,4.8l9.6,4.8l3.2,0.8h10.4l8-1.6l-0.8,2.4l-8,2.4h-6.4l1.6,5.6h-8l2.4-0.8l-0.8-3.2l-8-5.6
	v-1.6l-4.8-1.6l-4-4.8L1060.8,868.8L1060.8,868.8z"/>
<path class="st34" d="M800,574.4l1.6,1.6l4.8,18.4l5.6,11.2l1.6,6.4l-0.8,2.4h-1.6l-6.4-12.8l-4-17.6l-0.8-4L800,574.4L800,574.4z"
	/>
<path class="st34" d="M769.6,384.8h1.6l0.8,25.6v14.4l-0.8,23.2l-1.6-3.2V384.8z"/>
<path class="st131" d="M488.8,809.6h26.4v1.6h1.6v1.6l-86.4-0.8v-0.8l55.2-0.8L488.8,809.6z"/>
<path class="st132" d="M16,778.4h1.6l0.8,2.4l0.8,28.8l0.8,11.2l-2.4,2.4l0.8,8.8l1.6,8.8l8,3.2l5.6,1.6l1.6,3.2l-3.2-1.6l-7.2-2.4
	l-4.8-2.4l-2.4-2.4l-2.4-13.6v-4.8l1.6-1.6v-38.4L16,778.4z"/>
<path class="st58" d="M769.6,720h1.6l0.8,1.6v45.6h-1.6l-0.8-13.6V720z"/>
<path class="st34" d="M1192.8,696.8l14.4,0.8l11.2,2.4l0.8,4l-4.8,0.8l-17.6-4.8l-4-2.4V696.8z"/>
<path class="st133" d="M1256,773.6l3.2,0.8l4.8,5.6l3.2,3.2v7.2l-0.8,5.6h-0.8v-9.6l-4.8-1.6l-4.8-3.2l-2.4-2.4l0.8-4L1256,773.6z"
	/>
<path class="st2" d="M995.2,771.2h7.2l20.8,2.4l4,1.6l-4,4l-8-1.6l-1.6-1.6l-11.2-2.4h-7.2l-3.2,4.8l-0.8-1.6l3.2-4.8L995.2,771.2z"
	/>
<path class="st134" d="M932,504l7.2,4.8l20,20l5.6,6.4l14.4,14.4v1.6l-3.2-1.6l-10.4-10.4l-5.6-6.4l-8.8-8.8l-5.6-6.4l-8-7.2l-4.8-4
	l-2.4-1.6L932,504z"/>
<path class="st135" d="M236.8,844l0.8,3.2v9.6l3.2,9.6l7.2,8l3.2,3.2l-4-1.6l-6.4-6.4l-5.6-8l-4,1.6v4.8l-1.6-0.8L228,860l0.8-3.2
	l0.8,2.4l4.8-1.6v-6.4L236.8,844z"/>
<path class="st136" d="M225.6,828.8l0.8,1.6l-4,12.8l-0.8,5.6v9.6l2.4,11.2l2.4,7.2l-2.4-2.4l-0.8-4h-1.6l-2.4-8l-0.8-5.6v-11.2
	l4.8-13.6L225.6,828.8z"/>
<path class="st83" d="M770.4,814.4H804v0.8l-32,0.8l-0.8,35.2l-0.8,5.6l-1.6,0.8V828l0.8-12.8L770.4,814.4z"/>
<path class="st137" d="M744.8,652.8l2.4,0.8l4,6.4l8,1.6v4.8H736v-0.8h15.2V664l-16.8-0.8v-0.8l8.8-0.8l-4.8-0.8V660l9.6-0.8
	l-3.2-4.8V652.8z"/>
<path class="st138" d="M800,732.8h0.8l0.8,19.2v16h25.6v0.8h-56V768H800l-0.8-12.8v-8.8L800,732.8z"/>
<path class="st139" d="M591.2,811.2l78.4,0.8v1.6h-78.4V811.2z"/>
<path class="st140" d="M1082.4,840.8l5.6,0.8l4.8,3.2l1.6,3.2l-4-1.6l-2.4-1.6v-1.6l-7.2,1.6l-4.8,4v5.6l4,4.8l7.2,3.2v0.8h-6.4
	l-4.8-3.2l-2.4-4.8v-6.4l5.6-6.4L1082.4,840.8z"/>
<path class="st141" d="M771.2,720h27.2v6.4l-0.8-3.2H772L771.2,720z"/>
<path class="st142" d="M247.2,813.6l0.8,1.6h6.4l-0.8,2.4l-2.4,1.6l-1.6,4.8H248v-1.6l-5.6,2.4l-1.6,0.8l-1.6-5.6l4-4L247.2,813.6z"
	/>
<path class="st143" d="M1078.4,827.2h12.8l8,4l1.6,2.4l-3.2,0.8l-4,6.4l-2.4-0.8l0.8-4l3.2-5.6l-4-0.8h-14.4l-9.6,4.8l-1.6,3.2
	l-1.6,0.8l1.6-3.2l4-4l5.6-3.2L1078.4,827.2z"/>
<path class="st144" d="M971.2,764.8h8l2.4,1.6l-1.6,0.8v1.6l-1.6,0.8h-15.2l-0.8-2.4h-5.6l-2.4-1.6L971.2,764.8z"/>
<path class="st145" d="M800,480.8l2.4,0.8l-0.8,4.8h1.6V504l-1.6,8.8h-0.8l-1.6-15.2v-16L800,480.8z"/>
<path class="st146" d="M374.4,872h4.8l-4.8,6.4l-1.6,3.2l-8,5.6L360,888l2.4-4l2.4-2.4h1.6l1.6-3.2l4.8-5.6L374.4,872z"/>
<path class="st147" d="M291.2,826.4l4,0.8l3.2,4.8l-4.8,4l1.6,4v4.8l-2.4-2.4l-4-7.2l-3.2-4l3.2-0.8l2.4,2.4l-0.8-2.4L291.2,826.4z"
	/>
<path class="st17" d="M1039.2,848h0.8l2.4,16.8l4,9.6l6.4,8.8l8.8,6.4l8,4l-2.4,0.8l-9.6-4.8l-8-7.2l-3.2-2.4l-4.8-9.6l-2.4-10.4
	L1039.2,848L1039.2,848z"/>
<path class="st148" d="M260.8,827.2h9.6l4.8,1.6l-3.2,0.8h-12.8l-4,1.6l4,6.4l-0.8,3.2L256,840l-4-7.2l-7.2,8l-0.8-1.6l4.8-6.4
	l4.8-3.2L260.8,827.2z"/>
<path class="st2" d="M933.6,500l4,1.6l4,4v1.6l3.2,1.6v1.6l3.2,1.6l11.2,11.2l2.4,3.2v1.6l-3.2-1.6l-4-4v-1.6l-3.2-1.6l-3.2-4
	l-1.6-0.8v-1.6L944,512v-1.6l-3.2-1.6l-6.4-6.4L933.6,500z"/>
<path class="st149" d="M974.4,669.6h6.4l-0.8,8.8l-1.6,2.4h-5.6v-6.4L974.4,669.6z"/>
<path class="st113" d="M957.6,669.6h6.4v5.6l-2.4,5.6H956l0.8-9.6L957.6,669.6z"/>
<path class="st146" d="M970.4,880h8l3.2,4l7.2,5.6l0.8,1.6l-4-0.8l-7.2-2.4l-6.4-4.8L970.4,880z"/>
<path class="st14" d="M1045.6,841.6h0.8l0.8,4.8l4.8,1.6v2.4l-5.6,0.8v6.4l5.6,0.8v1.6l-6.4,3.2l-1.6-4.8v-13.6L1045.6,841.6z"/>
<path class="st150" d="M768,820h0.8l0.8,12.8V856l-1.6,3.2v-2.4h-8v16h-0.8V856l0.8-0.8h8V820z"/>
<path class="st114" d="M732,648.8h6.4l4,1.6l-2.4,0.8h-9.6l-4,4l-2.4,4h12v0.8l-16.8,0.8h-13.6l0.8-1.6l14.4-0.8l3.2-4.8l5.6-4
	L732,648.8z"/>
<path class="st151" d="M21.6,619.2l4,1.6l8,5.6v1.6H20l0.8-8L21.6,619.2z"/>
<path class="st152" d="M1047.2,880l5.6,4.8l7.2,5.6l2.4,2.4l10.4,4l3.2,0.8l18.4,0.8v0.8l-4.8,0.8h-10.4l-12.8-3.2l-8.8-4.8
	l-6.4-5.6l-4-4.8L1047.2,880L1047.2,880z"/>
<path class="st41" d="M929.6,860l5.6,0.8v10.4h-4.8l-2.4-2.4v-8L929.6,860z"/>
<path class="st48" d="M181.6,764l21.6,3.2l12.8,2.4v1.6l-2.4,0.8l-17.6-3.2l-16-2.4L181.6,764z"/>
<path class="st153" d="M843.2,858.4h0.8l0.8,7.2l2.4,2.4h3.2l0.8-9.6h0.8V872l0.8,2.4h-10.4l0.8-1.6L843.2,858.4L843.2,858.4z"/>
<path class="st154" d="M116,859.2l16.8,2.4l16,2.4l-0.8,1.6l-16-1.6l-24-3.2V860h7.2L116,859.2z"/>
<path class="st155" d="M1038.4,840h0.8l0.8,20l3.2,12l3.2,5.6l-0.8,1.6l-4.8-7.2l-3.2-9.6l-0.8-4.8V848L1038.4,840z"/>
<path class="st19" d="M1096,811.2l4,0.8l7.2,4l4,3.2l8,14.4l-0.8,2.4v-1.6l-3.2-0.8l-2.4-6.4v-1.6l-3.2-1.6l-2.4-4l-6.4-5.6
	l-4.8-2.4L1096,811.2L1096,811.2z"/>
<path class="st42" d="M525.6,611.2h5.6l0.8,1.6l-0.8,4l0.8,3.2l-3.2,1.6V620l-4,0.8l-1.6-4l1.6-4.8L525.6,611.2z"/>
<path class="st156" d="M1109.6,837.6l2.4,2.4l2.4,8.8v3.2h2.4v1.6l5.6-0.8l-0.8,8.8h-0.8V856l-5.6,0.8v2.4l-1.6,0.8l-3.2,6.4
	l-0.8-1.6l2.4-5.6l0.8-9.6l-3.2-10.4L1109.6,837.6L1109.6,837.6z"/>
<path class="st157" d="M328,768h13.6v0.8l-8.8,0.8l-5.6,2.4l-6.4,1.6h-6.4l-0.8-2.4l2.4-1.6L328,768z"/>
<path class="st1" d="M761.6,856h4v1.6h1.6v8l-2.4,1.6h-3.2l-0.8-1.6v-8L761.6,856z"/>
<path class="st158" d="M991.2,830.4l0.8,3.2l-5.6,16.8l-3.2,17.6h-0.8v-6.4l1.6-8l1.6-10.4l4-12L991.2,830.4z"/>
<path class="st159" d="M258.4,807.2h16l-2.4,1.6l4.8,1.6v0.8h-19.2l-7.2,0.8l3.2-2.4L258.4,807.2z"/>
<path class="st160" d="M262.4,841.6h5.6l5.6,3.2l2.4,3.2l-0.8,3.2l-3.2-4.8l-3.2-1.6h-8v1.6l-3.2,2.4l-0.8,5.6l0.8,4l-2.4-2.4v-8
	l3.2-4L262.4,841.6z"/>
<path class="st161" d="M301.6,882.4v2.4l-8,7.2l-12.8,6.4l-2.4,0.8h-20v-0.8l14.4-0.8l9.6-2.4l11.2-5.6L301.6,882.4z"/>
<path class="st162" d="M980,612.8l0.8,1.6L980,620l-0.8,13.6l-1.6,2.4l-4.8-0.8l1.6-0.8l-0.8-8h1.6l1.6-1.6h0.8l1.6-11.2L980,612.8z
	"/>
<path class="st163" d="M1042.4,841.6h2.4l-0.8,7.2v10.4l3.2,10.4l1.6,3.2l-1.6,0.8V872h-1.6l-3.2-8l-0.8-3.2V844L1042.4,841.6z"/>
<path class="st164" d="M910.4,600.8v2.4l-2.4,4l-0.8,6.4l-3.2,4.8l-0.8-1.6l-4,2.4l-0.8,2.4l-2.4-0.8l10.4-14.4l0.8-2.4h1.6
	L910.4,600.8z"/>
<path class="st165" d="M292,820l4.8,3.2l4,2.4l4.8,8.8v4.8l-3.2-4L300,832v-1.6h-1.6l-5.6-7.2L292,820z"/>
<path class="st166" d="M249.6,821.6h0.8v4l-1.6,1.6l0.8,1.6l-4,3.2H244v-1.6h-1.6l-1.6-4.8l4-3.2h3.2v1.6h1.6L249.6,821.6
	L249.6,821.6z"/>
<path class="st167" d="M932,604h0.8l1.6,14.4v6.4l-4,2.4v-5.6l-1.6-0.8L932,604z"/>
<path class="st168" d="M927.2,868.8l4,1.6h4.8v4.8l-2.4,1.6h-6.4l-0.8-2.4L927.2,868.8z"/>
<path class="st83" d="M717.6,636h5.6l-3.2,2.4l-4.8,2.4l-6.4,0.8h-21.6l-2.4-1.6l28-0.8l4.8-0.8L717.6,636L717.6,636z"/>
<path class="st169" d="M1060.8,868.8l5.6,4.8l9.6,4.8l3.2,0.8h10.4l8-1.6l-0.8,1.6l-9.6,2.4h-6.4l-10.4-2.4l-0.8-2.4l-4.8-1.6
	l-4-4.8L1060.8,868.8L1060.8,868.8z"/>
<path class="st44" d="M1009.6,752l0.8,3.2l-6.4,5.6l-6.4,6.4l-1.6-0.8l1.6-3.2l1.6-2.4h1.6l1.6-4.8l3.2-3.2l4,0.8L1009.6,752
	L1009.6,752z"/>
<path class="st42" d="M1208.8,716h11.2l0.8,4l-1.6,0.8h-9.6l-0.8-0.8V716z"/>
<path class="st42" d="M379.2,611.2h6.4v3.2l-4,4l-1.6,2.4l-3.2-0.8l0.8-7.2L379.2,611.2z"/>
<path class="st6" d="M832,478.4h12.8l21.6,2.4l4.8,1.6v0.8l-11.2-0.8l-28-3.2L832,478.4L832,478.4z"/>
<path class="st42" d="M1225.6,712.8h4l2.4,2.4l-0.8,4l-1.6,1.6h-4l-1.6-1.6v-4.8L1225.6,712.8z"/>
<path class="st83" d="M172,821.6l0.8,2.4l-4,14.4l-2.4,16l-1.6,0.8V848l3.2-16L172,821.6z"/>
<path class="st170" d="M592.8,869.6l6.4,0.8h13.6l5.6,0.8l0.8,1.6H600l-8.8-0.8l1.6-0.8V869.6z"/>
<path class="st171" d="M276.8,830.4l4,1.6l6.4,6.4l2.4,4.8l-0.8,2.4l-4.8-8l-5.6-4.8l-0.8,3.2l-3.2,4.8H272l0.8-4L276.8,830.4z"/>
<path class="st172" d="M1055.2,820.8v2.4l-4.8,6.4l-3.2,5.6l-3.2,8.8h-0.8v-6.4l4.8-10.4l0.8-1.6l4-2.4L1055.2,820.8z"/>
<path class="st173" d="M1096.8,879.2l2.4,0.8l-1.6,3.2h-8l-1.6,3.2l-4,0.8l-1.6-2.4v-2.4l12.8-2.4L1096.8,879.2z"/>
<path class="st174" d="M1050.4,860h2.4l2.4,4.8v3.2l-5.6,0.8l-2.4-4.8l1.6-3.2L1050.4,860z"/>
<path class="st175" d="M932,591.2h0.8l1.6,20l2.4,1.6l0.8,8l-1.6,0.8l-1.6,2.4l-2.4-20V591.2z"/>
<path class="st2" d="M51.2,667.2H52v25.6h-0.8l-0.8-18.4L40,672.8v-1.6l8.8-0.8l1.6-0.8L51.2,667.2z"/>
<path class="st11" d="M953.6,592.8l5.6,0.8l10.4,4l3.2,3.2l-8.8-2.4l-13.6-3.2L953.6,592.8z"/>
<path class="st176" d="M299.2,834.4l2.4,2.4l0.8,5.6l-4.8,2.4l-2.4-5.6v-2.4L299.2,834.4z"/>
<path class="st177" d="M1064.8,816.8l1.6,0.8v4l-2.4,0.8l-4,0.8l-6.4,4l-3.2,2.4l1.6-3.2l3.2-4L1064.8,816.8z"/>
<path class="st178" d="M1083.2,812h6.4v1.6l3.2-0.8l3.2,1.6l0.8,1.6v4.8l-1.6-3.2l-3.2-2.4l-3.2,0.8l-1.6,3.2l-2.4-2.4l-0.8-1.6
	l-7.2-0.8v-0.8L1083.2,812z"/>
<path class="st179" d="M172.8,756.8h0.8v7.2h8l-1.6,2.4h-16.8l0.8-2.4h8.8V756.8z"/>
<path class="st34" d="M56,639.2l-3.2-0.8l-7.2-4.8l-22.4,1.6L20,636l-0.8-3.2l0.8,1.6l1.6-0.8L44,632L56,639.2z"/>
<path class="st180" d="M930.4,620h0.8v5.6l-0.8,1.6l-8-0.8l-8.8-1.6V624l5.6-1.6h4.8l0.8,0.8h4L930.4,620z"/>
<path class="st159" d="M1042.4,837.6h0.8l-0.8,6.4v16.8l3.2,9.6v1.6h1.6l1.6,3.2l-0.8,2.4l-4-6.4l-3.2-9.6L1040,848L1042.4,837.6z"
	/>
<path class="st181" d="M1048.8,839.2l4,0.8l0.8,3.2l-1.6,4h-4.8l-0.8-0.8l0.8-5.6L1048.8,839.2z"/>
<path class="st182" d="M1052.8,829.6l4.8,0.8l0.8,2.4l-4,5.6l-4.8-3.2l1.6-4L1052.8,829.6z"/>
<path class="st183" d="M1108,825.6l3.2,0.8l2.4,3.2l-1.6,4l-1.6,1.6l-0.8,1.6l-3.2-4v-1.6h1.6l-0.8-4L1108,825.6z"/>
<path class="st20" d="M819.2,668h10.4l-0.8,2.4l-2.4,0.8v2.4l2.4,3.2l-1.6,0.8l-6.4-5.6L819.2,668z"/>
<path class="st173" d="M706.4,660.8h14.4v1.6h-1.6v2.4h-1.6v-2.4h-4.8l-0.8,2.4l1.6,0.8H708l-2.4-1.6L706.4,660.8z"/>
<path class="st146" d="M830.4,649.6l8,0.8l4.8,2.4l1.6,2.4l-8-3.2h-7.2l-4,3.2l-2.4,4.8H820l1.6-4l6.4-5.6L830.4,649.6z"/>
<path class="st184" d="M343.2,891.2h9.6l-1.6,0.8v1.6l-8.8,4h-3.2l1.6-3.2L343.2,891.2z"/>
<path class="st185" d="M299.2,857.6l5.6,0.8l-0.8,3.2l-2.4,3.2H296l1.6-6.4L299.2,857.6z"/>
<path class="st186" d="M1096.8,813.6l4.8,1.6l4.8,3.2l-0.8,3.2l0.8,3.2l-5.6-5.6l-1.6-0.8l-0.8,3.2l-2.4,0.8l1.6-7.2L1096.8,813.6z"
	/>
<path class="st11" d="M1252.8,748.8h0.8l-0.8,8l-3.2,0.8l-3.2-2.4l-3.2-0.8l1.6-4l7.2,1.6L1252.8,748.8z"/>
<path class="st187" d="M989.6,584h0.8v4h1.6l1.6,12.8v5.6l-0.8,4l-1.6-0.8v-6.4l-1.6-12V584z"/>
<path class="st188" d="M234.4,860.8l3.2,3.2l-0.8,4l-1.6,1.6l-3.2-0.8l-1.6-3.2l0.8-3.2L234.4,860.8z"/>
<path class="st189" d="M1054.4,840.8l1.6,1.6l-0.8,10.4l0.8,7.2l-1.6-2.4l-2.4-5.6l-5.6-0.8v-0.8h5.6V848l-3.2-0.8l3.2-0.8
	L1054.4,840.8z"/>
<path class="st190" d="M272.8,812.8l5.6,0.8l6.4,3.2l2.4,3.2h-4.8l-1.6,2.4h-1.6l0.8-5.6l-8-1.6L272.8,812.8z"/>
<path class="st191" d="M18.4,749.6L20,752v8h-2.4l-0.8-0.8v-24.8h0.8"/>
<path class="st179" d="M1028,740l0.8,3.2l-8.8,6.4l-8,6.4l-1.6-1.6v-7.2h0.8l0.8,5.6l10.4-8l4-2.4h1.6L1028,740L1028,740z"/>
<path class="st192" d="M1076,864h2.4l-0.8,5.6h-1.6l-0.8,4.8l-4-0.8v-2.4L1076,864z"/>
<path class="st193" d="M1073.6,848.8l1.6,1.6l1.6,5.6l4.8,4l5.6,2.4v0.8h-6.4l-4.8-3.2l-2.4-4.8L1073.6,848.8L1073.6,848.8z"/>
<path class="st194" d="M1045.6,851.2h6.4v6.4l-4,0.8l-2.4-2.4V851.2z"/>
<path class="st195" d="M52.8,636.8l0.8,2.4H52v28h-0.8l-0.8-21.6l-0.8-8.8l-0.8-2.4L52.8,636.8z"/>
<path class="st110" d="M283.2,874.4l1.6,0.8l-4,3.2l-4,2.4l-4.8,0.8h-15.2l-5.6-3.2l2.4-0.8l7.2,2.4h10.4l8.8-3.2L283.2,874.4z"/>
<path class="st196" d="M294.4,852.8l1.6,1.6v2.4l4-0.8l3.2,1.6l-5.6,0.8l-0.8,4.8l-1.6,1.6H292L294.4,852.8z"/>
<path class="st197" d="M1063.2,838.4l0.8,1.6l-2.4,4.8l-0.8,4v7.2l3.2,8l4,4.8v1.6l-2.4-0.8l-4.8-8l-1.6-4v-11.2l3.2-7.2
	L1063.2,838.4z"/>
<path class="st83" d="M53.6,756l3.2,4.8l7.2,0.8l24.8,0.8v0.8H56l-1.6-0.8L53.6,756z"/>
<path class="st6" d="M999.2,865.6h2.4l3.2,8l0.8,6.4l-2.4-0.8l-3.2-8L999.2,865.6z"/>
<path class="st182" d="M301.6,845.6l2.4,0.8v7.2h-5.6v-6.4L301.6,845.6z"/>
<path class="st198" d="M1063.2,877.6l4,1.6l1.6,0.8v4l-4,0.8l-3.2-1.6l-0.8-2.4L1063.2,877.6z"/>
<path class="st199" d="M236.8,867.2l3.2,1.6l-2.4,4.8l-0.8,3.2l-2.4-1.6l-2.4-4l-1.6-3.2l4.8,0.8L236.8,867.2z"/>
<path class="st200" d="M1092,864l3.2,1.6l2.4,4.8l-0.8,3.2h-3.2l-3.2-6.4L1092,864z"/>
<path class="st201" d="M256.8,864l3.2,1.6l-4,8l-4-0.8l1.6-4L256.8,864z"/>
<path class="st6" d="M818.4,663.2l0.8,1.6h1.6v-1.6h16l-0.8,2.4h-17.6V663.2z"/>
<path class="st202" d="M1257.6,773.6l1.6,0.8l4.8,5.6l3.2,3.2l-0.8,3.2l-2.4-2.4l-4.8-3.2l-1.6-1.6L1257.6,773.6L1257.6,773.6z"/>
<path class="st6" d="M1206.4,694.4h10.4l2.4,1.6v1.6l-5.6,0.8l-8-2.4L1206.4,694.4z"/>
<path class="st203" d="M762.4,868l0.8,1.6l4,0.8l0.8,3.2h-21.6v-0.8L760,872L762.4,868z"/>
<path class="st204" d="M282.4,819.2l4.8,0.8l1.6,0.8v4l-3.2,1.6l-4-2.4v-4L282.4,819.2z"/>
<path class="st2" d="M980,812.8h13.6l3.2,0.8L996,816l-14.4-0.8l-2.4-1.6L980,812.8z"/>
<path class="st205" d="M260,810.4h12.8l8,1.6l5.6,2.4l1.6,0.8v1.6l-4.8-1.6l-4-1.6h-5.6l-4-1.6l-9.6-0.8V810.4z"/>
<path class="st206" d="M50.4,700H52v10.4l1.6,0.8H52l-0.8,20h-0.8V700z"/>
<path class="st207" d="M1077.6,814.4h6.4l0.8,0.8v4.8h-6.4L1077.6,814.4z"/>
<path class="st208" d="M236,830.4l4,0.8l1.6,0.8l-1.6,4l-3.2,2.4l-2.4-2.4l0.8-4L236,830.4z"/>
<path class="st207" d="M272,815.2h4.8l2.4,1.6l-0.8,4l-7.2-0.8L272,815.2z"/>
<path class="st209" d="M1088.8,809.6l7.2,1.6l7.2,4l0.8,1.6l-4-1.6h-1.6l-0.8,2.4l-2.4-3.2l-5.6-0.8L1088.8,809.6z"/>
<path class="st19" d="M1217.6,734.4l6.4,4l5.6,6.4l5.6,4.8l-2.4,0.8l-9.6-8.8l-5.6-5.6V734.4z"/>
<path class="st109" d="M1115.2,835.2h2.4l1.6,5.6l-2.4,2.4h-2.4l-1.6-3.2v-3.2L1115.2,835.2z"/>
<path class="st210" d="M22.4,616l6.4,4.8l7.2,5.6l0.8,1.6l-3.2-0.8L23.2,620h-2.4v-3.2L22.4,616z"/>
<path class="st211" d="M963.2,534.4l5.6,4.8l10.4,10.4v1.6l-3.2-1.6l-10.4-10.4l-2.4-3.2L963.2,534.4L963.2,534.4z"/>
<path class="st212" d="M232,840l4,0.8l-0.8,5.6l-0.8,0.8h-4l-0.8-3.2L232,840z"/>
<path class="st213" d="M1068.8,816.8h4.8l0.8,4l-5.6,2.4l-1.6-1.6v-4L1068.8,816.8z"/>
<path class="st214" d="M787.2,622.4h0.8l0.8,5.6v8h4v0.8h-4l-0.8,1.6v-1.6h-16V636h15.2V622.4z"/>
<path class="st215" d="M289.6,875.2l2.4,0.8l0.8,4l-4,3.2l-2.4-0.8v-4L289.6,875.2z"/>
<path class="st208" d="M295.2,868l4,0.8v3.2l-3.2,3.2l-3.2-1.6l1.6-4.8L295.2,868z"/>
<path class="st216" d="M1044.8,852h0.8l0.8,5.6l5.6,0.8v1.6l-6.4,3.2l-1.6-4.8L1044.8,852z"/>
<path class="st217" d="M280.8,851.2h7.2v4l-5.6,0.8l-2.4-1.6L280.8,851.2z"/>
<path class="st218" d="M288.8,821.6l3.2,2.4v1.6l1.6,0.8l-2.4,0.8l0.8,4.8l0.8,2.4h-1.6l-5.6-6.4l1.6-0.8L288.8,821.6z"/>
<path class="st207" d="M1060.8,821.6l4,0.8l-0.8,4l-1.6,1.6l-4-0.8l-0.8-3.2L1060.8,821.6z"/>
<path class="st219" d="M1085.6,814.4h6.4l3.2,2.4v4l-6.4-1.6v-4L1085.6,814.4z"/>
<path class="st220" d="M45.6,632.8l7.2,4l-4-2.4v1.6l-21.6,0.8l0.8-1.6l15.2-0.8L45.6,632.8z"/>
<path class="st221" d="M1119.2,845.6h1.6v7.2l-4,0.8l-0.8-1.6v-4.8L1119.2,845.6z"/>
<path class="st222" d="M260.8,815.2h7.2l-0.8,4.8h-6.4L260.8,815.2L260.8,815.2z"/>
<path class="st83" d="M840,671.2h2.4l0.8,2.4l-4.8,3.2h-4l-1.6-2.4L840,671.2z"/>
<path class="st42" d="M391.2,617.6h5.6l1.6,0.8v4.8l1.6,0.8l-0.8,0.8h-8.8V624h7.2v-3.2h-6.4L391.2,617.6L391.2,617.6z"/>
<path class="st223" d="M232.8,850.4h1.6v7.2l-3.2,0.8l-1.6-1.6V852L232.8,850.4z"/>
<path class="st224" d="M291.2,826.4l4,0.8l1.6,1.6L296,832l-4,0.8l-1.6-2.4L291.2,826.4z"/>
<path class="st225" d="M1120,633.6l4,0.8l14.4,6.4l1.6,1.6l-4.8-0.8l-13.6-5.6v-1.6L1120,633.6z"/>
<path class="st226" d="M272,864.8l3.2,0.8l4,7.2l-3.2,1.6l-4-6.4V864.8z"/>
<path class="st227" d="M174.4,809.6l4,0.8L176,816l-2.4,2.4l-0.8-0.8v-6.4L174.4,809.6z"/>
<path class="st228" d="M1253.6,750.4l3.2,3.2v6.4l-7.2-1.6l2.4-1.6L1253.6,750.4z"/>
<path class="st229" d="M1106.4,892l1.6,0.8l-2.4,0.8v1.6l-8,3.2h-4.8l1.6-2.4L1106.4,892z"/>
<path class="st230" d="M51.2,718.4l2.4,2.4l-0.8,16.8h-1.6C51.2,737.6,51.2,718.4,51.2,718.4z"/>
<path class="st231" d="M1064,815.2l1.6,0.8l-2.4,2.4l-7.2,4h-1.6l-2.4,1.6l1.6-3.2l4-4l1.6,0.8l3.2-1.6L1064,815.2z M1050.4,824
	l1.6,0.8h-2.4L1050.4,824z"/>
<path class="st232" d="M248.8,812l1.6,0.8l-3.2,1.6l-5.6,4l-4,2.4l-5.6,5.6V824l7.2-7.2L248.8,812z"/>
<path class="st233" d="M965.6,877.6h11.2L976,880l-4.8,0.8l0.8,1.6l-4-1.6l-2.4-1.6V877.6z"/>
<path class="st234" d="M1073.6,831.2l4,4l0.8,4.8l-3.2-0.8l-3.2-4.8V832L1073.6,831.2z"/>
<path class="st235" d="M1096,831.2l1.6,0.8l-0.8,4l-3.2,4.8l-2.4-0.8l0.8-4L1096,831.2z"/>
<path class="st236" d="M1099.2,818.4l4,1.6l2.4,3.2l-0.8,3.2l-3.2-1.6l-2.4-1.6V818.4z"/>
<path class="st2" d="M77.6,803.2h9.6l2.4,0.8v1.6h-16l0.8-1.6L77.6,803.2z"/>
<path class="st237" d="M270.4,882.4l1.6,0.8v4l-0.8,0.8h-5.6l-0.8-3.2L270.4,882.4z"/>
<path class="st238" d="M131.2,861.6l12.8,1.6l4.8,0.8l-0.8,1.6l-16-1.6L131.2,861.6z"/>
<path class="st239" d="M257.6,810.4l12,0.8l3.2,0.8l-1.6,3.2l-2.4-0.8l-3.2-0.8h2.4V812l-14.4,0.8v-1.6L257.6,810.4z"/>
<path class="st41" d="M1046.4,613.6l6.4,3.2l1.6,2.4v3.2l-3.2-0.8l-4.8-6.4V613.6z"/>
<path class="st240" d="M1047.2,880l5.6,4.8l7.2,5.6l0.8,2.4l-4-1.6l-5.6-4.8l-4-4.8V880z"/>
<path class="st241" d="M1115.2,872h1.6l-1.6,3.2l-4,4.8l-3.2-4v-3.2l5.6,1.6L1115.2,872z"/>
<path class="st109" d="M1112.8,867.2l3.2,1.6l-0.8,4l-4,0.8l-1.6-2.4L1112.8,867.2z"/>
<path class="st242" d="M17.6,837.6h1.6l0.8,3.2l8,3.2l5.6,1.6l1.6,3.2l-3.2-1.6l-7.2-2.4l-4.8-2.4l-2.4-2.4
	C17.6,840,17.6,837.6,17.6,837.6z"/>
<path class="st42" d="M325.6,615.2l0.8,3.2l-1.6,2.4h-7.2v-3.2h6.4l0.8-1.6L325.6,615.2z"/>
<path class="st174" d="M841.6,674.4h1.6v2.4l-4.8,2.4h-7.2l-2.4-0.8l0.8-2.4l4.8,1.6L841.6,674.4z"/>
<path class="st48" d="M280,881.6l4,2.4l-3.2,2.4l-4.8,0.8l0.8-4L280,881.6z"/>
<path class="st243" d="M1041.6,858.4l0.8,1.6h1.6l4,11.2v2.4l-0.8-1.6h-1.6l-3.2-8L1041.6,858.4z"/>
<path class="st244" d="M252.8,832.8l4,0.8l2.4,4l-0.8,3.2L256,840l-3.2-5.6V832.8z"/>
<path class="st2" d="M927.2,528.8l1.6,1.6l1.6,12l-1.6,2.4l-1.6-6.4V528.8z"/>
<path class="st245" d="M1098.4,880h1.6l-0.8,4.8l-8,0.8l-1.6,1.6l-3.2-0.8l3.2-3.2l8-0.8L1098.4,880z"/>
<path class="st246" d="M1116,857.6h4l-0.8,5.6l-3.2,0.8l-0.8-0.8L1116,857.6z"/>
<path class="st247" d="M243.2,851.2h8l-0.8,3.2h-7.2V851.2z"/>
<path class="st248" d="M244.8,822.4h2.4l-0.8,4l-2.4,2.4h-2.4l-0.8-3.2L244.8,822.4z"/>
<path class="st249" d="M177.6,811.2l0.8,3.2l-4,8.8l-0.8,3.2H172l0.8-8.8h1.6L177.6,811.2z"/>
<path class="st204" d="M252,817.6h4.8v3.2l-4.8,2.4h-1.6v-4L252,817.6z"/>
<path class="st250" d="M1077.6,809.6h11.2l-0.8,3.2l-7.2-0.8l-4.8,0.8v-1.6h1.6L1077.6,809.6L1077.6,809.6z"/>
<path class="st251" d="M800,661.6h8l-0.8,4h-4.8l-2.4-2.4V661.6z"/>
<path class="st252" d="M1008.8,563.2l12,0.8l2.4,2.4l-4.8-0.8l-10.4,0.8L1008.8,563.2z"/>
<path class="st253" d="M72.8,850.4l2.4,1.6v2.4h-8L56,852.8V852h8.8l8,0.8V850.4z"/>
<path class="st19" d="M906.4,608.8l1.6,0.8l-2.4,7.2l-2.4,1.6v-1.6l-1.6-0.8L906.4,608.8z"/>
<path class="st3" d="M20.8,635.2h4l-2.4,9.6h-1.6V635.2z"/>
<path class="st254" d="M21.6,619.2l4,1.6l0.8,4l-4,0.8l0.8-4l-1.6-0.8v7.2l-1.6-0.8l0.8-7.2L21.6,619.2z"/>
<path class="st255" d="M1059.2,829.6l1.6,0.8l-1.6,4v2.4l-3.2,4.8l-0.8-2.4l0.8-4l1.6-4h1.6V829.6z"/>
<path class="st256" d="M242.4,830.4h1.6l0.8,2.4l-4.8,6.4l-2.4,0.8v-2.4L242.4,830.4z"/>
<path class="st257" d="M1108,835.2l2.4,0.8l4.8-0.8l-0.8,1.6h-1.6l1.6,6.4l2.4,0.8l-3.2,0.8l-3.2-6.4l-2.4-1.6L1108,835.2
	L1108,835.2z"/>
<path class="st2" d="M704.8,660l1.6,1.6v2.4l1.6,0.8h6.4v1.6l-9.6,0.8l-1.6-2.4l0.8-4L704.8,660z"/>
<path class="st258" d="M1112,866.4h3.2l-0.8,1.6l-3.2,1.6l-0.8,2.4l4,1.6l-0.8,1.6l-5.6-1.6l-1.6-1.6l3.2-4L1112,866.4z"/>
<path class="st259" d="M288,819.2l4.8,3.2l5.6,6.4v1.6h-1.6l-3.2-4l-6.4-6.4L288,819.2z"/>
<path class="st260" d="M249.6,877.6l4.8,1.6l2.4,2.4l-1.6,0.8l-0.8,2.4v-1.6l-7.2-0.8l3.2-1.6v-1.6L249.6,877.6z"/>
<path class="st261" d="M225.6,828.8l0.8,1.6l-3.2,8l-2.4,7.2H220l0.8-7.2l3.2-7.2L225.6,828.8z"/>
<path class="st262" d="M844,668l5.6,0.8L848,672l-3.2,2.4l-0.8-0.8V668z"/>
<path class="st263" d="M744.8,652.8l2.4,0.8l3.2,4.8l-0.8,2.4h-11.2V660l9.6-0.8l-3.2-4.8V652.8z"/>
<path class="st264" d="M843.2,656l4.8,0.8v1.6h1.6v1.6l-5.6,0.8l-0.8-0.8V656z"/>
<path class="st42" d="M202.4,610.4h4.8l-0.8,5.6l-0.8-2.4h-6.4l0.8-2.4L202.4,610.4z"/>
<path class="st265" d="M1060.8,868.8l5.6,4.8l5.6,3.2v2.4l-2.4-0.8v-1.6l-4.8-1.6l-4-4.8L1060.8,868.8L1060.8,868.8z"/>
<path class="st266" d="M846.4,870.4l4,1.6l0.8,2.4h-8.8L846.4,870.4z"/>
<path class="st267" d="M268,842.4l3.2,0.8l4,4l0.8,4l-3.2-4l-4-2.4l-5.6-0.8v-0.8L268,842.4z"/>
<path class="st42" d="M228,828v2.4l-3.2,8l-1.6,4.8l-0.8-3.2l3.2-9.6L228,828z"/>
<path class="st268" d="M1104.8,824.8l3.2,1.6v4.8h-1.6l-4-4l-0.8-1.6l3.2,0.8L1104.8,824.8L1104.8,824.8z M1104,831.2h2.4l0.8,3.2
	L1104,831.2z"/>
<path class="st269" d="M1086.4,812h3.2v1.6l3.2-0.8l3.2,1.6l0.8,1.6v4.8l-1.6-3.2l-3.2-2.4l-6.4-1.6L1086.4,812z"/>
<path class="st270" d="M56,639.2l-3.2-0.8l-6.4-4.8l-1.6-1.6L56,639.2z"/>
<path class="st271" d="M567.2,414.4l0.8,2.4l-5.6,8.8l-1.6-3.2L567.2,414.4z"/>
<path class="st173" d="M1104.8,876.8l4,0.8l-0.8,4l-3.2,0.8l-0.8-4L1104.8,876.8z"/>
<path class="st272" d="M978.4,551.2l3.2,1.6l5.6,6.4v1.6l-3.2-1.6l-5.6-6.4V551.2z"/>
<path class="st159" d="M1099.2,851.2h6.4l0.8,2.4l-1.6,0.8h-4.8L1099.2,851.2z"/>
<path class="st273" d="M1072.8,812h1.6l1.6,3.2l-0.8,3.2l-4-1.6l-0.8-4L1072.8,812z"/>
<path class="st274" d="M52.8,636.8l0.8,2.4H52l-0.8,5.6h-0.8l-0.8-8l-0.8-2.4L52.8,636.8z"/>
<path class="st275" d="M1119.2,881.6v2.4l-2.4,2.4l-3.2,3.2l-5.6,3.2l0.8-2.4l8.8-7.2L1119.2,881.6z"/>
<path class="st276" d="M1080,883.2h2.4l1.6,4.8h-8l2.4-1.6L1080,883.2z"/>
<path class="st277" d="M254.4,881.6l7.2,1.6l-0.8,2.4l-2.4,0.8l-3.2-1.6L254.4,881.6z"/>
<path class="st20" d="M1055.2,871.2l3.2,1.6l0.8,4l-4-0.8l-1.6-3.2L1055.2,871.2z"/>
<path class="st277" d="M233.6,862.4l2.4,0.8v4l-2.4,1.6l-1.6-1.6v-4L233.6,862.4z"/>
<path class="st278" d="M1069.6,812.8l0.8,1.6l1.6,0.8l-0.8,1.6l-4.8,1.6l-1.6-2.4L1069.6,812.8z"/>
<path class="st11" d="M922.4,588.8l1.6,1.6l-3.2,4.8l-3.2,1.6l-1.6-1.6l2.4-2.4l3.2-1.6L922.4,588.8z"/>
<path class="st52" d="M1072.8,882.4l4.8,0.8l0.8,4h-2.4v-1.6h-3.2L1072.8,882.4L1072.8,882.4z"/>
<path class="st11" d="M1106.4,819.2l3.2,2.4l0.8,3.2h-1.6l-1.6,1.6l-1.6-1.6l-0.8-4L1106.4,819.2z"/>
<path class="st83" d="M1177.6,761.6h0.8V772l-4-0.8v-2.4l2.4-1.6L1177.6,761.6z"/>
<path class="st279" d="M986.4,560.8l2.4,0.8l0.8,3.2v8h-0.8V568h-1.6L986.4,560.8z"/>
<path class="st280" d="M247.2,876.8h2.4l2.4,4l-5.6,0.8L247.2,876.8z"/>
<path class="st281" d="M379.2,871.2h2.4l-1.6,3.2l-6.4,6.4v-2.4L379.2,871.2z"/>
<path class="st282" d="M1076.8,868l0.8,1.6h-1.6l-0.8,4.8l-4-0.8v-2.4l2.4-2.4l-0.8,3.2l1.6-0.8l0.8-2.4L1076.8,868z"/>
<path class="st20" d="M983.2,868.8l4,0.8l-4.8,6.4l-1.6,0.8l0.8-4L983.2,868.8z"/>
<path class="st283" d="M1237.6,752.8l5.6,0.8l4,1.6l2.4,2.4l-7.2-1.6l-4.8-2.4V752.8z"/>
<path class="st173" d="M239.2,872h2.4l-1.6,5.6l-2.4-0.8l-0.8-3.2L239.2,872z"/>
<path class="st42" d="M318.4,611.2h7.2l-0.8,3.2l-6.4-0.8L318.4,611.2L318.4,611.2z"/>
<path class="st284" d="M924,594.4l0.8,2.4l-3.2,6.4H920l0.8-5.6L924,594.4z"/>
<path class="st19" d="M944.8,591.2l6.4,0.8l4,1.6v0.8l-8.8-0.8l-1.6-0.8L944.8,591.2L944.8,591.2z"/>
<path class="st285" d="M1070.4,881.6l1.6,0.8v4h4l-3.2,1.6h-2.4v-3.2l-2.4-0.8L1070.4,881.6z"/>
<path class="st286" d="M302.4,863.2v2.4l-2.4,0.8l0.8,4.8l-4-4l-0.8-2.4l1.6-0.8h4L302.4,863.2z"/>
<path class="st287" d="M288.8,816.8l4,1.6l6.4,5.6l-0.8,1.6l-5.6-4.8l-4-2.4V816.8z"/>
<path class="st277" d="M1010.4,747.2h0.8l0.8,5.6l4-2.4v2.4l-4.8,3.2l-0.8-1.6V747.2z"/>
<path class="st6" d="M721.6,660.8l6.4,0.8l-0.8,1.6l-4-0.8v1.6l3.2,0.8l-5.6,0.8L721.6,660.8z"/>
<path class="st2" d="M930.4,551.2h1.6l0.8,6.4l-0.8,4.8l-1.6-3.2V551.2z"/>
<path class="st288" d="M257.6,868l0.8,1.6l-2.4,4l-4-0.8l1.6-4l0.8,2.4L257.6,868z"/>
<path class="st20" d="M353.6,861.6H364l-3.2,1.6l-5.6,0.8l-1.6,0.8L353.6,861.6L353.6,861.6z"/>
<path class="st289" d="M1079.2,859.2l8,3.2v0.8h-6.4l-2.4-2.4L1079.2,859.2z"/>
<path class="st290" d="M116,859.2l6.4,0.8v0.8l-8.8,0.8l-5.6-0.8V860h7.2L116,859.2z"/>
<path class="st291" d="M16,827.2h1.6l0.8,10.4l-1.6-0.8l-0.8-4C16,832.8,16,827.2,16,827.2z"/>
<path class="st292" d="M250.4,817.6l0.8,1.6l-1.6,4.8H248l-2.4-2.4V820L250.4,817.6z"/>
<path class="st6" d="M712.8,660.8h8v1.6h-1.6v2.4h-1.6v-2.4h-4.8L712.8,660.8L712.8,660.8z"/>
<path class="st293" d="M672,640.8h4l-0.8,10.4h-0.8l-0.8-7.2L672,640.8z"/>
<path class="st294" d="M991.2,599.2l0.8,1.6h1.6v5.6l-0.8,4l-1.6-0.8V599.2z"/>
<path class="st295" d="M513.6,710.4c0,0,108.3-25.5,125.6-73.6"/>
<g>
	<path class="st10" d="M886.5,683.6l3.2-18h3.1l-3.2,18H886.5z M888,679.2l0.4-2.9h1.4c2.6,0,4.6-0.4,6-1.3c1.4-0.8,2-2.1,2-3.8
		c0-1-0.4-1.8-1.1-2.3c-0.7-0.5-1.8-0.8-3.3-0.8c-1.8,0-3.2,0.1-4.3,0.3l0.4-2.9c1-0.2,2.3-0.3,4-0.3c2.5,0,4.3,0.5,5.6,1.4
		s1.9,2.4,1.9,4.3c0,2.7-1,4.7-2.9,6.1s-4.9,2.1-8.7,2.1H888V679.2z"/>
	<path class="st10" d="M901.5,683.6l3.2-18h3.1l-3.2,18H901.5z M903,678.1l0.4-2.9h1.4c2.6,0,4.7-0.4,6-1.1s2-1.8,2-3.3
		c0-0.9-0.4-1.5-1.1-2c-0.7-0.4-1.7-0.7-3.1-0.7c-1.8,0-3.4,0.1-4.5,0.3l0.4-2.9c1.1-0.2,2.5-0.3,4.3-0.3c2.4,0,4.2,0.5,5.4,1.4
		s1.8,2.2,1.8,4c0,2.4-1,4.3-3,5.6s-4.9,1.9-8.7,1.9H903z M911,683.6l-2.5-8h3.3l2.7,8H911z"/>
	<path class="st10" d="M917,683.6l0.5-2.8h11.2l-0.5,2.8H917z M919.7,668.3l0.5-2.8h11.2l-0.5,2.8H919.7z M921.1,683.6l3.2-18h3.1
		l-3.2,18H921.1z"/>
	<path class="st10" d="M935.2,683.6l-1.3-18l3.1-0.2l0.9,15.5h0.2c1.5-2,2.8-4.3,4-6.9c1.1-2.6,2.2-5.4,3-8.4h3.1
		c-1,3.6-2.2,6.9-3.7,9.9c-1.4,3.1-3.2,5.7-5.3,8.1L935.2,683.6L935.2,683.6z"/>
	<path class="st10" d="M946,683.6l8.2-18h4.1c0.2,1.1,0.4,2.3,0.6,3.5c0.2,1.2,0.3,2.4,0.5,3.7s0.3,2.5,0.4,3.8
		c0.1,1.3,0.2,2.5,0.3,3.7s0.2,2.3,0.2,3.4h-3.1c0-0.9-0.1-1.8-0.1-2.8s-0.1-2-0.2-3c-0.1-1-0.2-2.1-0.3-3.1s-0.2-2.1-0.3-3.1
		s-0.2-1.9-0.3-2.8h-0.3l-6.4,14.8H946V683.6z M949.3,679.7l0.5-2.8h9.1l-0.5,2.8H949.3z"/>
	<path class="st10" d="M962.4,683.6l3.2-18h3.1l-3.1,18H962.4z M965.1,683.6l0.4-2.9h0.8c1.5,0,2.9-0.3,4-0.9
		c1.1-0.6,1.9-1.5,2.5-2.6s0.9-2.5,0.9-4.2c0-1.5-0.5-2.7-1.4-3.5c-1-0.8-2.3-1.3-4-1.3c-0.9,0-1.7,0.1-2.6,0.3l-0.1-2.9
		c0.9-0.2,2-0.3,3-0.3c2.6,0,4.7,0.7,6.1,2s2.2,3.1,2.2,5.5c0,2.3-0.4,4.2-1.3,5.8s-2.1,2.9-3.8,3.7c-1.7,0.9-3.7,1.3-6,1.3
		L965.1,683.6L965.1,683.6z"/>
	<path class="st10" d="M983.7,683.8c-1.7,0-3.1-0.6-4.1-1.7s-1.5-2.7-1.5-4.8c0-2.5,0.3-4.7,1-6.5s1.7-3.2,2.9-4.1s2.8-1.4,4.6-1.4
		c1.7,0,3.1,0.6,4,1.7s1.4,2.7,1.4,4.7c0,2.6-0.3,4.7-1,6.6s-1.6,3.2-2.9,4.2C987,683.3,985.5,683.8,983.7,683.8z M984.1,680.9
		c1,0,1.9-0.4,2.6-1.1c0.7-0.7,1.3-1.8,1.7-3.1s0.6-3,0.6-4.9c0-1.2-0.2-2.1-0.7-2.8s-1.1-1-1.9-1c-1,0-1.9,0.4-2.7,1.1
		s-1.3,1.7-1.7,3s-0.6,2.9-0.6,4.8c0,1.2,0.2,2.2,0.7,2.9S983.2,680.9,984.1,680.9z"/>
</g>
<g>
	<path class="st60" d="M554.5,402.8l3.4-19.4h3.6l-3.4,19.4H554.5z M554.5,402.8l0.6-3.3h13.3l-0.6,3.3H554.5z M555.9,394.8l0.6-3.3
		h10.9l-0.6,3.3H555.9z M557.3,386.8l0.6-3.3h13.3l-0.6,3.3H557.3z"/>
	<path class="st60" d="M570.8,402.8l3.4-19.4h3.5l-3.4,19.4H570.8z M577.5,396.1l0.2-9.2h-0.9l0.6-3.4h2l-0.2,8.8h0.1l-0.5,3.8
		L577.5,396.1z M578,396l1.2-3.8h0.2l3.1-8.8h2.1l-0.6,3.4h-0.9l-3.3,9.2L578,396L578,396z M580.7,402.8l3.4-19.4h3.5l-3.4,19.4
		H580.7z"/>
	<path class="st60" d="M588.1,402.8l3.4-19.4h3.6l-3.4,19.4H588.1z M588.1,402.8l0.6-3.3H602l-0.6,3.3H588.1z M589.5,394.8l0.6-3.3
		H601l-0.6,3.3H589.5z M590.9,386.8l0.6-3.3h13.3l-0.6,3.3H590.9z"/>
	<path class="st60" d="M604.6,402.8l3.4-19.4h3.6l-3.4,19.4H604.6z M606.4,397.1l0.5-3.4h1.5c2.8,0,4.9-0.4,6.3-1.1
		c1.4-0.8,2.1-1.9,2.1-3.3c0-0.9-0.4-1.5-1.1-1.9c-0.7-0.4-1.8-0.7-3.2-0.7c-2,0-3.7,0.1-5,0.3l0.5-3.4c1.2-0.2,2.8-0.3,4.7-0.3
		c2.6,0,4.5,0.5,5.9,1.5c1.3,1,2,2.4,2,4.4c0,2.7-1.1,4.7-3.2,6c-2.1,1.4-5.3,2.1-9.5,2.1h-1.5V397.1z M614.7,402.8l-2.7-8.6h3.9
		l2.9,8.6H614.7z"/>
	<path class="st60" d="M629.1,403.1c-2.3,0-4-0.6-5.3-1.9s-1.9-3.1-1.9-5.4c0-1.8,0.3-3.5,0.8-5s1.3-2.9,2.2-4c1-1.1,2.2-2,3.5-2.7
		c1.4-0.6,2.9-0.9,4.6-0.9c1.4,0,2.5,0.2,3.3,0.5c0.8,0.4,1.5,0.8,2,1.4l-2.1,3c-0.4-0.4-0.9-0.8-1.5-1.1c-0.6-0.3-1.3-0.4-2.1-0.4
		c-1,0-1.9,0.2-2.7,0.6s-1.6,1-2.2,1.8c-0.6,0.8-1.1,1.7-1.5,2.8s-0.5,2.3-0.5,3.6c0,2.8,1.4,4.2,4.1,4.2c1,0,1.9-0.1,2.7-0.3
		c0.8-0.2,1.5-0.3,2-0.4l0.8,3.3c-0.4,0.1-1.2,0.3-2.3,0.5C631.8,403,630.5,403.1,629.1,403.1z M629.5,396.1l0.6-3.3h6.7l-0.6,3.3
		H629.5z M631.6,402.3l1.7-9.5h3.6l-1.7,9.5H631.6z"/>
	<path class="st60" d="M638.5,402.8l3.4-19.4h3.6l-3.4,19.4H638.5z M638.5,402.8l0.6-3.3h13.3l-0.6,3.3H638.5z M639.9,394.8l0.6-3.3
		h10.9l-0.6,3.3H639.9z M641.3,386.8l0.6-3.3h13.3l-0.6,3.3H641.3z"/>
	<path class="st60" d="M655.1,402.8l3.4-19.4h3.6l-3.4,19.4H655.1z M662.8,402.8l-1.1-14.8h-1.5l0.9-4.6h2.5l1.1,14.8h1l-0.8,4.6
		H662.8z M664.3,402.8l3.4-19.4h3.6l-3.4,19.4H664.3z"/>
	<path class="st60" d="M679.9,403.1c-1.6,0-3-0.3-4.1-0.8c-1.1-0.6-1.9-1.4-2.5-2.5c-0.5-1.1-0.8-2.5-0.8-4.1c0-1.9,0.3-3.5,0.8-5.1
		s1.3-2.9,2.3-4s2.2-2,3.6-2.6c1.4-0.6,2.9-0.9,4.5-0.9c2.1,0,3.8,0.6,5,1.9l-2.1,3.1c-0.9-1-2-1.5-3.3-1.5s-2.6,0.4-3.6,1.2
		s-1.9,1.8-2.5,3.2c-0.6,1.4-0.9,2.9-0.9,4.6c0,0.9,0.2,1.7,0.5,2.3c0.3,0.6,0.8,1.1,1.5,1.4s1.5,0.5,2.5,0.5c1.6,0,3.1-0.3,4.8-0.8
		l0.2,3.3C683.9,402.8,681.9,403.1,679.9,403.1z"/>
	<path class="st60" d="M689,402.8l0.6-3.3h12.3l-0.6,3.3H689z M691.8,386.8l0.6-3.3h12.3l-0.6,3.3H691.8z M693.3,402.8l3.4-19.4h3.6
		l-3.4,19.4H693.3z"/>
	<path class="st60" d="M704.1,402.8l9-19.4h4.5c0.2,1.3,0.4,2.6,0.6,3.9c0.2,1.3,0.3,2.6,0.5,3.9s0.3,2.6,0.4,3.9s0.2,2.6,0.4,3.9
		c0.1,1.3,0.2,2.6,0.3,3.9H716c0-1-0.1-2-0.2-3c-0.1-1-0.1-2-0.2-3s-0.2-2-0.2-3c-0.1-1-0.2-2-0.3-3s-0.2-2-0.3-3h-0.4l-6.6,15.2
		h-3.7V402.8z M707.6,399.2l0.5-3.3h9.8l-0.5,3.3H707.6z"/>
	<path class="st60" d="M728.2,403.1c-2.4,0-4.4-0.4-6-1.2l0.8-3.4c1.9,0.8,3.7,1.2,5.4,1.2c1.3,0,2.3-0.2,2.9-0.5
		c0.7-0.4,1-0.9,1-1.6c0-0.3-0.1-0.6-0.3-0.9c-0.2-0.2-0.5-0.5-0.9-0.7l-4-2.4c-0.9-0.5-1.5-1.2-1.8-2s-0.5-1.5-0.5-2.3
		c0-2,0.6-3.5,1.7-4.5s2.8-1.5,5-1.5c2.6,0,4.6,0.7,6.1,2.2l-2,3c-0.7-0.6-1.4-1-2.1-1.3c-0.7-0.3-1.5-0.4-2.2-0.4
		c-0.9,0-1.6,0.2-2.1,0.5s-0.7,0.8-0.7,1.4c0,0.4,0.1,0.8,0.4,1.1s0.6,0.7,1,1l3.7,2.2c0.9,0.6,1.6,1.2,1.9,1.9s0.5,1.5,0.5,2.3
		c0,2-0.7,3.5-2,4.5C732.8,402.6,730.8,403.1,728.2,403.1z"/>
</g>
<g>
	<path class="st68" d="M117.4,409.2c-2.1,0-3.5-0.5-4.4-1.5s-1.2-2.4-0.8-4.3l2.1-11.8h3.2l-2.1,11.8c-0.2,0.9,0,1.6,0.3,2
		c0.4,0.5,1,0.7,1.9,0.7c0.8,0,1.5-0.2,2-0.7s0.8-1.1,1-2l2.1-11.8h3.2l-2.1,11.8c-0.3,1.9-1,3.4-2.1,4.3
		C120.6,408.8,119.2,409.2,117.4,409.2z"/>
	<path class="st68" d="M126.3,409l3.1-17.3h3.2l-3.1,17.3H126.3z M133.1,409l-0.9-13.2h-1.4l0.8-4.2h2.3l0.9,13.2h0.9l-0.8,4.2
		H133.1z M134.5,409l3.1-17.3h3.2l-3.1,17.3H134.5z"/>
	<path class="st68" d="M141.5,409l0.5-3h11l-0.5,3H141.5z M144,394.6l0.5-3h11l-0.5,3H144z M145.4,409l3.1-17.3h3.2l-3.1,17.3H145.4
		z"/>
	<path class="st68" d="M156.2,409l3.1-17.3h3.2l-3,17.3H156.2z M159.1,409l0.4-3.1h0.6c1.4,0,2.7-0.3,3.7-0.8c1-0.6,1.8-1.4,2.3-2.4
		c0.5-1.1,0.8-2.3,0.8-3.8c0-1.4-0.4-2.4-1.3-3.2c-0.9-0.8-2.1-1.1-3.7-1.1c-0.8,0-1.6,0.1-2.4,0.2l-0.2-3.1
		c0.9-0.2,1.9-0.2,2.9-0.2c2.6,0,4.6,0.6,6,1.9s2.2,3,2.2,5.3c0,2.2-0.4,4-1.3,5.6c-0.9,1.6-2.1,2.7-3.7,3.6
		c-1.6,0.8-3.5,1.2-5.8,1.2h-0.5V409z"/>
	<path class="st68" d="M170,409l8-17.3h4c0.2,1.2,0.3,2.3,0.5,3.5s0.3,2.3,0.4,3.5c0.1,1.2,0.3,2.3,0.4,3.5c0.1,1.2,0.2,2.3,0.3,3.5
		s0.2,2.3,0.3,3.5h-3.3c0-0.9-0.1-1.8-0.1-2.7c-0.1-0.9-0.1-1.8-0.2-2.7c-0.1-0.9-0.1-1.8-0.2-2.7c-0.1-0.9-0.2-1.8-0.2-2.7
		c-0.1-0.9-0.2-1.8-0.3-2.7h-0.4l-5.9,13.6H170V409z M173.1,405.7l0.4-3h8.8l-0.4,3H173.1z"/>
	<path class="st68" d="M186.2,409l3.1-17.3h3.2l-3,17.3H186.2z M189.1,409l0.4-3.1h0.6c1.4,0,2.7-0.3,3.7-0.8c1-0.6,1.8-1.4,2.3-2.4
		c0.5-1.1,0.8-2.3,0.8-3.8c0-1.4-0.4-2.4-1.3-3.2c-0.9-0.8-2.1-1.1-3.7-1.1c-0.8,0-1.6,0.1-2.4,0.2l-0.2-3.1
		c0.9-0.2,1.9-0.2,2.9-0.2c2.6,0,4.6,0.6,6,1.9s2.2,3,2.2,5.3c0,2.2-0.4,4-1.3,5.6c-0.9,1.6-2.1,2.7-3.7,3.6
		c-1.6,0.8-3.5,1.2-5.8,1.2h-0.5V409z"/>
	<path class="st68" d="M216,409l3.1-17.3h3.2l-3.1,17.3H216z M222,402.9l0.1-8.2h-0.8l0.5-3.1h1.8l-0.1,7.9h0.1l-0.5,3.4L222,402.9z
		 M222.4,402.9l1.1-3.4h0.1l2.7-7.9h1.9l-0.5,3.1h-0.8l-2.9,8.2L222.4,402.9L222.4,402.9z M224.8,409l3.1-17.3h3.1l-3.1,17.3H224.8z
		"/>
	<path class="st68" d="M237,409.2c-1.7,0-3.1-0.6-4-1.7c-1-1.1-1.5-2.7-1.5-4.7c0-2.4,0.3-4.4,1-6.1s1.6-3,2.9-3.9
		c1.3-0.9,2.8-1.4,4.5-1.4s3,0.6,4,1.7s1.4,2.6,1.4,4.6c0,2.4-0.3,4.5-1,6.2s-1.6,3-2.9,4C240.3,408.8,238.8,409.2,237,409.2z
		 M237.5,406.2c0.9,0,1.8-0.3,2.4-1c0.7-0.6,1.2-1.6,1.5-2.8c0.4-1.2,0.5-2.7,0.5-4.4c0-1.1-0.2-2-0.6-2.6c-0.4-0.6-1-0.9-1.8-0.9
		c-1,0-1.8,0.3-2.5,1c-0.7,0.6-1.2,1.6-1.6,2.7s-0.5,2.6-0.5,4.3c0,1.1,0.2,2,0.7,2.7C236.1,405.8,236.7,406.2,237.5,406.2z"/>
	<path class="st68" d="M249.3,409l-1.3-17.3l3.2-0.1l0.8,14.6h0.2c1.4-1.9,2.6-4.1,3.7-6.5c1-2.4,2-5.1,2.8-7.9h3.2
		c-1,3.4-2.1,6.6-3.5,9.6c-1.4,2.9-3,5.5-5,7.8h-4.1L249.3,409L249.3,409z"/>
	<path class="st68" d="M261.5,409l0.5-3h11l-0.5,3H261.5z M264,394.6l0.5-3h11l-0.5,3H264z M265.3,409l3.1-17.3h3.2l-3.1,17.3H265.3
		z"/>
	<path class="st68" d="M276.4,409l3.1-17.3h3.2l-3.1,17.3H276.4z M276.4,409l0.5-3h11.9l-0.5,3H276.4z"/>
	<path class="st68" d="M306.1,409l3.1-17.3h3.2l-3,17.3H306.1z M309.1,409l0.4-3.1h0.6c1.4,0,2.7-0.3,3.7-0.8c1-0.6,1.8-1.4,2.3-2.4
		c0.5-1.1,0.8-2.3,0.8-3.8c0-1.4-0.4-2.4-1.3-3.2c-0.9-0.8-2.1-1.1-3.7-1.1c-0.8,0-1.6,0.1-2.4,0.2l-0.2-3.1
		c0.9-0.2,1.9-0.2,2.9-0.2c2.6,0,4.6,0.6,6,1.9s2.2,3,2.2,5.3c0,2.2-0.4,4-1.3,5.6s-2.1,2.7-3.7,3.6c-1.6,0.8-3.5,1.2-5.8,1.2h-0.5
		V409z"/>
	<path class="st68" d="M321.4,409l3.1-17.3h3.2l-3.1,17.3H321.4z M321.4,409l0.5-3h11.9l-0.5,3H321.4z M322.7,401.8l0.5-3h9.7
		l-0.5,3H322.7z M323.9,394.6l0.5-3h11.9l-0.5,3H323.9z"/>
</g>
<g>
	<path class="st68" d="M109,417.8l0.5-2.7h11.6l-0.5,2.7H109z M111,431l2.8-15.9h3L114,431H111z"/>
	<path class="st68" d="M121.2,431l2.8-15.9h3l-2.8,15.9H121.2z M121.2,431l0.5-2.7h10.9l-0.5,2.7H121.2z M122.3,424.4l0.5-2.7h8.9
		l-0.5,2.7H122.3z M123.5,417.8l0.5-2.7h10.9l-0.5,2.7H123.5z"/>
	<path class="st68" d="M134.7,431l2.8-15.9h3l-2.8,15.9H134.7z M136.2,426.3l0.4-2.8h1.3c2.3,0,4-0.3,5.2-0.9s1.8-1.5,1.8-2.8
		c0-0.7-0.3-1.2-0.9-1.6s-1.5-0.5-2.6-0.5c-1.7,0-3,0.1-4.1,0.2l0.4-2.8c1-0.1,2.3-0.2,3.9-0.2c2.1,0,3.7,0.4,4.8,1.2
		c1.1,0.8,1.6,2,1.6,3.6c0,2.2-0.9,3.8-2.6,5s-4.4,1.7-7.8,1.7h-1.4L136.2,426.3L136.2,426.3z M143,431l-2.2-7.1h3.2l2.4,7.1H143z"
		/>
	<path class="st68" d="M147.5,431l7.4-16h3.7c0.2,1.1,0.3,2.1,0.5,3.2s0.3,2.1,0.4,3.2s0.2,2.1,0.3,3.2s0.2,2.1,0.3,3.2
		s0.2,2.1,0.2,3.2h-3c0-0.8-0.1-1.7-0.1-2.5c-0.1-0.8-0.1-1.7-0.2-2.5c-0.1-0.8-0.1-1.7-0.2-2.5c-0.1-0.8-0.1-1.7-0.2-2.5
		c-0.1-0.8-0.2-1.7-0.2-2.5H156l-5.5,12.5L147.5,431L147.5,431z M150.4,428l0.4-2.7h8.1l-0.4,2.7H150.4z"/>
	<path class="st68" d="M162.6,431l2.8-15.9h3l-2.8,15.9H162.6z M164,427.3l0.4-2.8h1.3c2.3,0,4-0.4,5.2-1.1s1.8-1.8,1.8-3.2
		c0-0.8-0.3-1.5-0.9-1.9c-0.6-0.4-1.6-0.7-2.8-0.7c-1.6,0-2.9,0.1-3.9,0.2l0.4-2.8c0.9-0.1,2-0.2,3.4-0.2c2.3,0,4,0.4,5.2,1.3
		s1.8,2.1,1.8,3.8c0,2.4-0.9,4.3-2.6,5.5s-4.4,1.9-7.8,1.9L164,427.3L164,427.3z"/>
	<path class="st68" d="M176.4,431l0.5-2.7H187l-0.5,2.7H176.4z M178.8,417.8l0.5-2.7h10.1l-0.5,2.7H178.8z M180,431l2.8-15.9h3
		L183,431H180z"/>
	<path class="st68" d="M188.9,431l7.4-16h3.7c0.2,1.1,0.3,2.1,0.5,3.2s0.3,2.1,0.4,3.2s0.2,2.1,0.3,3.2s0.2,2.1,0.3,3.2
		s0.2,2.1,0.2,3.2h-3c0-0.8-0.1-1.7-0.1-2.5c-0.1-0.8-0.1-1.7-0.2-2.5c-0.1-0.8-0.1-1.7-0.2-2.5c-0.1-0.8-0.1-1.7-0.2-2.5
		c-0.1-0.8-0.2-1.7-0.2-2.5h-0.4l-5.5,12.5L188.9,431L188.9,431z M191.8,428l0.4-2.7h8.1l-0.4,2.7H191.8z"/>
	<path class="st68" d="M217.8,431l0.5-2.7h10.1l-0.5,2.7H217.8z M220.2,417.8l0.5-2.7h10.1l-0.5,2.7H220.2z M221.4,431l2.8-15.9h3
		l-2.8,15.9H221.4z"/>
	<path class="st68" d="M231.4,431l2.8-15.9h3l-2.8,15.9H231.4z M237.7,431l-0.9-12.1h-1.3l0.7-3.8h2.1l0.9,12.1h0.8l-0.7,3.8H237.7z
		 M239,431l2.8-15.9h3L242,431H239z"/>
	<path class="st68" d="M247,417.8l0.5-2.7h11.6l-0.5,2.7H247z M249,431l2.8-15.9h3L252,431H249z"/>
	<path class="st68" d="M259.1,431l2.8-15.9h3l-2.8,15.9H259.1z M259.1,431l0.5-2.7h10.9L270,431H259.1z M260.3,424.4l0.5-2.7h8.9
		l-0.5,2.7H260.3z M261.5,417.8l0.5-2.7h10.9l-0.5,2.7H261.5z"/>
	<path class="st68" d="M272.8,431l2.8-15.9h3l-2.8,15.9H272.8z M279.1,431l-0.9-12.1H277l0.7-3.8h2.1l0.9,12.1h0.8l-0.7,3.8H279.1z
		 M280.4,431l2.8-15.9h3l-2.8,15.9H280.4z"/>
	<path class="st68" d="M291.4,431.2c-1.9,0-3.6-0.3-4.9-1l0.7-2.8c1.5,0.6,3,1,4.4,1c1.1,0,1.9-0.1,2.4-0.4s0.8-0.7,0.8-1.3
		c0-0.3-0.1-0.5-0.2-0.7s-0.4-0.4-0.8-0.6l-3.3-2c-0.7-0.4-1.2-1-1.5-1.6s-0.4-1.3-0.4-1.9c0-1.6,0.5-2.9,1.4-3.7
		c1-0.8,2.3-1.3,4.1-1.3c2.1,0,3.8,0.6,5,1.8l-1.6,2.5c-0.6-0.5-1.1-0.8-1.7-1.1c-0.6-0.2-1.2-0.4-1.8-0.4c-0.8,0-1.3,0.1-1.7,0.4
		c-0.4,0.3-0.6,0.7-0.6,1.2c0,0.3,0.1,0.7,0.3,0.9s0.5,0.6,0.8,0.8l3,1.8c0.8,0.5,1.3,1,1.6,1.5c0.3,0.6,0.4,1.2,0.4,1.9
		c0,1.6-0.6,2.9-1.7,3.7C295.2,430.8,293.6,431.2,291.4,431.2z"/>
	<path class="st68" d="M300.6,431l0.5-2.7h10.1l-0.5,2.7H300.6z M303,417.8l0.5-2.7h10.1l-0.5,2.7H303z M304.2,431l2.8-15.9h3
		l-2.8,15.9H304.2z"/>
	<path class="st68" d="M317,431l-1.2-15.9l2.9-0.1l0.8,13.4h0.2c1.3-1.8,2.4-3.8,3.4-6s1.8-4.7,2.6-7.3h3c-0.9,3.2-2,6.1-3.2,8.8
		c-1.3,2.7-2.8,5.1-4.6,7.1H317z"/>
	<path class="st68" d="M326.8,431l7.4-16h3.7c0.2,1.1,0.3,2.1,0.5,3.2s0.3,2.1,0.4,3.2s0.2,2.1,0.3,3.2c0.1,1.1,0.2,2.1,0.3,3.2
		s0.2,2.1,0.2,3.2h-3c0-0.8-0.1-1.7-0.1-2.5c-0.1-0.8-0.1-1.7-0.2-2.5s-0.1-1.7-0.2-2.5s-0.1-1.7-0.2-2.5s-0.2-1.7-0.2-2.5h-0.4
		l-5.5,12.5L326.8,431L326.8,431z M329.7,428l0.4-2.7h8.1l-0.4,2.7H329.7z"/>
</g>
<g>
	<g>
		<path class="st296" d="M201.1,627.4c-1.2,0-2.2-0.2-3.1-0.6c-0.8-0.4-1.4-1-1.8-1.9c-0.4-0.8-0.6-1.9-0.6-3.1
			c0-1.4,0.2-2.7,0.6-3.8c0.4-1.1,1-2.1,1.7-3c0.7-0.8,1.6-1.5,2.7-1.9c1-0.5,2.2-0.7,3.4-0.7c1.6,0,2.9,0.5,3.7,1.4l-1.6,2.3
			c-0.7-0.8-1.5-1.1-2.5-1.1s-1.9,0.3-2.7,0.9c-0.8,0.6-1.4,1.4-1.9,2.4s-0.7,2.2-0.7,3.5c0,0.7,0.1,1.2,0.4,1.7
			c0.2,0.5,0.6,0.8,1.1,1s1.1,0.3,1.9,0.3c1.2,0,2.4-0.2,3.6-0.6l0.1,2.5C204.1,627.2,202.6,627.4,201.1,627.4z"/>
		<path class="st296" d="M207.5,627.2l2.6-14.6h2.7l-2.6,14.6H207.5z M207.5,627.2l0.5-2.5h10l-0.4,2.5H207.5z M208.6,621.2l0.4-2.5
			h8.1l-0.4,2.5H208.6z M209.6,615.1l0.4-2.5h10l-0.4,2.5H209.6z"/>
		<path class="st296" d="M219.7,627.2l2.6-14.6h2.7l-2.6,14.6H219.7z M225.4,627.2l-0.8-11.1h-1.1l0.7-3.5h1.9l0.8,11.1h0.7
			l-0.6,3.5H225.4z M226.6,627.2l2.6-14.6h2.7l-2.6,14.6H226.6z"/>
		<path class="st296" d="M233.6,615.1l0.4-2.5h10.6l-0.4,2.5H233.6z M235.4,627.2l2.6-14.6h2.7l-2.6,14.6H235.4z"/>
		<path class="st296" d="M244.2,627.2l2.6-14.6h2.7l-2.6,14.6H244.2z M245.6,622.9l0.3-2.6h1.1c2.1,0,3.7-0.3,4.7-0.9
			c1.1-0.6,1.6-1.4,1.6-2.5c0-0.6-0.3-1.1-0.8-1.5s-1.3-0.5-2.4-0.5c-1.5,0-2.8,0.1-3.7,0.2l0.3-2.6c0.9-0.1,2.1-0.2,3.5-0.2
			c1.9,0,3.4,0.4,4.4,1.1c1,0.7,1.5,1.8,1.5,3.3c0,2-0.8,3.5-2.4,4.5s-4,1.5-7.1,1.5h-1L245.6,622.9L245.6,622.9z M251.8,627.2
			l-2-6.5h2.9l2.2,6.5H251.8z"/>
		<path class="st296" d="M255.6,627.2l6.8-14.6h3.4c0.2,1,0.3,1.9,0.4,2.9s0.3,1.9,0.4,2.9s0.2,1.9,0.3,2.9c0.1,1,0.2,1.9,0.3,2.9
			s0.2,1.9,0.2,2.9h-2.8c0-0.8-0.1-1.5-0.1-2.3s-0.1-1.5-0.2-2.3s-0.1-1.5-0.2-2.3s-0.1-1.5-0.2-2.3s-0.1-1.5-0.2-2.3h-0.3l-5,11.4
			h-2.8L255.6,627.2L255.6,627.2z M258.2,624.4l0.3-2.5h7.4l-0.3,2.5H258.2z"/>
		<path class="st296" d="M269,627.2l2.6-14.6h2.7l-2.6,14.6H269z M269,627.2l0.4-2.5h10l-0.4,2.5H269z"/>
		<path class="st296" d="M293.4,627.2l2.6-14.6h2.7l-2.5,14.6H293.4z M295.9,627.2l0.3-2.6h0.5c1.2,0,2.2-0.2,3.1-0.7s1.5-1.2,2-2.1
			c0.5-0.9,0.7-2,0.7-3.2c0-1.1-0.4-2-1.1-2.7c-0.7-0.6-1.8-1-3.1-1c-0.7,0-1.4,0.1-2,0.2l-0.2-2.6c0.8-0.1,1.6-0.2,2.5-0.2
			c2.2,0,3.8,0.5,5,1.6s1.8,2.5,1.8,4.4c0,1.8-0.4,3.4-1.1,4.7s-1.7,2.3-3.1,3c-1.3,0.7-3,1-4.8,1h-0.5L295.9,627.2L295.9,627.2z"/>
		<path class="st296" d="M306,627.2l2.6-14.6h2.7l-2.6,14.6H306z M306,627.2l0.5-2.5h10l-0.4,2.5H306z M307,621.2l0.4-2.5h8.1
			l-0.4,2.5H307z M308.1,615.1l0.4-2.5h10l-0.4,2.5H308.1z"/>
		<path class="st296" d="M330.6,627.2l2.6-14.6h2.7l-2.6,14.6H330.6z M330.6,627.2l0.5-2.5h10l-0.4,2.5H330.6z M331.6,621.2l0.4-2.5
			h8.1l-0.4,2.5H331.6z M332.7,615.1l0.4-2.5h10l-0.4,2.5H332.7z"/>
		<path class="st296" d="M342.5,627.2l2.6-14.6h2.7l-2.6,14.6H342.5z M347.5,622.1l0.1-6.9H347l0.5-2.6h1.5l-0.1,6.6h0.1l-0.4,2.9
			H347.5z M347.9,622.1l0.9-2.9h0.1l2.3-6.6h1.6l-0.5,2.6h-0.7l-2.4,6.9H347.9z M350,627.2l2.6-14.6h2.6l-2.6,14.6H350z"/>
		<path class="st296" d="M355.2,627.2l2.6-14.6h2.7l-2.6,14.6H355.2z M355.2,627.2l0.5-2.5h10l-0.4,2.5H355.2z M356.2,621.2l0.4-2.5
			h8.1l-0.4,2.5H356.2z M357.3,615.1l0.4-2.5h10l-0.4,2.5H357.3z"/>
		<path class="st296" d="M367.3,627.2l2.6-14.6h2.7l-2.6,14.6H367.3z M368.6,622.9l0.3-2.6h1.1c2.1,0,3.7-0.3,4.7-0.9
			c1.1-0.6,1.6-1.4,1.6-2.5c0-0.6-0.3-1.1-0.8-1.5s-1.3-0.5-2.4-0.5c-1.5,0-2.8,0.1-3.7,0.2l0.3-2.6c0.9-0.1,2.1-0.2,3.5-0.2
			c1.9,0,3.4,0.4,4.4,1.1c1,0.7,1.5,1.8,1.5,3.3c0,2-0.8,3.5-2.4,4.5s-4,1.5-7.1,1.5h-1V622.9z M374.9,627.2l-2-6.5h2.9l2.2,6.5
			H374.9z"/>
		<path class="st296" d="M385.4,627.4c-1.7,0-3-0.5-4-1.4c-1-1-1.4-2.3-1.4-4c0-1.4,0.2-2.6,0.6-3.8s0.9-2.2,1.7-3s1.6-1.5,2.6-2
			s2.2-0.7,3.5-0.7c1,0,1.9,0.1,2.5,0.4c0.6,0.3,1.1,0.6,1.5,1l-1.6,2.3c-0.3-0.3-0.7-0.6-1.1-0.8s-1-0.3-1.6-0.3
			c-0.7,0-1.4,0.2-2.1,0.5s-1.2,0.8-1.7,1.4c-0.5,0.6-0.8,1.3-1.1,2.1c-0.3,0.8-0.4,1.7-0.4,2.7c0,2.1,1,3.1,3,3.1
			c0.7,0,1.4-0.1,2-0.2c0.6-0.1,1.1-0.2,1.5-0.3l0.6,2.5c-0.3,0.1-0.9,0.2-1.8,0.4C387.3,627.3,386.4,627.4,385.4,627.4z
			 M385.7,622.2l0.4-2.5h5l-0.4,2.5H385.7z M387.2,626.8l1.3-7.1h2.7l-1.3,7.1H387.2z"/>
		<path class="st296" d="M392.1,627.2l2.6-14.6h2.7l-2.6,14.6H392.1z M392.1,627.2l0.5-2.5h10l-0.4,2.5H392.1z M393.2,621.2l0.4-2.5
			h8.1l-0.4,2.5H393.2z M394.2,615.1l0.4-2.5h10l-0.4,2.5H394.2z"/>
		<path class="st296" d="M404.3,627.2l2.6-14.6h2.7l-2.6,14.6H404.3z M410,627.2l-0.8-11.1h-1.1l0.7-3.5h1.9l0.8,11.1h0.7l-0.6,3.5
			H410z M411.2,627.2l2.6-14.6h2.7l-2.6,14.6H411.2z"/>
		<path class="st296" d="M422.6,627.4c-1.2,0-2.2-0.2-3.1-0.6c-0.8-0.4-1.4-1-1.8-1.9c-0.4-0.8-0.6-1.9-0.6-3.1
			c0-1.4,0.2-2.7,0.6-3.8s1-2.1,1.7-3c0.7-0.8,1.6-1.5,2.7-1.9c1-0.5,2.2-0.7,3.4-0.7c1.6,0,2.9,0.5,3.7,1.4l-1.6,2.3
			c-0.7-0.8-1.5-1.1-2.5-1.1s-1.9,0.3-2.7,0.9c-0.8,0.6-1.4,1.4-1.9,2.4s-0.7,2.2-0.7,3.5c0,0.7,0.1,1.2,0.4,1.7
			c0.2,0.5,0.6,0.8,1.1,1s1.1,0.3,1.9,0.3c1.2,0,2.4-0.2,3.6-0.6l0.1,2.5C425.5,627.2,424.1,627.4,422.6,627.4z"/>
		<path class="st296" d="M429.1,627.2l0.4-2.5h9.2l-0.4,2.5H429.1z M431.2,615.1l0.4-2.5h9.2l-0.4,2.5H431.2z M432.3,627.2l2.6-14.6
			h2.7l-2.6,14.6H432.3z"/>
		<path class="st296" d="M440.1,627.2l6.8-14.6h3.4c0.2,1,0.3,1.9,0.4,2.9s0.3,1.9,0.4,2.9s0.2,1.9,0.3,2.9c0.1,1,0.2,1.9,0.3,2.9
			s0.2,1.9,0.2,2.9h-2.8c0-0.8-0.1-1.5-0.1-2.3s-0.1-1.5-0.2-2.3s-0.1-1.5-0.2-2.3s-0.1-1.5-0.2-2.3s-0.1-1.5-0.2-2.3h-0.3l-5,11.4
			h-2.8L440.1,627.2L440.1,627.2z M442.8,624.4l0.3-2.5h7.4l-0.3,2.5H442.8z"/>
		<path class="st296" d="M457.9,627.4c-1.8,0-3.3-0.3-4.5-0.9l0.6-2.6c1.4,0.6,2.8,0.9,4,0.9c1,0,1.7-0.1,2.2-0.4
			c0.5-0.3,0.7-0.7,0.7-1.2c0-0.3-0.1-0.5-0.2-0.7s-0.4-0.4-0.7-0.6l-3-1.8c-0.6-0.4-1.1-0.9-1.3-1.5c-0.3-0.6-0.4-1.2-0.4-1.7
			c0-1.5,0.4-2.6,1.3-3.4c0.9-0.8,2.1-1.2,3.8-1.2c1.9,0,3.5,0.5,4.6,1.6l-1.5,2.3c-0.5-0.4-1-0.7-1.6-1c-0.5-0.2-1.1-0.3-1.6-0.3
			c-0.7,0-1.2,0.1-1.6,0.4c-0.4,0.2-0.5,0.6-0.5,1.1c0,0.3,0.1,0.6,0.3,0.9s0.4,0.5,0.8,0.7l2.7,1.7c0.7,0.4,1.2,0.9,1.4,1.4
			c0.3,0.5,0.4,1.1,0.4,1.7c0,1.5-0.5,2.6-1.5,3.4C461.3,627,459.9,627.4,457.9,627.4z"/>
		<path class="st296" d="M477.9,627.2l2.6-14.6h2.7l-2.6,14.6H477.9z M482.9,622.1l0.1-6.9h-0.7l0.5-2.6h1.5l-0.1,6.6h0.1l-0.4,2.9
			H482.9z M483.3,622.1l0.9-2.9h0.1l2.3-6.6h1.6l-0.5,2.6H487l-2.4,6.9H483.3z M485.3,627.2l2.6-14.6h2.6l-2.6,14.6H485.3z"/>
		<path class="st296" d="M490.5,627.2l2.6-14.6h2.7l-2.6,14.6H490.5z M490.5,627.2l0.5-2.5h10l-0.4,2.5H490.5z M491.6,621.2l0.4-2.5
			h8.1l-0.4,2.5H491.6z M492.6,615.1l0.4-2.5h10l-0.4,2.5H492.6z"/>
		<path class="st296" d="M502.6,627.2l2.6-14.6h2.7l-2.5,14.6H502.6z M505.1,627.2l0.3-2.6h0.5c1.2,0,2.2-0.2,3.1-0.7s1.5-1.2,2-2.1
			c0.5-0.9,0.7-2,0.7-3.2c0-1.1-0.4-2-1.1-2.7c-0.7-0.6-1.8-1-3.1-1c-0.7,0-1.4,0.1-2,0.2l-0.2-2.6c0.8-0.1,1.6-0.2,2.5-0.2
			c2.2,0,3.8,0.5,5,1.6s1.8,2.5,1.8,4.4c0,1.8-0.4,3.4-1.1,4.7c-0.7,1.3-1.7,2.3-3.1,3c-1.3,0.7-3,1-4.8,1h-0.5V627.2z"/>
		<path class="st296" d="M515.2,627.2l0.4-2.5h9.2l-0.4,2.5H515.2z M517.3,615.1l0.4-2.5h9.2l-0.4,2.5H517.3z M518.4,627.2l2.6-14.6
			h2.7l-2.6,14.6H518.4z"/>
		<path class="st296" d="M533.3,627.4c-1.2,0-2.2-0.2-3.1-0.6c-0.8-0.4-1.4-1-1.8-1.9c-0.4-0.8-0.6-1.9-0.6-3.1
			c0-1.4,0.2-2.7,0.6-3.8c0.4-1.1,1-2.1,1.7-3c0.7-0.8,1.6-1.5,2.7-1.9c1-0.5,2.2-0.7,3.4-0.7c1.6,0,2.9,0.5,3.7,1.4l-1.6,2.3
			c-0.7-0.8-1.5-1.1-2.5-1.1s-1.9,0.3-2.7,0.9c-0.8,0.6-1.4,1.4-1.9,2.4s-0.7,2.2-0.7,3.5c0,0.7,0.1,1.2,0.4,1.7
			c0.2,0.5,0.6,0.8,1.1,1s1.1,0.3,1.9,0.3c1.2,0,2.4-0.2,3.6-0.6l0.1,2.5C536.3,627.2,534.8,627.4,533.3,627.4z"/>
		<path class="st296" d="M538.6,627.2l6.8-14.6h3.4c0.2,1,0.3,1.9,0.4,2.9s0.3,1.9,0.4,2.9s0.2,1.9,0.3,2.9s0.2,1.9,0.3,2.9
			s0.2,1.9,0.2,2.9h-2.8c0-0.8-0.1-1.5-0.1-2.3s-0.1-1.5-0.2-2.3c-0.1-0.8-0.1-1.5-0.2-2.3c-0.1-0.8-0.1-1.5-0.2-2.3
			s-0.1-1.5-0.2-2.3h-0.3l-5,11.4h-2.8L538.6,627.2L538.6,627.2z M541.2,624.4l0.3-2.5h7.4l-0.3,2.5H541.2z"/>
		<path class="st296" d="M556.3,627.4c-1.8,0-3.3-0.3-4.5-0.9l0.6-2.6c1.4,0.6,2.8,0.9,4,0.9c1,0,1.7-0.1,2.2-0.4
			c0.5-0.3,0.7-0.7,0.7-1.2c0-0.3-0.1-0.5-0.2-0.7c-0.1-0.2-0.4-0.4-0.7-0.6l-3-1.8c-0.6-0.4-1.1-0.9-1.3-1.5
			c-0.3-0.6-0.4-1.2-0.4-1.7c0-1.5,0.4-2.6,1.3-3.4c0.9-0.8,2.1-1.2,3.8-1.2c1.9,0,3.5,0.5,4.6,1.6l-1.5,2.3c-0.5-0.4-1-0.7-1.6-1
			c-0.5-0.2-1.1-0.3-1.6-0.3c-0.7,0-1.2,0.1-1.6,0.4c-0.4,0.2-0.5,0.6-0.5,1.1c0,0.3,0.1,0.6,0.3,0.9s0.4,0.5,0.8,0.7l2.7,1.7
			c0.7,0.4,1.2,0.9,1.4,1.4c0.3,0.5,0.4,1.1,0.4,1.7c0,1.5-0.5,2.6-1.5,3.4C559.8,627,558.3,627.4,556.3,627.4z"/>
	</g>
</g>
<g>
	<path id="path1" class="st297" d="M232.3,573.6l10-55.3c0,0,6.8-19.2,25.1-19.2s52.2-0.3,52.2-0.3l-2.8,18.9l-38.3-0.5
		c0,0-13.7-2.1-17.8,13.4c-4.1,15.5-6.4,37-6.4,37s-0.3,11.3,11.3,11.3c11.6,0,42-0.8,42-0.8s-1.4,18.3-15.3,18.3
		c-13.9,0-37.5-0.1-37.5-0.1S232.3,598.5,232.3,573.6z"/>
	<path id="path6" class="st297" d="M341.5,572.9l0.3-18.4l52.9-24.1c0,0,7.4-2,0.3-10.5
		c-2.1-2.5-36.6-1.3-36.6-1.3s-12.4-1.1-12.4,29.4c0,30.6-3.9,26.8-3.9,26.8l4.2,2.9h62.9c0,0,0.4,19-19,19s-50.6-0.1-50.6-0.1
		s-22.4,0.4-18.2-28c4.2-27.9,8.8-51.4,8.8-51.4s6.7-18.4,27.5-18.4s41.1-0.1,41.1-0.1s22.2,1,20.3,21.6
		c-1.8,20.2-2.7,21.5-2.7,21.5L341.5,572.9z"/>
	<path id="path7" class="st297" d="M475,596.6l21.2,0.3l12-67.5c0,0,0.8-10.2,11.4-10.5
		s11.5-0.1,11.5-0.1s10.1-0.9,9.2,10.2s-11.9,67.8-11.9,67.8s19.3,0.5,23.1-13.9c3.9-14.4,10.9-59.1,10.9-59.1S567.1,499,544,499
		c-23.1,0-32.7-3.9-42.6,10c-1.4,1.9-12.8-5.1-12.8-5.1l-23.9-5.3c0,0-21.5-2.1-28.4,17.9c-6.9,20.1-14.7,80.1-14.7,80.1l20.2,0.3
		l12.4-69.4c0,0,3-9,12.1-9s10.7-0.3,10.7-0.3s9.7,0.4,9.7,9.7S475,596.6,475,596.6z"/>
	<path id="path8" class="st297" d="M457.5,503.5c-0.2-2.1-0.6-3.9-0.6-3.9s38.5-7.6,44.2,9.5C506.9,526.2,457.5,503.5,457.5,503.5
		L457.5,503.5z"/>
</g>
<g>
	<g>
		<path id="path9" class="st298" d="M113.8,614.4l3.5,0.3l22.6-122l-3.5,0.1L113.8,614.4z"/>
		<path id="path10" class="st298" d="M119.3,614.7l3.5,0.3l22.6-122.3l-3.5,0.1L119.3,614.7z"/>
		<path id="path11" class="st298" d="M147.5,492.4h3.5l-22.2,122.7l-3.2-0.1L147.5,492.4z"/>
		<path id="path12" class="st298" d="M196,600.2l3.7-2.8l12.8-68.7l-2.8-4.3L196,600.2z"/>
		<path id="path13" class="st298" d="M153.6,492.4h3.2l-22.6,122.7l-3.3-0.1L153.6,492.4z"/>
		<path id="path14" class="st298" d="M205.3,517.5l2.5,4l-14.7,80.5l-3.5,3.3L205.3,517.5z"/>
		<path id="path15" class="st298" d="M136.8,615.1l2.8,0.1l23.1-122.4l-3.9-0.1L136.8,615.1z"/>
		<path id="path16" class="st298" d="M164.8,493.2l2.9,0.8l-22.1,120.9l-3.2,0.3L164.8,493.2z"/>
		<path id="path17" class="st298" d="M182.8,609.1l3.8-2l17.1-91.6l-2.5-3L182.8,609.1z"/>
		<path id="path18" class="st298" d="M148.1,614.9h2.9l22.1-119.6l-3.4-1L148.1,614.9z"/>
		<path id="path19" class="st298" d="M203.2,593.5l3.8-4l9.3-50.2l-2.4-6.4L203.2,593.5z"/>
		<path id="path20" class="st298" d="M196.1,507.2l2.8,3.5l-17.7,99l-3.8,1.9L196.1,507.2z"/>
		<path id="path21" class="st298" d="M171.1,613.4l3.7-1.4l19.7-105.4l-3.5-3.2L171.1,613.4z"/>
		<path id="path22" class="st298" d="M175.1,495.9l3.4,1.4l-21.6,117.5h-3.4L175.1,495.9z"/>
		<path id="path23" class="st298" d="M180.8,498.2l3.2,1.3l-21.1,115l-3.4,0.1L180.8,498.2z"/>
		<path id="path24" class="st298" d="M185.7,500.4l3,1.8l-19.8,111.3l-3.7,0.8L185.7,500.4z"/>
		<path id="path25" class="st298" d="M217.3,543.9l-7.7,41.2C209.6,585.1,222.3,562.4,217.3,543.9z"/>
	</g>
	<g>
		<path id="path26" class="st297" d="M199.4,581.7l-94.9-55.5l7.1-11.9l26.4,15.4l-0.1-30.7l27.9-0.1l-0.1,31.2l26.8-16.2l14.8,24.3
			l-27.5,15.3l27.2,15.9L199.4,581.7z"/>
		<path id="path27" class="st299" d="M104.8,526l94.9,55.5l-7.1,11.9l-26.4-15.4l0.1,30.7l-27.9,0.1l0.1-31.2l-26.8,16.2l-14.8-24.3
			l27.5-15.3l-27.2-15.9L104.8,526z"/>
	</g>
	<path id="path28" class="st300" d="M150,499.1l3.8,0.1l-0.4,109.2l-3.7-0.1L150,499.1z"/>
	<path id="path29" class="st300" d="M105.1,524.2l-1.8,3.4l95.6,55.6l1.8-3.3L105.1,524.2z"/>
	<path id="path31" class="st300" d="M102.9,579.6l2,3.3l96.3-54.3l-1.9-3.2L102.9,579.6z"/>
</g>
</svg>
