<?xml version="1.0" encoding="UTF-8" standalone="no"?>
<!-- Created with Inkscape (http://www.inkscape.org/) -->

<svg
   version="1.1"
   id="svg1"
   width="228.07529"
   height="230.43234"
   viewBox="0 0 228.07529 230.43234"
   sodipodi:docname="Logo cem.svg"
   inkscape:export-filename="..\Documentos\cemweb\src\assets\sheets\letrasCem.svg"
   inkscape:export-xdpi="96"
   inkscape:export-ydpi="96"
   inkscape:version="1.3.2 (091e20e, 2023-11-25, custom)"
   xmlns:inkscape="http://www.inkscape.org/namespaces/inkscape"
   xmlns:sodipodi="http://sodipodi.sourceforge.net/DTD/sodipodi-0.dtd"
   xmlns="http://www.w3.org/2000/svg"
   xmlns:svg="http://www.w3.org/2000/svg">
  <defs
     id="defs1" />
  <sodipodi:namedview
     id="namedview1"
     pagecolor="#505050"
     bordercolor="#ffffff"
     borderopacity="1"
     inkscape:showpageshadow="0"
     inkscape:pageopacity="0"
     inkscape:pagecheckerboard="1"
     inkscape:deskcolor="#505050"
     showgrid="false"
     inkscape:export-bgcolor="#ffffff00"
     inkscape:zoom="1.9788889"
     inkscape:cx="218.80966"
     inkscape:cy="152.86356"
     inkscape:window-width="1920"
     inkscape:window-height="1046"
     inkscape:window-x="-11"
     inkscape:window-y="-11"
     inkscape:window-maximized="1"
     inkscape:current-layer="layer1" />
  <g
     inkscape:groupmode="layer"
     id="layer1"
     inkscape:label="trazado"
     transform="matrix(1.3233447,0,0,1.3233447,-274.94135,-46.441694)"
     style="display:none">
    <path
       style="display:inline;fill:#3d5280;fill-opacity:1"
       d="m 133.7872,135.05053 9.98035,-55.334078 c 0,0 6.82201,-19.202695 25.14037,-19.202695 18.31836,0 52.17574,-0.252667 52.17574,-0.252667 l -2.77934,18.950028 -38.27905,-0.505334 c 0,0 -13.66427,-2.092033 -17.81303,13.391353 -4.14876,15.483383 -6.44301,37.015723 -6.44301,37.015723 0,0 -0.25267,11.30685 11.30685,11.30685 11.55952,0 42.0059,-0.82117 42.0059,-0.82117 0,0 -1.38967,18.31836 -15.28636,18.31836 -13.89669,0 -37.52105,-0.12633 -37.52105,-0.12633 0,0 -22.48737,2.14767 -22.48737,-22.74004 z"
       id="path1" />
    <path
       style="display:inline;opacity:1;fill:#3d5280;fill-opacity:1"
       d="m 242.93936,134.29253 0.25267,-18.4447 52.93374,-24.129694 c 0,0 7.42671,-2.045605 0.25267,-10.485682 -2.14766,-2.52667 -36.63672,-1.263335 -36.63672,-1.263335 0,0 -12.38068,-1.137002 -12.38068,29.435711 0,30.57271 -3.91635,26.78271 -3.91635,26.78271 l 4.16901,2.90567 h 62.9141 c 0,0 0.379,19.01319 -19.0132,19.01319 -19.3922,0 -50.59657,-0.0632 -50.59657,-0.0632 0,0 -22.42291,0.36831 -18.19203,-28.04605 4.15058,-27.87508 8.84334,-51.41774 8.84334,-51.41774 0,0 6.69568,-18.444694 27.54071,-18.444694 20.84503,0 41.0584,-0.126333 41.0584,-0.126333 0,0 22.18036,1.033722 20.33969,21.603032 -1.80766,20.200485 -2.653,21.476695 -2.653,21.476695 z"
       id="path6"
       sodipodi:nodetypes="cccscscccscscscscc" />
    <path
       style="opacity:1;fill:#3d5280;fill-opacity:1"
       d="m 376.47389,158.04324 21.22403,0.25267 12.00169,-67.462109 c 0,0 0.758,-10.233015 11.37002,-10.485682 10.61201,-0.252667 11.49635,-0.126333 11.49635,-0.126333 0,0 10.10668,-0.884335 9.22234,10.233015 -0.88433,11.117349 -11.87535,67.841109 -11.87535,67.841109 0,0 19.25845,0.5112 23.11904,-13.89669 3.86058,-14.40789 10.86468,-59.124094 10.86468,-59.124094 0,0 4.67434,-24.887703 -18.44469,-24.887703 -23.11904,0 -32.72496,-3.876404 -42.5744,9.980348 -1.35988,1.913159 -12.81683,-5.067128 -12.81683,-5.067128 l -23.94623,-5.292221 c 0,0 -21.47669,-2.14767 -28.42504,17.93936 -6.94834,20.08703 -14.65469,80.095458 -14.65469,80.095458 l 20.21337,0.25267 12.38068,-69.357111 c 0,0 3.03201,-8.96968 12.12802,-8.96968 9.09601,0 10.73835,-0.252668 10.73835,-0.252668 0,0 9.72768,0.379001 9.72768,9.727682 0,9.34868 -11.74902,68.599107 -11.74902,68.599107 z"
       id="path7"
       sodipodi:nodetypes="cccscscscssccscccscsc" />
    <path
       style="opacity:1;fill:#3d5280;fill-opacity:1;stroke-width:1.11651"
       d="m 358.97452,64.943847 c -0.22272,-2.05462 -0.55679,-3.930577 -0.55679,-3.930577 0,0 38.54875,-7.554819 44.24916,9.511236 5.70041,17.066054 -43.69237,-5.580659 -43.69237,-5.580659 z"
       id="path8" />
    <text
       xml:space="preserve"
       style="opacity:1;fill:#db833c;fill-opacity:0.976471"
       x="132.11835"
       y="177.7894"
       id="text8"><tspan
         sodipodi:role="line"
         id="tspan8"
         x="132.11835"
         y="177.7894"
         style="font-style:italic;font-variant:normal;font-weight:bold;font-stretch:condensed;font-size:14.6667px;font-family:Sans;-inkscape-font-specification:'Sans, Bold Italic Condensed';font-variant-ligatures:normal;font-variant-caps:normal;font-variant-numeric:normal;font-variant-east-asian:normal">CENTRAL DE  EMERGENCIAS MEDICAS</tspan></text>
  </g>
  <g
     inkscape:groupmode="layer"
     id="layer2"
     inkscape:label="logo"
     style="display:inline"
     transform="matrix(1.8765432,0,0,1.8765432,-7.5862457,-110.00062)">
    <g
       id="g25"
       inkscape:label="lineas naranjas"
       style="display:inline">
      <path
         style="opacity:1;fill:#db833c;fill-opacity:0.976471"
         d="m 20.971365,180.65694 3.537338,0.25266 22.6137,-122.038179 -3.537338,0.126333 z"
         id="path9" />
      <path
         style="opacity:1;fill:#db833c;fill-opacity:0.976471"
         d="m 26.403706,180.9096 3.537339,0.25267 22.6137,-122.290849 -3.537339,0.126333 z"
         id="path10" />
      <path
         style="opacity:1;fill:#db833c;fill-opacity:0.976471"
         d="M 54.576081,58.618754 H 58.11342 L 35.87872,181.2886 32.720382,181.16227 Z"
         id="path11"
         sodipodi:nodetypes="ccccc" />
      <path
         style="opacity:1;fill:#db833c;fill-opacity:0.976471"
         d="m 103.08815,166.38125 3.66368,-2.77934 12.75968,-68.725436 -2.77934,-4.295339 z"
         id="path12" />
      <path
         style="opacity:1;fill:#db833c;fill-opacity:0.976471"
         d="m 60.766424,58.618754 h 3.158338 L 41.311062,181.2886 38.02639,181.16227 Z"
         id="path13"
         sodipodi:nodetypes="ccccc" />
      <path
         style="opacity:1;fill:#db833c;fill-opacity:0.976471"
         d="m 112.43683,83.759125 2.52667,4.042672 -14.65468,80.474453 -3.537343,3.28467 z"
         id="path14" />
      <path
         style="opacity:1;fill:#db833c;fill-opacity:0.976471"
         d="m 43.964065,181.2886 2.779338,0.12634 23.119034,-122.417186 -3.916339,-0.126333 z"
         id="path15" />
      <path
         style="opacity:1;fill:#db833c;fill-opacity:0.976471"
         d="M 71.883774,59.376755 74.789445,60.134756 52.681078,181.03594 49.52274,181.2886 Z"
         id="path16"
         sodipodi:nodetypes="ccccc" />
      <path
         style="opacity:1;fill:#db833c;fill-opacity:0.976471"
         d="m 89.949467,175.35093 3.790006,-2.02134 17.055027,-91.591802 -2.52667,-3.032004 z"
         id="path17" />
      <path
         style="opacity:1;fill:#db833c;fill-opacity:0.976471"
         d="M 55.207749,181.16227 H 58.11342 L 80.221786,61.524425 76.810781,60.513757 Z"
         id="path18" />
      <path
         style="opacity:1;fill:#db833c;fill-opacity:0.976471"
         d="m 110.28916,159.68557 3.79001,-4.04267 9.34868,-50.15441 -2.40034,-6.443009 z"
         id="path19" />
      <path
         style="opacity:1;fill:#db833c;fill-opacity:0.976471"
         d="m 103.21449,73.399776 2.77933,3.537338 -17.686689,99.045486 -3.790005,1.895 z"
         id="path20" />
      <path
         style="opacity:1;fill:#db833c;fill-opacity:0.976471"
         d="M 78.20045,179.64627 81.864122,178.2566 101.57215,72.894442 98.034813,69.736104 Z"
         id="path21" />
      <path
         style="opacity:1;fill:#db833c;fill-opacity:0.976471"
         d="M 82.243122,62.156092 85.654127,63.545761 64.051095,181.03594 H 60.64009 Z"
         id="path22" />
      <path
         style="opacity:1;fill:#db833c;fill-opacity:0.976471"
         d="m 87.928131,64.430096 3.158338,1.263335 -21.097698,114.963509 -3.411005,0.12633 z"
         id="path23" />
      <path
         style="opacity:1;fill:#db833c;fill-opacity:0.976471"
         d="m 92.855138,66.577766 3.032005,1.768669 -19.834363,111.299835 -3.663672,0.758 z"
         id="path24" />
      <path
         style="opacity:1;fill:#db833c;fill-opacity:0.976471"
         d="m 124.43851,110.16283 -7.70634,41.18473 c 0,0 12.64469,-22.75457 7.70634,-41.18473 z"
         id="path25"
         sodipodi:nodetypes="ccc" />
    </g>
    <g
       id="g27"
       inkscape:label="cruz"
       style="display:inline">
      <path
         style="display:inline;opacity:1;fill:#3d5280;fill-opacity:1;stroke-width:0.999984"
         d="m 106.49916,147.93656 -94.876477,-55.460396 7.07468,-11.87534 26.40371,15.41265 -0.12633,-30.698987 27.91971,-0.12639 -0.12634,31.204377 26.782707,-16.17067 14.78102,24.256026 -27.540707,15.28639 27.161707,15.91799 z"
         id="path26" />
      <path
         style="display:inline;opacity:1;fill:#446baf;fill-opacity:1;stroke-width:0.999984"
         d="m 11.875351,92.223473 94.876469,55.460397 -7.074674,11.87534 -26.40371,-15.41265 0.12633,30.69898 -27.919715,0.12639 0.12634,-31.20437 -26.7827,16.17067 L 4.0426705,135.6822 31.583371,120.39582 4.4216705,104.47783 Z"
         id="path27" />
    </g>
    <path
       style="opacity:1;fill:#f9f9f9;fill-opacity:0.992157"
       d="m 57.102752,65.314431 3.790005,0.126333 -0.379,109.152166 -3.663672,-0.12634 z"
       id="path28" />
    <path
       style="opacity:1;fill:#f9f9f9;fill-opacity:0.992157;stroke-width:1.01309"
       d="m 12.270905,90.454537 -1.830169,3.377657 95.618224,55.552236 1.76548,-3.26722 z"
       id="path29" />
    <path
       style="opacity:1;fill:#f9f9f9;fill-opacity:0.992157;stroke-width:1.01309"
       d="m 9.9951907,145.78177 1.9855453,3.28872 96.327134,-54.313705 -1.92307,-3.177011 z"
       id="path31" />
  </g>
</svg>
