<svg id="Layer_1" data-name="Layer 1" xmlns="http://www.w3.org/2000/svg" viewBox="0 0 2028.28 742.15"><title>divisor</title><rect x="1538.02" y="867.6" width="101.11" height="100.85" transform="translate(-188.37 139.41) rotate(-20.75)" style="fill:#fff"/><rect x="-18.5" y="893.5" width="106" height="106" transform="translate(-299.28 -409.37) rotate(-20.75)" style="fill:#ffc800"/><rect x="499.22" y="678.95" width="75.79" height="76.45" transform="matrix(0.94, -0.35, 0.35, 0.94, -185.42, -246.17)" style="fill:#ffc800"/><rect x="1370.07" y="876.38" width="229.71" height="229.71" transform="translate(-221.04 107.44) rotate(-20.75)" style="fill:#ffc800"/><rect x="73.33" y="903.27" width="161.68" height="161.68" transform="translate(-304.84 -364.53) rotate(-20.75)" style="fill:#ffc800"/><rect x="688" y="837" width="106" height="106" transform="translate(-233.43 -162.72) rotate(-20.75)" style="fill:#ffc800"/><rect x="10.89" y="969.64" width="73.43" height="73.06" transform="translate(-813.72 61.32) rotate(-60)" style="fill:#015e01"/><rect x="-11.21" y="756.14" width="145.19" height="145.19" transform="translate(-255.81 -407.49) rotate(-20.75)" style="fill:#015e01"/><rect x="63.23" y="875.36" width="52.4" height="52.4" transform="translate(-613.22 -109.07) rotate(-48.72)" style="fill:#ffc800"/><rect x="162" y="987" width="106" height="106" transform="translate(-320.7 -339.35) rotate(-20.75)" style="fill:#015e01"/><rect x="1129" y="758" width="106" height="106" transform="translate(-176.83 -11.59) rotate(-20.75)" style="fill:#015e01"/><rect x="365" y="829" width="106" height="106" transform="translate(-251.55 -277.68) rotate(-20.75)" style="fill:#015e01"/><rect x="1037" y="931" width="106" height="106" transform="translate(-244.09 -32.96) rotate(-20.75)" style="fill:#015e01"/><rect x="223.85" y="902.47" width="206.93" height="206.93" transform="translate(-301.34 -301.77) rotate(-20.75)" style="fill:#015e01"/><rect x="398" y="917" width="106" height="106" transform="translate(-552.38 225.32) rotate(-50.9)" style="fill:#ffc800"/><rect x="125" y="807" width="106" height="106" transform="translate(-259.32 -364.14) rotate(-20.75)" style="fill:#015e01"/><rect x="201.68" y="743.38" width="188.66" height="188.66" transform="translate(-557.01 301.15) rotate(-67.08)" style="fill:#ffc800"/><rect x="721.72" y="698.71" width="322.03" height="322.03" transform="translate(-213.5 -114.46) rotate(-20.75)" style="fill:#015e01"/><rect x="473" y="987" width="106" height="106" transform="translate(-300.52 -229.16) rotate(-20.75)" style="fill:#015e01"/><rect x="494" y="910" width="106" height="106" transform="translate(-271.88 -226.72) rotate(-20.75)" style="fill:#ffc800"/><rect x="470.03" y="851.46" width="70.79" height="70.79" transform="translate(-474.4 524.06) rotate(-67.08)" style="fill:#015e01"/><rect x="398" y="769" width="106" height="106" transform="translate(-228.15 -269.88) rotate(-20.75)" style="fill:#015e01"/><rect x="620" y="739" width="106" height="106" transform="translate(-203.12 -193.17) rotate(-20.75)" style="fill:#ffc800"/><rect x="603.81" y="917.13" width="187.59" height="188.08" transform="translate(-488.02 676.59) rotate(-62.34)" style="fill:#ffc800"/><rect x="522.21" y="782.37" width="133.8" height="133.6" transform="translate(-228.82 -219.18) rotate(-20.75)" style="fill:#015e01"/><rect x="835.41" y="943" width="151.62" height="151.79" transform="translate(-268.05 -94.04) rotate(-20.75)" style="fill:#ffc800"/><rect x="973.51" y="963.38" width="83.99" height="84.72" transform="translate(-359.15 765.44) rotate(-54.5)" style="fill:#ffc800"/><rect x="956.96" y="709.85" width="116.3" height="115.64" transform="translate(-186.98 588.38) rotate(-50.9)" style="fill:#015e01"/><rect x="1773.81" y="673.13" width="187.59" height="188.08" transform="translate(354.9 1582.13) rotate(-62.34)" style="fill:#015e01"/><rect x="1694.23" y="730.04" width="144.98" height="144.67" transform="translate(269.67 1511.64) rotate(-62.34)" style="fill:#ffc800"/><rect x="1297.75" y="874.82" width="102.56" height="101.77" transform="translate(-248.28 315.54) rotate(-30)" style="fill:#015e01"/><rect x="1027.38" y="789.18" width="139.74" height="140.1" transform="translate(-139.34 949.15) rotate(-62.34)" style="fill:#ffc800"/><rect x="1066.37" y="1013.24" width="89.03" height="89.11" transform="translate(-246.25 -71.86) rotate(-18.66)" style="fill:#ffc800"/><rect x="1174.57" y="1000.37" width="188.08" height="187.59" transform="translate(-365.8 457.83) rotate(-35.53)" style="fill:#015e01"/><rect x="1277.84" y="793.36" width="58.09" height="57.87" transform="translate(5.68 1115.03) rotate(-62.34)" style="fill:#ffc800"/><rect x="1135.62" y="965.41" width="116.08" height="106.79" transform="translate(-229.03 1120.02) rotate(-62.34)" style="fill:#015e01"/><rect x="1141.62" y="887.58" width="61.2" height="61.82" transform="translate(-272.3 614.9) rotate(-45)" style="fill:#015e01"/><rect x="1188.41" y="850.85" width="100.96" height="100.88" transform="translate(-100.72 1097.13) rotate(-62.34)" style="fill:#015e01"/><rect x="1583.34" y="995.71" width="121.31" height="121.58" transform="translate(-21.15 1539.09) rotate(-62.34)" style="fill:#015e01"/><rect x="1230.5" y="797.28" width="71.76" height="71.03" transform="translate(-25.31 1084.79) rotate(-62.34)" style="fill:#ffc800"/><rect x="1321.81" y="717.13" width="187.59" height="188.08" transform="translate(73.78 1205.37) rotate(-62.34)" style="fill:#015e01"/><rect x="1228.89" y="673.66" width="79.99" height="80.26" transform="translate(81.42 1023.25) rotate(-62.34)" style="fill:#ffc800"/><rect x="1502.72" y="725.95" width="81.34" height="80.68" transform="translate(181.98 1294.5) rotate(-62.34)" style="fill:#ffc800"/><rect x="1538.02" y="815.6" width="101.11" height="100.85" transform="translate(-169.95 136.04) rotate(-20.75)" style="fill:#015e01"/><rect x="1475.02" y="773.6" width="101.11" height="100.85" transform="translate(-159.15 110.99) rotate(-20.75)" style="fill:#015e01"/><rect x="1778.02" y="815.6" width="101.11" height="100.85" transform="translate(-154.38 221.07) rotate(-20.75)" style="fill:#015e01"/><rect x="965.02" y="1020.6" width="101.11" height="100.85" transform="translate(-279.75 -53.68) rotate(-20.75)" style="fill:#015e01"/><rect x="1591.02" y="741.6" width="101.11" height="100.85" transform="translate(-140.29 150.02) rotate(-20.75)" style="fill:#015e01"/><rect x="1797.57" y="962.4" width="141.04" height="141.28" transform="translate(-210.99 245.91) rotate(-20.75)" style="fill:#ffc800"/><rect x="1586.02" y="912.6" width="101.11" height="100.85" transform="translate(18.13 1415.83) rotate(-60)" style="fill:#015e01"/><rect x="1793.02" y="940.6" width="101.11" height="100.85" transform="translate(-197.69 234.5) rotate(-20.75)" style="fill:#015e01"/><rect x="1626.68" y="846.92" width="130.82" height="131.25" transform="translate(-179.71 175.73) rotate(-20.75)" style="fill:#015e01"/><rect x="1685.96" y="947.61" width="149.26" height="148.86" transform="translate(-214.07 207.1) rotate(-20.75)" style="fill:#ffc800"/><rect x="1852.44" y="880.93" width="75.56" height="75.92" transform="translate(-169.11 246.34) rotate(-20.75)" style="fill:#ffc800"/><rect x="349.9" y="671.43" width="44.38" height="44.23" transform="translate(-187.75 -306.17) rotate(-20.75)" style="fill:#015e01"/><rect x="890.02" y="763.6" width="101.11" height="100.85" transform="translate(-193.56 -96.93) rotate(-20.75)" style="fill:#ffc800"/><rect x="1488.9" y="638.43" width="44.38" height="44.23" transform="translate(-102.17 95.25) rotate(-20.75)" style="fill:#015e01"/><rect x="246.9" y="600.43" width="44.38" height="44.23" transform="translate(-370.75 61.31) rotate(-60)" style="fill:#ffc800"/><rect x="1820.9" y="489.43" width="44.38" height="44.23" transform="translate(-27.84 203.22) rotate(-20.75)" style="fill:#015e01"/><rect x="479.61" y="572.18" width="21.95" height="21.72" transform="translate(-140.91 -271.35) rotate(-20.75)" style="fill:#015e01"/><rect x="1046.9" y="554.43" width="44.38" height="44.23" transform="translate(-101.08 -66.81) rotate(-20.75)" style="fill:#ffc800"/><rect x="718.97" y="572.35" width="44.23" height="44.38" transform="translate(-153.84 311.76) rotate(-50.9)" style="fill:#015e01"/><rect x="-3.1" y="572.43" width="44.38" height="44.23" transform="translate(-175.58 -437.67) rotate(-20.75)" style="fill:#015e01"/><rect x="90.9" y="665.43" width="44.38" height="44.23" transform="translate(-202.43 -398.33) rotate(-20.75)" style="fill:#ffc800"/><rect x="878.61" y="597.18" width="21.95" height="21.72" transform="translate(-123.89 -128.36) rotate(-20.75)" style="fill:#015e01"/><rect x="641.61" y="700.18" width="21.95" height="21.72" transform="translate(-175.76 -205.65) rotate(-20.75)" style="fill:#015e01"/><rect x="195.61" y="676.18" width="21.95" height="21.72" transform="translate(-196.19 -365.23) rotate(-20.75)" style="fill:#015e01"/><rect x="1130.61" y="666.18" width="21.95" height="21.72" transform="translate(-131.99 -34.6) rotate(-20.75)" style="fill:#015e01"/><rect x="1313.61" y="597.18" width="21.95" height="21.72" transform="translate(-95.67 25.77) rotate(-20.75)" style="fill:#015e01"/><rect x="1323.61" y="584.18" width="21.95" height="21.72" transform="translate(-90.41 28.47) rotate(-20.75)" style="fill:#ffc800"/><rect x="1697.61" y="638.18" width="21.95" height="21.72" transform="translate(-85.28 164.48) rotate(-20.75)" style="fill:#ffc800"/><rect x="1650.61" y="611.18" width="21.95" height="21.72" transform="translate(-78.77 146.08) rotate(-20.75)" style="fill:#015e01"/><rect x="1450.61" y="605.18" width="21.95" height="21.72" transform="translate(-89.61 74.83) rotate(-20.75)" style="fill:#ffc800"/><rect x="1185.22" y="930.95" width="75.79" height="76.45" transform="matrix(0.94, -0.35, 0.35, 0.94, -230.2, 13.24)" style="fill:#ffc800"/><rect x="1278.22" y="843.95" width="75.79" height="76.45" transform="matrix(0.94, -0.35, 0.35, 0.94, -193.34, 40.55)" style="fill:#ffc800"/><rect x="1103.22" y="919.95" width="75.79" height="76.45" transform="matrix(0.94, -0.35, 0.35, 0.94, -231.63, -16.53)" style="fill:#ffc800"/><rect x="-3.9" y="1012.7" width="80.8" height="80.6" transform="translate(-336.88 -401.76) rotate(-20.75)" style="fill:#ffc800"/><rect x="424.22" y="1019.95" width="75.79" height="76.45" transform="matrix(0.94, -0.35, 0.35, 0.94, -311.11, -250.62)" style="fill:#ffc800"/><rect x="73.02" y="999.6" width="101.11" height="100.85" transform="translate(-330.18 -371.1) rotate(-20.75)" style="fill:#015e01"/><rect x="761.15" y="999.47" width="100.85" height="101.11" transform="translate(-469.71 744.86) rotate(-60)" style="fill:#015e01"/><rect x="539.35" y="892.61" width="128.47" height="127.86" transform="translate(-265.92 -207.09) rotate(-20.75)" style="fill:#015e01"/><rect x="543.02" y="1050.6" width="101.11" height="100.85" transform="translate(-317.76 -201.26) rotate(-20.75)" style="fill:#015e01"/><rect x="1232.02" y="905.6" width="101.11" height="100.85" transform="translate(-221.69 33.46) rotate(-20.75)" style="fill:#015e01"/><rect x="1745.02" y="867.6" width="101.11" height="100.85" transform="translate(-174.94 212.75) rotate(-20.75)" style="fill:#015e01"/><rect x="1355.02" y="1048.6" width="101.11" height="100.85" transform="translate(-264.37 86.31) rotate(-20.75)" style="fill:#015e01"/><rect x="1298.02" y="971.6" width="101.11" height="100.85" transform="translate(-176.96 1195.91) rotate(-60)" style="fill:#ffc800"/></svg>