<svg id="Layer_1" data-name="Layer 1" xmlns="http://www.w3.org/2000/svg" viewBox="0 0 2068.87 1600.15"><title>fondoFooter</title><rect x="1522.02" y="46.6" width="101.11" height="100.85" transform="translate(132.07 901.48) rotate(-20.75)" style="fill:#fff"/><rect x="-34.5" y="72.5" width="106" height="106" transform="translate(21.16 352.7) rotate(-20.75)" style="fill:#ffc800"/><rect x="483.22" y="-142.05" width="75.79" height="76.45" transform="matrix(0.94, -0.35, 0.35, 0.94, 135.02, 515.9)" style="fill:#ffc800"/><rect x="1354.07" y="55.38" width="229.71" height="229.71" transform="translate(99.4 869.51) rotate(-20.75)" style="fill:#ffc800"/><rect x="57.33" y="82.27" width="161.68" height="161.68" transform="translate(15.6 397.54) rotate(-20.75)" style="fill:#ffc800"/><rect x="672" y="16" width="106" height="106" transform="translate(87.01 599.35) rotate(-20.75)" style="fill:#ffc800"/><rect x="-5.11" y="148.64" width="73.43" height="73.06" transform="translate(-80.13 457.96) rotate(-60)" style="fill:#015e01"/><rect x="-27.21" y="-64.86" width="145.19" height="145.19" transform="translate(64.63 354.58) rotate(-20.75)" style="fill:#015e01"/><rect x="47.23" y="54.36" width="52.4" height="52.4" transform="translate(28.87 420.59) rotate(-48.72)" style="fill:#ffc800"/><rect x="146" y="166" width="106" height="106" transform="translate(-0.26 422.72) rotate(-20.75)" style="fill:#015e01"/><rect x="1113" y="-63" width="106" height="106" transform="translate(143.61 750.48) rotate(-20.75)" style="fill:#015e01"/><rect x="349" y="8" width="106" height="106" transform="translate(68.89 484.39) rotate(-20.75)" style="fill:#015e01"/><rect x="1021" y="110" width="106" height="106" transform="translate(76.35 729.11) rotate(-20.75)" style="fill:#015e01"/><rect x="207.85" y="81.47" width="206.93" height="206.93" transform="translate(19.1 460.3) rotate(-20.75)" style="fill:#015e01"/><rect x="382" y="96" width="106" height="106" transform="translate(109.47 730.64) rotate(-50.9)" style="fill:#ffc800"/><rect x="109" y="-14" width="106" height="106" transform="translate(61.12 397.93) rotate(-20.75)" style="fill:#015e01"/><rect x="185.68" y="-77.62" width="188.66" height="188.66" transform="translate(220.01 606.11) rotate(-67.08)" style="fill:#ffc800"/><rect x="705.72" y="-122.29" width="322.03" height="322.03" transform="translate(106.93 647.61) rotate(-20.75)" style="fill:#015e01"/><rect x="457" y="166" width="106" height="106" transform="translate(19.92 532.91) rotate(-20.75)" style="fill:#015e01"/><rect x="478" y="89" width="106" height="106" transform="translate(48.56 535.35) rotate(-20.75)" style="fill:#ffc800"/><rect x="454.03" y="30.46" width="70.79" height="70.79" transform="translate(302.61 829.01) rotate(-67.08)" style="fill:#015e01"/><rect x="382" y="-52" width="106" height="106" transform="translate(92.29 492.19) rotate(-20.75)" style="fill:#015e01"/><rect x="604" y="-82" width="106" height="106" transform="translate(117.32 568.9) rotate(-20.75)" style="fill:#ffc800"/><rect x="587.81" y="96.13" width="187.59" height="188.08" transform="translate(261.15 1043.58) rotate(-62.34)" style="fill:#ffc800"/><rect x="506.21" y="-38.63" width="133.8" height="133.6" transform="translate(91.62 542.89) rotate(-20.75)" style="fill:#015e01"/><rect x="819.41" y="122" width="151.62" height="151.79" transform="translate(52.39 668.03) rotate(-20.75)" style="fill:#ffc800"/><rect x="957.51" y="142.38" width="83.99" height="84.72" transform="translate(333.12 1229.17) rotate(-54.5)" style="fill:#ffc800"/><rect x="940.96" y="-111.15" width="116.3" height="115.64" transform="translate(474.87 1093.7) rotate(-50.9)" style="fill:#015e01"/><rect x="1757.81" y="-147.87" width="187.59" height="188.08" transform="translate(1104.07 1949.12) rotate(-62.34)" style="fill:#015e01"/><rect x="1678.23" y="-90.96" width="144.98" height="144.67" transform="translate(1018.84 1878.63) rotate(-62.34)" style="fill:#ffc800"/><rect x="1281.75" y="53.82" width="102.56" height="101.77" transform="translate(190.66 1018.55) rotate(-30)" style="fill:#015e01"/><rect x="1011.38" y="-31.82" width="139.74" height="140.1" transform="translate(609.83 1316.14) rotate(-62.34)" style="fill:#ffc800"/><rect x="1050.37" y="192.24" width="89.03" height="89.11" transform="translate(46.23 700.84) rotate(-18.66)" style="fill:#ffc800"/><rect x="1158.57" y="179.37" width="188.08" height="187.59" transform="translate(138.86 1116.71) rotate(-35.53)" style="fill:#015e01"/><rect x="1261.84" y="-27.64" width="58.09" height="57.87" transform="translate(754.85 1482.03) rotate(-62.34)" style="fill:#ffc800"/><rect x="1119.62" y="144.41" width="116.08" height="106.79" transform="translate(520.14 1487.01) rotate(-62.34)" style="fill:#015e01"/><rect x="1125.62" y="66.58" width="61.2" height="61.82" transform="translate(334.14 1184.13) rotate(-45)" style="fill:#015e01"/><rect x="1172.41" y="29.85" width="100.96" height="100.88" transform="translate(648.45 1464.12) rotate(-62.34)" style="fill:#015e01"/><rect x="1567.34" y="174.71" width="121.31" height="121.58" transform="translate(728.02 1906.08) rotate(-62.34)" style="fill:#015e01"/><rect x="1214.5" y="-23.72" width="71.76" height="71.03" transform="translate(723.86 1451.78) rotate(-62.34)" style="fill:#ffc800"/><rect x="1305.81" y="-103.87" width="187.59" height="188.08" transform="translate(822.95 1572.36) rotate(-62.34)" style="fill:#015e01"/><rect x="1212.89" y="-147.34" width="79.99" height="80.26" transform="translate(830.59 1390.24) rotate(-62.34)" style="fill:#ffc800"/><rect x="1486.72" y="-95.05" width="81.34" height="80.68" transform="translate(931.15 1661.49) rotate(-62.34)" style="fill:#ffc800"/><rect x="1522.02" y="-5.4" width="101.11" height="100.85" transform="translate(150.49 898.11) rotate(-20.75)" style="fill:#015e01"/><rect x="1459.02" y="-47.4" width="101.11" height="100.85" transform="translate(161.29 873.06) rotate(-20.75)" style="fill:#015e01"/><rect x="1762.02" y="-5.4" width="101.11" height="100.85" transform="translate(166.06 983.14) rotate(-20.75)" style="fill:#015e01"/><rect x="949.02" y="199.6" width="101.11" height="100.85" transform="translate(40.69 708.38) rotate(-20.75)" style="fill:#015e01"/><rect x="1575.02" y="-79.4" width="101.11" height="100.85" transform="translate(180.15 912.09) rotate(-20.75)" style="fill:#015e01"/><rect x="1781.57" y="141.4" width="141.04" height="141.28" transform="translate(109.45 1007.98) rotate(-20.75)" style="fill:#ffc800"/><rect x="1570.02" y="91.6" width="101.11" height="100.85" transform="translate(751.72 1812.47) rotate(-60)" style="fill:#015e01"/><rect x="1777.02" y="119.6" width="101.11" height="100.85" transform="translate(122.75 996.57) rotate(-20.75)" style="fill:#015e01"/><rect x="1610.68" y="25.92" width="130.82" height="131.25" transform="translate(140.72 937.8) rotate(-20.75)" style="fill:#015e01"/><rect x="1669.96" y="126.61" width="149.26" height="148.86" transform="translate(106.37 969.17) rotate(-20.75)" style="fill:#ffc800"/><rect x="1836.44" y="59.93" width="75.56" height="75.92" transform="translate(151.33 1008.41) rotate(-20.75)" style="fill:#ffc800"/><rect x="333.9" y="-149.57" width="44.38" height="44.23" transform="translate(132.69 455.9) rotate(-20.75)" style="fill:#015e01"/><rect x="874.02" y="-57.4" width="101.11" height="100.85" transform="translate(126.88 665.14) rotate(-20.75)" style="fill:#ffc800"/><rect x="1472.9" y="-182.57" width="44.38" height="44.23" transform="translate(218.27 857.32) rotate(-20.75)" style="fill:#015e01"/><rect x="230.9" y="-220.57" width="44.38" height="44.23" transform="translate(362.84 457.95) rotate(-60)" style="fill:#ffc800"/><rect x="1804.9" y="-331.57" width="44.38" height="44.23" transform="translate(292.6 965.29) rotate(-20.75)" style="fill:#015e01"/><rect x="463.61" y="-248.82" width="21.95" height="21.72" transform="translate(179.53 490.72) rotate(-20.75)" style="fill:#015e01"/><rect x="1030.9" y="-266.57" width="44.38" height="44.23" transform="translate(219.36 695.26) rotate(-20.75)" style="fill:#ffc800"/><rect x="702.97" y="-248.65" width="44.23" height="44.38" transform="translate(508.01 817.08) rotate(-50.9)" style="fill:#015e01"/><rect x="-19.1" y="-248.57" width="44.38" height="44.23" transform="translate(144.86 324.4) rotate(-20.75)" style="fill:#015e01"/><rect x="74.9" y="-155.57" width="44.38" height="44.23" transform="translate(118.01 363.74) rotate(-20.75)" style="fill:#ffc800"/><rect x="862.61" y="-223.82" width="21.95" height="21.72" transform="translate(196.55 633.71) rotate(-20.75)" style="fill:#015e01"/><rect x="625.61" y="-120.82" width="21.95" height="21.72" transform="translate(144.68 556.42) rotate(-20.75)" style="fill:#015e01"/><rect x="179.61" y="-144.82" width="21.95" height="21.72" transform="translate(124.25 396.84) rotate(-20.75)" style="fill:#015e01"/><rect x="1114.61" y="-154.82" width="21.95" height="21.72" transform="translate(188.45 727.47) rotate(-20.75)" style="fill:#015e01"/><rect x="1297.61" y="-223.82" width="21.95" height="21.72" transform="translate(224.77 787.84) rotate(-20.75)" style="fill:#015e01"/><rect x="1307.61" y="-236.82" width="21.95" height="21.72" transform="translate(230.03 790.54) rotate(-20.75)" style="fill:#ffc800"/><rect x="1681.61" y="-182.82" width="21.95" height="21.72" transform="translate(235.16 926.55) rotate(-20.75)" style="fill:#ffc800"/><rect x="1634.61" y="-209.82" width="21.95" height="21.72" transform="translate(241.67 908.15) rotate(-20.75)" style="fill:#015e01"/><rect x="1434.61" y="-215.82" width="21.95" height="21.72" transform="translate(230.83 836.9) rotate(-20.75)" style="fill:#ffc800"/><rect x="1169.22" y="109.95" width="75.79" height="76.45" transform="matrix(0.94, -0.35, 0.35, 0.94, 90.24, 775.31)" style="fill:#ffc800"/><rect x="1262.22" y="22.95" width="75.79" height="76.45" transform="matrix(0.94, -0.35, 0.35, 0.94, 127.09, 802.62)" style="fill:#ffc800"/><rect x="1087.22" y="98.95" width="75.79" height="76.45" transform="matrix(0.94, -0.35, 0.35, 0.94, 88.81, 745.54)" style="fill:#ffc800"/><rect x="-19.9" y="191.7" width="80.8" height="80.6" transform="translate(-16.45 360.31) rotate(-20.75)" style="fill:#ffc800"/><rect x="408.22" y="198.95" width="75.79" height="76.45" transform="matrix(0.94, -0.35, 0.35, 0.94, 9.33, 511.45)" style="fill:#ffc800"/><rect x="57.02" y="178.6" width="101.11" height="100.85" transform="translate(-9.74 390.97) rotate(-20.75)" style="fill:#015e01"/><rect x="745.15" y="178.47" width="100.85" height="101.11" transform="translate(263.88 1141.5) rotate(-60)" style="fill:#015e01"/><rect x="523.35" y="71.61" width="128.47" height="127.86" transform="translate(54.52 554.98) rotate(-20.75)" style="fill:#015e01"/><rect x="527.02" y="229.6" width="101.11" height="100.85" transform="translate(2.68 560.81) rotate(-20.75)" style="fill:#015e01"/><rect x="1216.02" y="84.6" width="101.11" height="100.85" transform="translate(98.75 795.53) rotate(-20.75)" style="fill:#015e01"/><rect x="1729.02" y="46.6" width="101.11" height="100.85" transform="translate(145.5 974.82) rotate(-20.75)" style="fill:#015e01"/><rect x="1339.02" y="227.6" width="101.11" height="100.85" transform="translate(56.07 848.38) rotate(-20.75)" style="fill:#015e01"/><rect x="1282.02" y="150.6" width="101.11" height="100.85" transform="translate(556.63 1592.56) rotate(-60)" style="fill:#ffc800"/><rect x="288.82" y="376.24" width="101.11" height="100.85" transform="translate(-67.7 490.97) rotate(-21.37)" style="fill:#fff"/><rect x="1840.06" y="328.5" width="106" height="106" transform="translate(55.55 1053.93) rotate(-21.37)" style="fill:#ffc800"/><rect x="1355.05" y="577.99" width="75.79" height="76.45" transform="translate(-64.34 887.85) rotate(-21.37)" style="fill:#ffc800"/><rect x="327.37" y="237.48" width="229.71" height="229.71" transform="translate(-33.55 523.34) rotate(-21.37)" style="fill:#ffc800"/><rect x="1692.15" y="264.34" width="161.68" height="161.68" transform="translate(60.53 1007.69) rotate(-21.37)" style="fill:#ffc800"/><rect x="1134.2" y="392.58" width="106" height="106" transform="translate(-16.32 801.17) rotate(-21.37)" style="fill:#ffc800"/><rect x="1842.59" y="285.44" width="73.43" height="73.06" transform="translate(741.06 2139.51) rotate(-60.62)" style="fill:#015e01"/><rect x="1794.85" y="426.95" width="145.19" height="145.19" transform="translate(10.78 1052.71) rotate(-21.37)" style="fill:#015e01"/><rect x="1812.41" y="400.83" width="52.4" height="52.4" transform="translate(380.96 1881.32) rotate(-49.33)" style="fill:#ffc800"/><rect x="1658.56" y="236.94" width="106" height="106" transform="translate(76.43 981.51) rotate(-21.37)" style="fill:#015e01"/><rect x="694.08" y="476.31" width="106" height="106" transform="translate(-77.07 646.57) rotate(-21.37)" style="fill:#015e01"/><rect x="1457.27" y="397.11" width="106" height="106" transform="translate(4.24 919.18) rotate(-21.37)" style="fill:#015e01"/><rect x="784.21" y="302.33" width="106" height="106" transform="translate(-7.49 667.45) rotate(-21.37)" style="fill:#015e01"/><rect x="1496.16" y="221.75" width="206.93" height="206.93" transform="translate(55.88 943.15) rotate(-21.37)" style="fill:#015e01"/><rect x="1423.33" y="309.47" width="106" height="106" transform="translate(338.36 1630.62) rotate(-51.52)" style="fill:#ffc800"/><rect x="1697.49" y="416.53" width="106" height="106" transform="translate(13.67 1008.04) rotate(-21.37)" style="fill:#015e01"/><rect x="1538.41" y="398.76" width="188.66" height="188.66" transform="translate(621.36 2154.58) rotate(-67.7)" style="fill:#ffc800"/><rect x="884.79" y="316.36" width="322.03" height="322.03" transform="translate(-37.62 751.83) rotate(-21.37)" style="fill:#015e01"/><rect x="1347.58" y="240.28" width="106" height="106" transform="translate(53.84 868.44) rotate(-21.37)" style="fill:#015e01"/><rect x="1327.41" y="317.5" width="106" height="106" transform="translate(24.32 866.4) rotate(-21.37)" style="fill:#ffc800"/><rect x="1387.4" y="410.8" width="70.79" height="70.79" transform="translate(534.48 1931.24) rotate(-67.7)" style="fill:#015e01"/><rect x="1424.92" y="457.46" width="106" height="106" transform="translate(-19.97 911.54) rotate(-21.37)" style="fill:#015e01"/><rect x="1203.25" y="489.84" width="106" height="106" transform="translate(-47.01 833.01) rotate(-21.37)" style="fill:#ffc800"/><rect x="1135.5" y="229.91" width="187.59" height="188.08" transform="translate(446.2 1609.49) rotate(-62.95)" style="fill:#ffc800"/><rect x="1272.62" y="417.98" width="133.8" height="133.6" transform="translate(-20.13 859.36) rotate(-21.37)" style="fill:#015e01"/><rect x="939.8" y="242.63" width="151.62" height="151.79" transform="matrix(0.93, -0.36, 0.36, 0.93, 18.18, 729.92)" style="fill:#ffc800"/><rect x="869.47" y="290.43" width="83.99" height="84.72" transform="translate(181.61 1228.14) rotate(-55.12)" style="fill:#ffc800"/><rect x="856.27" y="513.03" width="116.3" height="115.64" transform="translate(-37.02 1269.47) rotate(-51.52)" style="fill:#015e01"/><rect x="-31.82" y="486.46" width="187.59" height="188.08" transform="translate(-418.79 709.73) rotate(-62.95)" style="fill:#015e01"/><rect x="89.99" y="471.88" width="144.98" height="144.67" transform="translate(-331.67 779.45) rotate(-62.95)" style="fill:#ffc800"/><rect x="527.54" y="365.52" width="102.56" height="101.77" transform="translate(-66.95 690.82) rotate(-30.62)" style="fill:#015e01"/><rect x="761.43" y="410.13" width="139.74" height="140.1" transform="translate(90.05 1340.21) rotate(-62.95)" style="fill:#ffc800"/><rect x="771.02" y="237.22" width="89.03" height="89.11" transform="translate(17.13 623.07) rotate(-19.28)" style="fill:#ffc800"/><rect x="563.4" y="153.29" width="188.08" height="187.59" transform="translate(45.21 773.29) rotate(-36.14)" style="fill:#015e01"/><rect x="593.03" y="490.43" width="58.09" height="57.87" transform="translate(-58.93 1175.23) rotate(-62.95)" style="fill:#ffc800"/><rect x="675.15" y="268.25" width="116.08" height="106.79" transform="translate(177.75 1166.39) rotate(-62.95)" style="fill:#015e01"/><rect x="725.1" y="390.81" width="61.2" height="61.82" transform="translate(-9.85 1004.81) rotate(-45.62)" style="fill:#015e01"/><rect x="638.74" y="389.19" width="100.96" height="100.88" transform="translate(48.69 1191.56) rotate(-62.95)" style="fill:#015e01"/><rect x="221.81" y="228" width="121.31" height="121.58" transform="translate(-38.76 747.04) rotate(-62.95)" style="fill:#015e01"/><rect x="626.58" y="472.91" width="71.76" height="71.03" transform="translate(-27.17 1205.24) rotate(-62.95)" style="fill:#ffc800"/><rect x="419.68" y="437.61" width="187.59" height="188.08" transform="translate(-129.09 1085.21) rotate(-62.95)" style="fill:#015e01"/><rect x="621.24" y="587.31" width="79.99" height="80.26" transform="translate(-133.84 1269.05) rotate(-62.95)" style="fill:#ffc800"/><rect x="345.52" y="537.55" width="81.34" height="80.68" transform="translate(-239.69 997.06) rotate(-62.95)" style="fill:#ffc800"/><rect x="289.38" y="428.24" width="101.11" height="100.85" transform="translate(-86.6 494.75) rotate(-21.37)" style="fill:#015e01"/><rect x="352.82" y="469.56" width="101.11" height="100.85" transform="translate(-97.3 520.7) rotate(-21.37)" style="fill:#015e01"/><rect x="49.39" y="430.81" width="101.11" height="100.85" transform="translate(-104.04 407.49) rotate(-21.37)" style="fill:#015e01"/><rect x="860.14" y="217.1" width="101.11" height="100.85" transform="matrix(0.93, -0.36, 0.36, 0.93, 29.55, 688.19)" style="fill:#015e01"/><rect x="237.17" y="502.8" width="101.11" height="100.85" transform="translate(-117.36 480.85) rotate(-21.37)" style="fill:#015e01"/><rect x="-11.87" y="244.01" width="141.04" height="141.28" transform="translate(-46.18 380.99) rotate(-21.37)" style="fill:#ffc800"/><rect x="240.34" y="331.76" width="101.11" height="100.85" transform="translate(-120.43 786.12) rotate(-60.62)" style="fill:#015e01"/><rect x="33.05" y="305.98" width="101.11" height="100.85" transform="translate(-59.68 392.96) rotate(-21.37)" style="fill:#015e01"/><rect x="170.52" y="367.63" width="130.82" height="131.25" transform="translate(-77.21 453.74) rotate(-21.37)" style="fill:#015e01"/><rect x="91.63" y="250.07" width="149.26" height="148.86" transform="translate(-42.37 420.88) rotate(-21.37)" style="fill:#ffc800"/><rect x="-0.04" y="391.07" width="75.56" height="75.92" transform="translate(-89.29 381.24) rotate(-21.37)" style="fill:#ffc800"/><rect x="1536.02" y="615.95" width="44.38" height="44.23" transform="translate(-60.95 949.57) rotate(-21.37)" style="fill:#015e01"/><rect x="937.9" y="473.28" width="101.11" height="100.85" transform="translate(-58.44 734.12) rotate(-21.37)" style="fill:#ffc800"/><rect x="397.44" y="661.18" width="44.38" height="44.23" transform="translate(-155.68 537.85) rotate(-21.37)" style="fill:#015e01"/><rect x="1639.77" y="685.84" width="44.38" height="44.23" transform="translate(294.04 2146.72) rotate(-60.62)" style="fill:#ffc800"/><rect x="67.06" y="813.74" width="44.38" height="44.23" transform="translate(-233.97 427.97) rotate(-21.37)" style="fill:#015e01"/><rect x="1429.93" y="738.97" width="21.95" height="21.72" transform="translate(-109.73 914.51) rotate(-21.37)" style="fill:#015e01"/><rect x="840.31" y="740.43" width="44.38" height="44.23" transform="translate(-154.11 704.65) rotate(-21.37)" style="fill:#ffc800"/><rect x="1168.18" y="718.83" width="44.23" height="44.38" transform="translate(-66.03 1549.71) rotate(-51.52)" style="fill:#015e01"/><rect x="1890.06" y="711.15" width="44.38" height="44.23" transform="translate(-71.3 1085.1) rotate(-21.37)" style="fill:#015e01"/><rect x="1795.07" y="619.17" width="44.38" height="44.23" transform="translate(-44.31 1044.17) rotate(-21.37)" style="fill:#ffc800"/><rect x="1030.68" y="718.26" width="21.95" height="21.72" transform="translate(-129.62 767.63) rotate(-21.37)" style="fill:#015e01"/><rect x="1266.56" y="612.72" width="21.95" height="21.72" transform="translate(-74.96 846.31) rotate(-21.37)" style="fill:#015e01"/><rect x="1712.79" y="631.93" width="21.95" height="21.72" transform="translate(-51.29 1010.21) rotate(-21.37)" style="fill:#015e01"/><rect x="777.95" y="651.97" width="21.95" height="21.72" transform="translate(-122.84 670.99) rotate(-21.37)" style="fill:#015e01"/><rect x="595.71" y="722.93" width="21.95" height="21.72" transform="translate(-161.22 609.47) rotate(-21.37)" style="fill:#015e01"/><rect x="585.85" y="736.04" width="21.95" height="21.72" transform="translate(-166.67 606.78) rotate(-21.37)" style="fill:#ffc800"/><rect x="211.29" y="686.06" width="21.95" height="21.72" transform="translate(-174.21 466.88) rotate(-21.37)" style="fill:#ffc800"/><rect x="258.57" y="712.55" width="21.95" height="21.72" transform="translate(-180.61 485.93) rotate(-21.37)" style="fill:#015e01"/><rect x="458.63" y="716.4" width="21.95" height="21.72" transform="translate(-168.26 559.08) rotate(-21.37)" style="fill:#ffc800"/><rect x="666.38" y="333.37" width="75.79" height="76.45" transform="translate(-22.55 620.13) rotate(-21.37)" style="fill:#ffc800"/><rect x="574.32" y="421.36" width="75.79" height="76.45" transform="translate(-60.94 592.64) rotate(-21.37)" style="fill:#ffc800"/><rect x="748.49" y="343.49" width="75.79" height="76.45" transform="translate(-20.6 650.74) rotate(-21.37)" style="fill:#ffc800"/><rect x="1849.51" y="234.72" width="80.8" height="80.6" transform="translate(94.12 1045.47) rotate(-21.37)" style="fill:#ffc800"/><rect x="1426.38" y="236.2" width="75.79" height="76.45" transform="translate(65.09 890.35) rotate(-21.37)" style="fill:#ffc800"/><rect x="1752.32" y="228.52" width="101.11" height="100.85" transform="matrix(0.93, -0.36, 0.36, 0.93, 86.71, 1014.02)" style="fill:#015e01"/><rect x="1064.49" y="235.77" width="100.85" height="101.11" transform="translate(382.79 1455.31) rotate(-60.62)" style="fill:#015e01"/><rect x="1259.66" y="313.64" width="128.47" height="127.86" transform="translate(17.86 846.29) rotate(-21.37)" style="fill:#015e01"/><rect x="1281.8" y="182.57" width="101.11" height="100.85" transform="translate(71.11 839.44) rotate(-21.37)" style="fill:#015e01"/><rect x="594.39" y="334.96" width="101.11" height="100.85" transform="translate(-31.65 599.47) rotate(-21.37)" style="fill:#015e01"/><rect x="81.83" y="378.46" width="101.11" height="100.85" transform="translate(-82.73 415.71) rotate(-21.37)" style="fill:#015e01"/><rect x="469.86" y="193.29" width="101.11" height="100.85" transform="translate(11.4 544.36) rotate(-21.37)" style="fill:#015e01"/><rect x="527.69" y="269.67" width="101.11" height="100.85" transform="translate(80.03 1004.88) rotate(-60.62)" style="fill:#ffc800"/><rect x="1548.02" y="606.6" width="101.11" height="100.85" transform="translate(-64.66 947.02) rotate(-20.75)" style="fill:#fff"/><rect x="-8.5" y="632.5" width="106" height="106" transform="translate(-175.57 398.24) rotate(-20.75)" style="fill:#ffc800"/><rect x="509.22" y="417.95" width="75.79" height="76.45" transform="matrix(0.94, -0.35, 0.35, 0.94, -61.71, 561.44)" style="fill:#ffc800"/><rect x="1380.07" y="615.38" width="229.71" height="229.71" transform="translate(-97.33 915.05) rotate(-20.75)" style="fill:#ffc800"/><rect x="83.33" y="642.27" width="161.68" height="161.68" transform="translate(-181.13 443.08) rotate(-20.75)" style="fill:#ffc800"/><rect x="698" y="576" width="106" height="106" transform="translate(-109.72 644.9) rotate(-20.75)" style="fill:#ffc800"/><rect x="20.89" y="708.64" width="73.43" height="73.06" transform="translate(-552.11 760.48) rotate(-60)" style="fill:#015e01"/><rect x="-1.21" y="495.14" width="145.19" height="145.19" transform="translate(-132.1 400.12) rotate(-20.75)" style="fill:#015e01"/><rect x="73.23" y="614.36" width="52.4" height="52.4" transform="translate(-383.1 630.65) rotate(-48.72)" style="fill:#ffc800"/><rect x="172" y="726" width="106" height="106" transform="translate(-196.99 468.26) rotate(-20.75)" style="fill:#015e01"/><rect x="1139" y="497" width="106" height="106" transform="translate(-53.12 796.02) rotate(-20.75)" style="fill:#015e01"/><rect x="375" y="568" width="106" height="106" transform="translate(-127.84 529.93) rotate(-20.75)" style="fill:#015e01"/><rect x="1047" y="670" width="106" height="106" transform="translate(-120.38 774.65) rotate(-20.75)" style="fill:#015e01"/><rect x="233.85" y="641.47" width="206.93" height="206.93" transform="translate(-177.63 505.84) rotate(-20.75)" style="fill:#015e01"/><rect x="408" y="656" width="106" height="106" transform="translate(-315.54 957.67) rotate(-50.9)" style="fill:#ffc800"/><rect x="135" y="546" width="106" height="106" transform="translate(-135.61 443.47) rotate(-20.75)" style="fill:#015e01"/><rect x="211.68" y="482.38" width="188.66" height="188.66" transform="translate(-279.92 971.99) rotate(-67.08)" style="fill:#ffc800"/><rect x="731.72" y="437.71" width="322.03" height="322.03" transform="translate(-89.8 693.15) rotate(-20.75)" style="fill:#015e01"/><rect x="483" y="726" width="106" height="106" transform="translate(-176.81 578.45) rotate(-20.75)" style="fill:#015e01"/><rect x="504" y="649" width="106" height="106" transform="translate(-148.17 580.89) rotate(-20.75)" style="fill:#ffc800"/><rect x="480.03" y="590.46" width="70.79" height="70.79" transform="translate(-197.31 1194.9) rotate(-67.08)" style="fill:#015e01"/><rect x="408" y="508" width="106" height="106" transform="translate(-104.44 537.73) rotate(-20.75)" style="fill:#015e01"/><rect x="630" y="478" width="106" height="106" transform="translate(-79.41 614.44) rotate(-20.75)" style="fill:#ffc800"/><rect x="613.81" y="656.13" width="187.59" height="188.08" transform="translate(-220.91 1366.62) rotate(-62.34)" style="fill:#ffc800"/><rect x="532.21" y="521.37" width="133.8" height="133.6" transform="translate(-105.11 588.43) rotate(-20.75)" style="fill:#015e01"/><rect x="845.41" y="682" width="151.62" height="151.79" transform="translate(-144.34 713.57) rotate(-20.75)" style="fill:#ffc800"/><rect x="983.51" y="702.38" width="83.99" height="84.72" transform="translate(-111.89 1485.14) rotate(-54.5)" style="fill:#ffc800"/><rect x="966.96" y="448.85" width="116.3" height="115.64" transform="translate(49.86 1320.73) rotate(-50.9)" style="fill:#015e01"/><rect x="1783.81" y="412.13" width="187.59" height="188.08" transform="translate(622.01 2272.16) rotate(-62.34)" style="fill:#015e01"/><rect x="1704.23" y="469.04" width="144.98" height="144.67" transform="translate(536.78 2201.67) rotate(-62.34)" style="fill:#ffc800"/><rect x="1307.75" y="613.82" width="102.56" height="101.77" transform="translate(-85.85 1106.57) rotate(-30)" style="fill:#015e01"/><rect x="1037.38" y="528.18" width="139.74" height="140.1" transform="translate(127.77 1639.18) rotate(-62.34)" style="fill:#ffc800"/><rect x="1076.37" y="752.24" width="89.03" height="89.11" transform="translate(-131.62 738.61) rotate(-18.66)" style="fill:#ffc800"/><rect x="1184.57" y="739.37" width="188.08" height="187.59" transform="translate(-181.7 1236.06) rotate(-35.53)" style="fill:#015e01"/><rect x="1287.84" y="532.36" width="58.09" height="57.87" transform="translate(272.79 1805.06) rotate(-62.34)" style="fill:#ffc800"/><rect x="1145.62" y="704.41" width="116.08" height="106.79" transform="translate(38.08 1810.05) rotate(-62.34)" style="fill:#015e01"/><rect x="1151.62" y="626.58" width="61.2" height="61.82" transform="translate(-54.23 1366.53) rotate(-45)" style="fill:#015e01"/><rect x="1198.41" y="589.85" width="100.96" height="100.88" transform="translate(166.39 1787.16) rotate(-62.34)" style="fill:#015e01"/><rect x="1593.34" y="734.71" width="121.31" height="121.58" transform="translate(245.96 2229.12) rotate(-62.34)" style="fill:#015e01"/><rect x="1240.5" y="536.28" width="71.76" height="71.03" transform="translate(241.79 1774.82) rotate(-62.34)" style="fill:#ffc800"/><rect x="1331.81" y="456.13" width="187.59" height="188.08" transform="translate(340.89 1895.4) rotate(-62.34)" style="fill:#015e01"/><rect x="1238.89" y="412.66" width="79.99" height="80.26" transform="translate(348.53 1713.28) rotate(-62.34)" style="fill:#ffc800"/><rect x="1512.72" y="464.95" width="81.34" height="80.68" transform="translate(449.09 1984.53) rotate(-62.34)" style="fill:#ffc800"/><rect x="1548.02" y="554.6" width="101.11" height="100.85" transform="translate(-46.24 943.65) rotate(-20.75)" style="fill:#015e01"/><rect x="1485.02" y="512.6" width="101.11" height="100.85" transform="translate(-35.44 918.6) rotate(-20.75)" style="fill:#015e01"/><rect x="1788.02" y="554.6" width="101.11" height="100.85" transform="translate(-30.67 1028.69) rotate(-20.75)" style="fill:#015e01"/><rect x="975.02" y="759.6" width="101.11" height="100.85" transform="translate(-156.04 753.93) rotate(-20.75)" style="fill:#015e01"/><rect x="1601.02" y="480.6" width="101.11" height="100.85" transform="translate(-16.58 957.63) rotate(-20.75)" style="fill:#015e01"/><rect x="1807.57" y="701.4" width="141.04" height="141.28" transform="translate(-87.28 1053.52) rotate(-20.75)" style="fill:#ffc800"/><rect x="1596.02" y="651.6" width="101.11" height="100.85" transform="translate(279.75 2114.99) rotate(-60)" style="fill:#015e01"/><rect x="1803.02" y="679.6" width="101.11" height="100.85" transform="translate(-73.98 1042.11) rotate(-20.75)" style="fill:#015e01"/><rect x="1636.68" y="585.92" width="130.82" height="131.25" transform="translate(-56 983.34) rotate(-20.75)" style="fill:#015e01"/><rect x="1695.96" y="686.61" width="149.26" height="148.86" transform="translate(-90.36 1014.72) rotate(-20.75)" style="fill:#ffc800"/><rect x="1862.44" y="619.93" width="75.56" height="75.92" transform="translate(-45.4 1053.95) rotate(-20.75)" style="fill:#ffc800"/><rect x="359.9" y="410.43" width="44.38" height="44.23" transform="translate(-64.04 501.44) rotate(-20.75)" style="fill:#015e01"/><rect x="900.02" y="502.6" width="101.11" height="100.85" transform="translate(-69.85 710.68) rotate(-20.75)" style="fill:#ffc800"/><rect x="1498.9" y="377.43" width="44.38" height="44.23" transform="translate(21.54 902.86) rotate(-20.75)" style="fill:#015e01"/><rect x="256.9" y="339.43" width="44.38" height="44.23" transform="translate(-109.14 760.47) rotate(-60)" style="fill:#ffc800"/><rect x="1830.9" y="228.43" width="44.38" height="44.23" transform="translate(95.87 1010.83) rotate(-20.75)" style="fill:#015e01"/><rect x="489.61" y="311.18" width="21.95" height="21.72" transform="translate(-17.2 536.26) rotate(-20.75)" style="fill:#015e01"/><rect x="1056.9" y="293.43" width="44.38" height="44.23" transform="translate(22.63 740.81) rotate(-20.75)" style="fill:#ffc800"/><rect x="728.97" y="311.35" width="44.23" height="44.38" transform="translate(83 1044.12) rotate(-50.9)" style="fill:#015e01"/><rect x="6.9" y="311.43" width="44.38" height="44.23" transform="translate(-51.87 369.94) rotate(-20.75)" style="fill:#015e01"/><rect x="100.9" y="404.43" width="44.38" height="44.23" transform="translate(-78.72 409.28) rotate(-20.75)" style="fill:#ffc800"/><rect x="888.61" y="336.18" width="21.95" height="21.72" transform="translate(-0.18 679.25) rotate(-20.75)" style="fill:#015e01"/><rect x="651.61" y="439.18" width="21.95" height="21.72" transform="translate(-52.05 601.96) rotate(-20.75)" style="fill:#015e01"/><rect x="205.61" y="415.18" width="21.95" height="21.72" transform="translate(-72.48 442.38) rotate(-20.75)" style="fill:#015e01"/><rect x="1140.61" y="405.18" width="21.95" height="21.72" transform="translate(-8.28 773.01) rotate(-20.75)" style="fill:#015e01"/><rect x="1323.61" y="336.18" width="21.95" height="21.72" transform="translate(28.04 833.38) rotate(-20.75)" style="fill:#015e01"/><rect x="1333.61" y="323.18" width="21.95" height="21.72" transform="translate(33.3 836.08) rotate(-20.75)" style="fill:#ffc800"/><rect x="1707.61" y="377.18" width="21.95" height="21.72" transform="translate(38.43 972.09) rotate(-20.75)" style="fill:#ffc800"/><rect x="1660.61" y="350.18" width="21.95" height="21.72" transform="translate(44.94 953.69) rotate(-20.75)" style="fill:#015e01"/><rect x="1460.61" y="344.18" width="21.95" height="21.72" transform="translate(34.1 882.44) rotate(-20.75)" style="fill:#ffc800"/><rect x="1195.22" y="669.95" width="75.79" height="76.45" transform="matrix(0.94, -0.35, 0.35, 0.94, -106.49, 820.85)" style="fill:#ffc800"/><rect x="1288.22" y="582.95" width="75.79" height="76.45" transform="matrix(0.94, -0.35, 0.35, 0.94, -69.63, 848.16)" style="fill:#ffc800"/><rect x="1113.22" y="658.95" width="75.79" height="76.45" transform="matrix(0.94, -0.35, 0.35, 0.94, -107.92, 791.08)" style="fill:#ffc800"/><rect x="6.1" y="751.7" width="80.8" height="80.6" transform="translate(-213.18 405.86) rotate(-20.75)" style="fill:#ffc800"/><rect x="434.22" y="758.95" width="75.79" height="76.45" transform="matrix(0.94, -0.35, 0.35, 0.94, -187.4, 556.99)" style="fill:#ffc800"/><rect x="83.02" y="738.6" width="101.11" height="100.85" transform="translate(-206.47 436.52) rotate(-20.75)" style="fill:#015e01"/><rect x="771.15" y="738.47" width="100.85" height="101.11" transform="translate(-208.1 1444.02) rotate(-60)" style="fill:#015e01"/><rect x="549.35" y="631.61" width="128.47" height="127.86" transform="translate(-142.21 600.52) rotate(-20.75)" style="fill:#015e01"/><rect x="553.02" y="789.6" width="101.11" height="100.85" transform="translate(-194.05 606.35) rotate(-20.75)" style="fill:#015e01"/><rect x="1242.02" y="644.6" width="101.11" height="100.85" transform="translate(-97.98 841.07) rotate(-20.75)" style="fill:#015e01"/><rect x="1755.02" y="606.6" width="101.11" height="100.85" transform="translate(-51.23 1020.37) rotate(-20.75)" style="fill:#015e01"/><rect x="1365.02" y="787.6" width="101.11" height="100.85" transform="translate(-140.66 893.93) rotate(-20.75)" style="fill:#015e01"/><rect x="1308.02" y="710.6" width="101.11" height="100.85" transform="translate(84.65 1895.07) rotate(-60)" style="fill:#ffc800"/><rect x="1543.02" y="904.6" width="101.11" height="100.85" transform="translate(-170.57 964.58) rotate(-20.75)" style="fill:#fff"/><rect x="-13.5" y="930.5" width="106" height="106" transform="translate(-281.48 415.8) rotate(-20.75)" style="fill:#ffc800"/><rect x="504.22" y="715.95" width="75.79" height="76.45" transform="matrix(0.94, -0.35, 0.35, 0.94, -167.62, 579)" style="fill:#ffc800"/><rect x="1375.07" y="913.38" width="229.71" height="229.71" transform="translate(-203.24 932.61) rotate(-20.75)" style="fill:#ffc800"/><rect x="78.33" y="940.27" width="161.68" height="161.68" transform="translate(-287.04 460.64) rotate(-20.75)" style="fill:#ffc800"/><rect x="693" y="874" width="106" height="106" transform="translate(-215.63 662.46) rotate(-20.75)" style="fill:#ffc800"/><rect x="15.89" y="1006.64" width="73.43" height="73.06" transform="translate(-812.68 905.15) rotate(-60)" style="fill:#015e01"/><rect x="-6.21" y="793.14" width="145.19" height="145.19" transform="translate(-238.01 417.68) rotate(-20.75)" style="fill:#015e01"/><rect x="68.23" y="912.36" width="52.4" height="52.4" transform="translate(-608.73 728.28) rotate(-48.72)" style="fill:#ffc800"/><rect x="167" y="1024" width="106" height="106" transform="translate(-302.9 485.82) rotate(-20.75)" style="fill:#015e01"/><rect x="1134" y="795" width="106" height="106" transform="translate(-159.03 813.58) rotate(-20.75)" style="fill:#015e01"/><rect x="370" y="866" width="106" height="106" transform="translate(-233.75 547.49) rotate(-20.75)" style="fill:#015e01"/><rect x="1042" y="968" width="106" height="106" transform="translate(-226.29 792.21) rotate(-20.75)" style="fill:#015e01"/><rect x="228.85" y="939.47" width="206.93" height="206.93" transform="translate(-283.54 523.4) rotate(-20.75)" style="fill:#015e01"/><rect x="403" y="954" width="106" height="106" transform="translate(-548.66 1063.87) rotate(-50.9)" style="fill:#ffc800"/><rect x="130" y="844" width="106" height="106" transform="translate(-241.52 461.03) rotate(-20.75)" style="fill:#015e01"/><rect x="206.68" y="780.38" width="188.66" height="188.66" transform="translate(-557.45 1149.35) rotate(-67.08)" style="fill:#ffc800"/><rect x="726.72" y="735.71" width="322.03" height="322.03" transform="matrix(0.94, -0.35, 0.35, 0.94, -195.71, 710.71)" style="fill:#015e01"/><rect x="478" y="1024" width="106" height="106" transform="translate(-282.72 596.01) rotate(-20.75)" style="fill:#015e01"/><rect x="499" y="947" width="106" height="106" transform="translate(-254.08 598.46) rotate(-20.75)" style="fill:#ffc800"/><rect x="475.03" y="888.46" width="70.79" height="70.79" transform="translate(-474.84 1372.26) rotate(-67.08)" style="fill:#015e01"/><rect x="403" y="806" width="106" height="106" transform="translate(-210.35 555.29) rotate(-20.75)" style="fill:#015e01"/><rect x="625" y="776" width="106" height="106" transform="translate(-185.32 632.01) rotate(-20.75)" style="fill:#ffc800"/><rect x="608.81" y="954.13" width="187.59" height="188.08" transform="translate(-487.52 1521.84) rotate(-62.34)" style="fill:#ffc800"/><rect x="527.21" y="819.37" width="133.8" height="133.6" transform="translate(-211.02 605.99) rotate(-20.75)" style="fill:#015e01"/><rect x="840.41" y="980" width="151.62" height="151.79" transform="translate(-250.25 731.13) rotate(-20.75)" style="fill:#ffc800"/><rect x="978.51" y="1000.38" width="83.99" height="84.72" transform="translate(-356.59 1606.02) rotate(-54.5)" style="fill:#ffc800"/><rect x="961.96" y="746.85" width="116.3" height="115.64" transform="translate(-183.26 1426.93) rotate(-50.9)" style="fill:#015e01"/><rect x="1778.81" y="710.13" width="187.59" height="188.08" transform="translate(355.4 2427.38) rotate(-62.34)" style="fill:#015e01"/><rect x="1699.23" y="767.04" width="144.98" height="144.67" transform="translate(270.16 2356.89) rotate(-62.34)" style="fill:#ffc800"/><rect x="1302.75" y="911.82" width="102.56" height="101.77" transform="translate(-235.52 1144) rotate(-30)" style="fill:#015e01"/><rect x="1032.38" y="826.18" width="139.74" height="140.1" transform="translate(-138.84 1794.4) rotate(-62.34)" style="fill:#ffc800"/><rect x="1071.37" y="1050.24" width="89.03" height="89.11" transform="translate(-227.25 752.68) rotate(-18.66)" style="fill:#ffc800"/><rect x="1179.57" y="1037.37" width="188.08" height="187.59" transform="translate(-355.79 1288.62) rotate(-35.53)" style="fill:#015e01"/><rect x="1282.84" y="830.36" width="58.09" height="57.87" transform="translate(6.18 1960.29) rotate(-62.34)" style="fill:#ffc800"/><rect x="1140.62" y="1002.41" width="116.08" height="106.79" transform="translate(-228.54 1965.27) rotate(-62.34)" style="fill:#015e01"/><rect x="1146.62" y="924.58" width="61.2" height="61.82" transform="translate(-266.41 1450.28) rotate(-45)" style="fill:#015e01"/><rect x="1193.41" y="887.85" width="100.96" height="100.88" transform="translate(-100.22 1942.38) rotate(-62.34)" style="fill:#015e01"/><rect x="1588.34" y="1032.71" width="121.31" height="121.58" transform="translate(-20.66 2384.34) rotate(-62.34)" style="fill:#015e01"/><rect x="1235.5" y="834.28" width="71.76" height="71.03" transform="translate(-24.82 1930.04) rotate(-62.34)" style="fill:#ffc800"/><rect x="1326.81" y="754.13" width="187.59" height="188.08" transform="translate(74.27 2050.62) rotate(-62.34)" style="fill:#015e01"/><rect x="1233.89" y="710.66" width="79.99" height="80.26" transform="translate(81.92 1868.5) rotate(-62.34)" style="fill:#ffc800"/><rect x="1507.72" y="762.95" width="81.34" height="80.68" transform="translate(182.48 2139.75) rotate(-62.34)" style="fill:#ffc800"/><rect x="1543.02" y="852.6" width="101.11" height="100.85" transform="translate(-152.15 961.21) rotate(-20.75)" style="fill:#015e01"/><rect x="1480.02" y="810.6" width="101.11" height="100.85" transform="translate(-141.35 936.16) rotate(-20.75)" style="fill:#015e01"/><rect x="1783.02" y="852.6" width="101.11" height="100.85" transform="translate(-136.58 1046.25) rotate(-20.75)" style="fill:#015e01"/><rect x="970.02" y="1057.6" width="101.11" height="100.85" transform="translate(-261.95 771.49) rotate(-20.75)" style="fill:#015e01"/><rect x="1596.02" y="778.6" width="101.11" height="100.85" transform="translate(-122.49 975.19) rotate(-20.75)" style="fill:#015e01"/><rect x="1802.57" y="999.4" width="141.04" height="141.28" transform="translate(-193.19 1071.08) rotate(-20.75)" style="fill:#ffc800"/><rect x="1591.02" y="949.6" width="101.11" height="100.85" transform="translate(19.17 2259.66) rotate(-60)" style="fill:#015e01"/><rect x="1798.02" y="977.6" width="101.11" height="100.85" transform="translate(-179.89 1059.67) rotate(-20.75)" style="fill:#015e01"/><rect x="1631.68" y="883.92" width="130.82" height="131.25" transform="translate(-161.91 1000.9) rotate(-20.75)" style="fill:#015e01"/><rect x="1690.96" y="984.61" width="149.26" height="148.86" transform="translate(-196.27 1032.28) rotate(-20.75)" style="fill:#ffc800"/><rect x="1857.44" y="917.93" width="75.56" height="75.92" transform="translate(-151.31 1071.52) rotate(-20.75)" style="fill:#ffc800"/><rect x="354.9" y="708.43" width="44.38" height="44.23" transform="translate(-169.95 519) rotate(-20.75)" style="fill:#015e01"/><rect x="895.02" y="800.6" width="101.11" height="100.85" transform="translate(-175.76 728.24) rotate(-20.75)" style="fill:#ffc800"/><rect x="1493.9" y="675.43" width="44.38" height="44.23" transform="translate(-84.37 920.42) rotate(-20.75)" style="fill:#015e01"/><rect x="251.9" y="637.43" width="44.38" height="44.23" transform="translate(-369.71 905.14) rotate(-60)" style="fill:#ffc800"/><rect x="1825.9" y="526.43" width="44.38" height="44.23" transform="translate(-10.04 1028.39) rotate(-20.75)" style="fill:#015e01"/><rect x="484.61" y="609.18" width="21.95" height="21.72" transform="translate(-123.11 553.82) rotate(-20.75)" style="fill:#015e01"/><rect x="1051.9" y="591.43" width="44.38" height="44.23" transform="translate(-83.28 758.37) rotate(-20.75)" style="fill:#ffc800"/><rect x="723.97" y="609.35" width="44.23" height="44.38" transform="translate(-150.12 1150.31) rotate(-50.9)" style="fill:#015e01"/><rect x="1.9" y="609.43" width="44.38" height="44.23" transform="translate(-157.78 387.5) rotate(-20.75)" style="fill:#015e01"/><rect x="95.9" y="702.43" width="44.38" height="44.23" transform="translate(-184.63 426.84) rotate(-20.75)" style="fill:#ffc800"/><rect x="883.61" y="634.18" width="21.95" height="21.72" transform="translate(-106.09 696.81) rotate(-20.75)" style="fill:#015e01"/><rect x="646.61" y="737.18" width="21.95" height="21.72" transform="translate(-157.96 619.52) rotate(-20.75)" style="fill:#015e01"/><rect x="200.61" y="713.18" width="21.95" height="21.72" transform="translate(-178.39 459.94) rotate(-20.75)" style="fill:#015e01"/><rect x="1135.61" y="703.18" width="21.95" height="21.72" transform="translate(-114.19 790.57) rotate(-20.75)" style="fill:#015e01"/><rect x="1318.61" y="634.18" width="21.95" height="21.72" transform="translate(-77.87 850.94) rotate(-20.75)" style="fill:#015e01"/><rect x="1328.61" y="621.18" width="21.95" height="21.72" transform="translate(-72.61 853.64) rotate(-20.75)" style="fill:#ffc800"/><rect x="1702.61" y="675.18" width="21.95" height="21.72" transform="translate(-67.48 989.65) rotate(-20.75)" style="fill:#ffc800"/><rect x="1655.61" y="648.18" width="21.95" height="21.72" transform="translate(-60.97 971.25) rotate(-20.75)" style="fill:#015e01"/><rect x="1455.61" y="642.18" width="21.95" height="21.72" transform="translate(-71.81 900) rotate(-20.75)" style="fill:#ffc800"/><rect x="1190.22" y="967.95" width="75.79" height="76.45" transform="matrix(0.94, -0.35, 0.35, 0.94, -212.4, 838.41)" style="fill:#ffc800"/><rect x="1283.22" y="880.95" width="75.79" height="76.45" transform="matrix(0.94, -0.35, 0.35, 0.94, -175.54, 865.72)" style="fill:#ffc800"/><rect x="1108.22" y="956.95" width="75.79" height="76.45" transform="matrix(0.94, -0.35, 0.35, 0.94, -213.83, 808.64)" style="fill:#ffc800"/><rect x="1.1" y="1049.7" width="80.8" height="80.6" transform="translate(-319.09 423.42) rotate(-20.75)" style="fill:#ffc800"/><rect x="429.22" y="1056.95" width="75.79" height="76.45" transform="matrix(0.94, -0.35, 0.35, 0.94, -293.31, 574.55)" style="fill:#ffc800"/><rect x="78.02" y="1036.6" width="101.11" height="100.85" transform="translate(-312.38 454.08) rotate(-20.75)" style="fill:#015e01"/><rect x="766.15" y="1036.47" width="100.85" height="101.11" transform="translate(-468.67 1588.69) rotate(-60)" style="fill:#015e01"/><rect x="544.35" y="929.61" width="128.47" height="127.86" transform="translate(-248.12 618.09) rotate(-20.75)" style="fill:#015e01"/><rect x="548.02" y="1087.6" width="101.11" height="100.85" transform="translate(-299.96 623.91) rotate(-20.75)" style="fill:#015e01"/><rect x="1237.02" y="942.6" width="101.11" height="100.85" transform="translate(-203.89 858.63) rotate(-20.75)" style="fill:#015e01"/><rect x="1750.02" y="904.6" width="101.11" height="100.85" transform="translate(-157.14 1037.93) rotate(-20.75)" style="fill:#015e01"/><rect x="1360.02" y="1085.6" width="101.11" height="100.85" transform="translate(-246.57 911.49) rotate(-20.75)" style="fill:#015e01"/><rect x="1303.02" y="1008.6" width="101.11" height="100.85" transform="translate(-175.92 2039.74) rotate(-60)" style="fill:#ffc800"/></svg>