<?xml version="1.0" encoding="utf-8"?>
<!-- Generator: Adobe Illustrator 22.0.0, SVG Export Plug-In . SVG Version: 6.00 Build 0)  -->
<svg version="1.1"
	 id="svg1" inkscape:export-filename="..\Documentos\cemweb\src\assets\sheets\cruzCem.svg" inkscape:export-xdpi="96" inkscape:export-ydpi="96" inkscape:version="1.3.2 (091e20e, 2023-11-25, custom)" sodipodi:docname="Logo cem.svg" xmlns:inkscape="http://www.inkscape.org/namespaces/inkscape" xmlns:sodipodi="http://sodipodi.sourceforge.net/DTD/sodipodi-0.dtd" xmlns:svg="http://www.w3.org/2000/svg"
	 xmlns="http://www.w3.org/2000/svg" xmlns:xlink="http://www.w3.org/1999/xlink" x="0px" y="0px" viewBox="0 0 438.5 157"
	 style="enable-background:new 0 0 438.5 157;" xml:space="preserve">
<style type="text/css">
	.st0{display:none;}
	.st1{display:inline;}
	.st2{fill:#DB833C;fill-opacity:0.9765;}
	.st3{fill:#3D5280;}
	.st4{fill:#446BAF;}
	.st5{display:inline;fill:#F9F9F9;fill-opacity:0.9922;}
	.st6{enable-background:new    ;}
	.st7{fill:#DB833C;}
</style>
<sodipodi:namedview  bordercolor="#ffffff" borderopacity="1" id="namedview1" inkscape:current-layer="layer1" inkscape:cx="218.80966" inkscape:cy="152.86356" inkscape:deskcolor="#505050" inkscape:export-bgcolor="#ffffff00" inkscape:pagecheckerboard="1" inkscape:pageopacity="0" inkscape:showpageshadow="0" inkscape:window-height="1046" inkscape:window-maximized="1" inkscape:window-width="1920" inkscape:window-x="-11" inkscape:window-y="-11" inkscape:zoom="1.9788889" pagecolor="#505050" showgrid="false">
	</sodipodi:namedview>
<g id="layer2" transform="matrix(1.8765432,0,0,1.8765432,91.398687,-142.09582)" inkscape:groupmode="layer" inkscape:label="logo" class="st0">
	<g id="g25" inkscape:label="lineas naranjas" class="st1">
		<path id="path9" class="st2" d="M21,180.7l3.5,0.3l22.6-122L43.6,59L21,180.7z"/>
		<path id="path10" class="st2" d="M26.4,180.9l3.5,0.3L52.6,58.9L49,59L26.4,180.9z"/>
		<path id="path11" sodipodi:nodetypes="ccccc" class="st2" d="M54.6,58.6h3.5L35.9,181.3l-3.2-0.1L54.6,58.6z"/>
		<path id="path12" class="st2" d="M103.1,166.4l3.7-2.8l12.8-68.7l-2.8-4.3L103.1,166.4z"/>
		<path id="path13" sodipodi:nodetypes="ccccc" class="st2" d="M60.8,58.6h3.2L41.3,181.3l-3.3-0.1L60.8,58.6z"/>
		<path id="path14" class="st2" d="M112.4,83.8l2.5,4l-14.7,80.5l-3.5,3.3L112.4,83.8z"/>
		<path id="path15" class="st2" d="M44,181.3l2.8,0.1L69.9,59l-3.9-0.1L44,181.3z"/>
		<path id="path16" sodipodi:nodetypes="ccccc" class="st2" d="M71.9,59.4l2.9,0.8L52.7,181l-3.2,0.3L71.9,59.4z"/>
		<path id="path17" class="st2" d="M89.9,175.4l3.8-2l17.1-91.6l-2.5-3L89.9,175.4z"/>
		<path id="path18" class="st2" d="M55.2,181.2h2.9L80.2,61.5l-3.4-1L55.2,181.2z"/>
		<path id="path19" class="st2" d="M110.3,159.7l3.8-4l9.3-50.2L121,99L110.3,159.7z"/>
		<path id="path20" class="st2" d="M103.2,73.4l2.8,3.5l-17.7,99l-3.8,1.9L103.2,73.4z"/>
		<path id="path21" class="st2" d="M78.2,179.6l3.7-1.4l19.7-105.4L98,69.7L78.2,179.6z"/>
		<path id="path22" class="st2" d="M82.2,62.2l3.4,1.4L64.1,181h-3.4L82.2,62.2z"/>
		<path id="path23" class="st2" d="M87.9,64.4l3.2,1.3L70,180.7l-3.4,0.1L87.9,64.4z"/>
		<path id="path24" class="st2" d="M92.9,66.6l3,1.8L76.1,179.6l-3.7,0.8L92.9,66.6z"/>
		<path id="path25" sodipodi:nodetypes="ccc" class="st2" d="M124.4,110.2l-7.7,41.2C116.7,151.3,129.4,128.6,124.4,110.2
			L124.4,110.2z"/>
	</g>
	<g id="g27" inkscape:label="cruz" class="st1">
		<path id="path26" class="st3" d="M106.5,147.9L11.6,92.5l7.1-11.9L45.1,96L45,65.3l27.9-0.1l-0.1,31.2l26.8-16.2l14.8,24.3
			l-27.5,15.3l27.2,15.9L106.5,147.9z"/>
		<path id="path27" class="st4" d="M11.9,92.2l94.9,55.5l-7.1,11.9l-26.4-15.4l0.1,30.7L45.5,175l0.1-31.2l-26.8,16.2L4,135.7
			l27.5-15.3L4.4,104.5L11.9,92.2z"/>
	</g>
	<path id="path28" class="st5" d="M57.1,65.3l3.8,0.1l-0.4,109.2l-3.7-0.1L57.1,65.3z"/>
	<path id="path29" class="st5" d="M12.3,90.5l-1.8,3.4l95.6,55.6l1.8-3.3L12.3,90.5z"/>
	<path id="path31" class="st5" d="M10,145.8l2,3.3l96.3-54.3l-1.9-3.2L10,145.8z"/>
</g>
<g id="layer1_1_" inkscape:groupmode="layer" inkscape:label="trazado">
	<path id="path1_1_" class="st3" d="M16.3,99.3L29,29.2c0,0,8.6-24.3,31.8-24.3s66.2-0.4,66.2-0.4l-3.5,24.1l-48.5-0.8
		c0,0-17.4-2.7-22.6,17s-8.1,46.9-8.1,46.9S43.8,106,58.5,106s53.2-1,53.2-1s-1.8,23.2-19.4,23.2S44.8,128,44.8,128
		S16.3,130.7,16.3,99.3z"/>
	<path id="path6_1_" sodipodi:nodetypes="cccscscccscscscscc" class="st3" d="M154.6,98.3l0.4-23.3l67-30.5c0,0,9.4-2.5,0.4-13.3
		c-2.7-3.2-46.4-1.6-46.4-1.6s-15.7-1.4-15.7,37.3s-4.9,34-4.9,34l5.3,3.7h79.7c0,0,0.5,24.1-24.1,24.1s-64.1-0.1-64.1-0.1
		s-28.4,0.5-23.1-35.5c5.3-35.4,11.2-65.1,11.2-65.1s8.5-23.3,34.9-23.3s52.1-0.1,52.1-0.1s28.1,1.3,25.7,27.4
		c-2.3,25.6-3.4,27.3-3.4,27.3L154.6,98.3z"/>
	<path id="path7_1_" sodipodi:nodetypes="cccscscscssccscccscsc" class="st3" d="M323.9,128.3l26.9,0.4L366,43.1
		c0,0,1-12.9,14.4-13.3c13.4-0.4,14.6-0.1,14.6-0.1s12.8-1.1,11.7,12.9s-15.1,85.9-15.1,85.9s24.5,0.6,29.3-17.6
		c4.9-18.3,13.8-74.9,13.8-74.9s6-31.6-23.3-31.6c-29.3,0-41.4-4.9-54,12.7c-1.8,2.4-16.2-6.5-16.2-6.5l-30.4-6.6
		c0,0-27.3-2.7-36,22.7c-8.9,25.5-18.6,101.5-18.6,101.5l25.6,0.4l15.7-88c0,0,3.8-11.4,15.3-11.4s13.6-0.4,13.6-0.4
		s12.3,0.5,12.3,12.3S323.9,128.3,323.9,128.3z"/>
	<path id="path8_1_" class="st3" d="M301.7,10.3c-0.3-2.7-0.8-4.9-0.8-4.9s48.8-9.6,56,12C364.3,39.1,301.7,10.3,301.7,10.3
		L301.7,10.3z"/>
</g>
<g class="st6">
	<path class="st7" d="M29.8,149c-1.4,3.2-3.5,4.8-6.4,4.8c-1.7,0-3.2-0.6-4.3-1.9c-1.1-1.3-1.6-3-1.6-5.1c0-2.7,0.7-5,2.1-7
		c1.4-1.9,3.2-2.9,5.4-2.9c1.7,0,3.1,0.5,4.1,1.5c1,1,1.6,2.4,1.7,4.1l-2.6,0.5c-0.2-2.5-1.3-3.7-3.2-3.7c-1.6,0-2.7,0.9-3.4,2.8
		c-0.7,1.9-1,3.6-1,5.3c0,1.3,0.3,2.3,0.9,2.9c0.6,0.7,1.3,1,2.2,1c0.8,0,1.6-0.3,2.2-1c0.7-0.6,1.2-1.4,1.5-2.3L29.8,149z"/>
	<path class="st7" d="M41.7,153.4H31.3l2.7-16.1h10.1l-0.4,2.5h-7.3l-0.7,4.2h6l-0.4,2.4h-6l-0.8,4.5h7.6L41.7,153.4z"/>
	<path class="st7" d="M56.3,153.4H54l-5.5-12.1l-2,12.1h-2.3l2.7-16.1h3l5,11l1.8-11H59L56.3,153.4z"/>
	<path class="st7" d="M71.5,139.9h-4.1l-2.3,13.5h-3l2.3-13.5h-4.1l0.4-2.5h11.1L71.5,139.9z"/>
	<path class="st7" d="M83.5,153.4h-3.1l-1.7-6.6H75l-1.1,6.6H71l2.7-16.1h6c1.2,0,2.2,0.1,2.9,0.3c0.7,0.2,1.3,0.7,1.9,1.5
		c0.6,0.8,0.8,1.6,0.8,2.6c0,1.1-0.3,2-0.9,2.9c-0.6,0.9-1.6,1.5-2.9,1.8L83.5,153.4z M75.3,144.5h4c1.2,0,2-0.3,2.4-0.8
		c0.4-0.5,0.6-1.1,0.6-1.7c0-0.5-0.1-1-0.4-1.3c-0.3-0.4-0.6-0.6-1-0.7c-0.4-0.1-0.9-0.2-1.7-0.2h-3.2L75.3,144.5z"/>
	<path class="st7" d="M99.1,153.4h-3.2l-0.7-3.9h-5.8l-1.8,3.9h-2.7l7.7-16.1h3.6L99.1,153.4z M95,147.3l-1.3-7.1l-3.3,7.1H95z"/>
	<path class="st7" d="M110.5,153.4h-9.6l2.7-16.1h3.1l-2.3,13.5h6.6L110.5,153.4z"/>
	<path class="st7" d="M118.7,153.4l2.7-16.1h4.7c1.1,0,2,0.1,2.6,0.3c0.7,0.2,1.3,0.6,1.9,1.1c0.6,0.6,1.1,1.3,1.5,2.3
		c0.4,1,0.6,2.1,0.6,3.4c0,1.5-0.3,2.9-0.8,4.2c-0.6,1.3-1.2,2.3-2,3c-0.8,0.7-1.6,1.2-2.3,1.4c-0.8,0.2-1.9,0.3-3.3,0.3H118.7z
		 M122,151h2.6c0.9,0,1.5-0.1,2.1-0.3c0.5-0.2,1-0.6,1.5-1.1c0.5-0.5,0.9-1.3,1.1-2.3c0.3-1,0.4-2.1,0.4-3.1c0-0.9-0.1-1.7-0.4-2.4
		c-0.3-0.7-0.7-1.2-1.3-1.5c-0.6-0.3-1.3-0.4-2.3-0.4h-1.7L122,151z"/>
	<path class="st7" d="M144.5,153.4h-10.4l2.7-16.1h10.1l-0.4,2.5h-7.3l-0.7,4.2h6l-0.4,2.4h-6l-0.8,4.5h7.6L144.5,153.4z"/>
	<path class="st7" d="M163.4,153.4H153l2.7-16.1h10.1l-0.4,2.5h-7.3l-0.7,4.2h6l-0.4,2.4h-6l-0.8,4.5h7.6L163.4,153.4z"/>
	<path class="st7" d="M181.6,153.4h-2.9l2.4-14.6l-6.8,14.6h-1.6l-2.2-14.5l-2.4,14.5h-2.2l2.7-16.1h4.4l1.7,10.8l4.9-10.8h4.7
		L181.6,153.4z"/>
	<path class="st7" d="M195.6,153.4h-10.4l2.7-16.1H198l-0.4,2.5h-7.3l-0.7,4.2h6l-0.4,2.4h-6l-0.8,4.5h7.6L195.6,153.4z"/>
	<path class="st7" d="M210.6,153.4h-3.1l-1.7-6.6H202l-1.1,6.6h-2.9l2.7-16.1h6c1.2,0,2.2,0.1,2.9,0.3c0.7,0.2,1.3,0.7,1.9,1.5
		c0.6,0.8,0.8,1.6,0.8,2.6c0,1.1-0.3,2-0.9,2.9c-0.6,0.9-1.6,1.5-2.9,1.8L210.6,153.4z M202.4,144.5h4c1.2,0,2-0.3,2.4-0.8
		c0.4-0.5,0.6-1.1,0.6-1.7c0-0.5-0.1-1-0.4-1.3c-0.3-0.4-0.6-0.6-1-0.7c-0.4-0.1-0.9-0.2-1.7-0.2h-3.2L202.4,144.5z"/>
	<path class="st7" d="M225.6,153.4h-1.2l-0.5-2.2c-0.9,1.6-2.3,2.5-4.4,2.5c-1.7,0-3.1-0.6-4.2-1.8c-1.1-1.2-1.6-2.9-1.6-5.1
		c0-2.7,0.7-5.1,2.2-7c1.4-1.9,3.3-2.9,5.7-2.9c3.1,0,5,1.6,5.9,4.8l-2.5,0.6c-0.5-1.9-1.7-2.9-3.4-2.9c-1.4,0-2.6,0.8-3.4,2.3
		c-0.8,1.5-1.3,3.2-1.3,5.2c0,1.5,0.3,2.6,0.9,3.4c0.6,0.7,1.4,1.1,2.5,1.1c1.8,0,3.1-1.3,3.7-3.8h-3.5l0.4-2.4h6.2L225.6,153.4z"/>
	<path class="st7" d="M239.3,153.4h-10.4l2.7-16.1h10.1l-0.4,2.5H234l-0.7,4.2h6l-0.4,2.4h-6l-0.8,4.5h7.6L239.3,153.4z"/>
	<path class="st7" d="M253.9,153.4h-2.3l-5.5-12.1l-2,12.1h-2.3l2.7-16.1h3l5,11l1.8-11h2.3L253.9,153.4z"/>
	<path class="st7" d="M270.1,149c-1.4,3.2-3.5,4.8-6.4,4.8c-1.7,0-3.2-0.6-4.3-1.9c-1.1-1.3-1.6-3-1.6-5.1c0-2.7,0.7-5,2.1-7
		c1.4-1.9,3.2-2.9,5.4-2.9c1.7,0,3.1,0.5,4.1,1.5c1,1,1.6,2.4,1.7,4.1l-2.6,0.5c-0.2-2.5-1.3-3.7-3.2-3.7c-1.6,0-2.7,0.9-3.4,2.8
		c-0.7,1.9-1,3.6-1,5.3c0,1.3,0.3,2.3,0.9,2.9c0.6,0.7,1.3,1,2.2,1c0.8,0,1.6-0.3,2.2-1c0.7-0.6,1.2-1.4,1.5-2.3L270.1,149z"/>
	<path class="st7" d="M274.7,153.4h-3l2.7-16.1h3L274.7,153.4z"/>
	<path class="st7" d="M290.9,153.4h-3.2l-0.7-3.9h-5.8l-1.8,3.9h-2.7l7.7-16.1h3.6L290.9,153.4z M286.8,147.3l-1.3-7.1l-3.3,7.1
		H286.8z"/>
	<path class="st7" d="M305,140.4l-2.6,1c-0.6-1.3-1.6-2-3.1-2c-0.9,0-1.6,0.2-2.1,0.6c-0.5,0.4-0.7,0.9-0.7,1.6
		c0,0.5,0.2,0.9,0.5,1.2c0.3,0.3,0.9,0.6,1.7,0.8l2.2,0.6c0.6,0.2,1.2,0.5,1.8,0.9c0.6,0.4,1,0.9,1.3,1.5c0.3,0.6,0.4,1.2,0.4,1.9
		c0,1.5-0.5,2.7-1.6,3.8c-1.1,1.1-2.7,1.6-4.8,1.6c-3.2,0-5.3-1.3-6.3-4l2.6-0.9c0.6,1.7,1.9,2.5,3.8,2.5c1.1,0,1.9-0.3,2.4-0.8
		c0.5-0.5,0.8-1.1,0.8-1.7c0-0.4-0.1-0.7-0.3-1c-0.2-0.3-0.5-0.5-0.8-0.6s-0.9-0.3-1.8-0.6c-1.3-0.4-2.2-0.7-2.9-1
		c-0.6-0.3-1.1-0.8-1.5-1.4c-0.4-0.6-0.6-1.4-0.6-2.2c0-1.5,0.5-2.7,1.6-3.6c1.1-0.9,2.5-1.4,4.3-1.4C302.2,137,304,138.1,305,140.4
		z"/>
	<path class="st7" d="M327.7,153.4h-2.9l2.4-14.6l-6.8,14.6h-1.6l-2.2-14.5l-2.4,14.5H312l2.7-16.1h4.4l1.7,10.8l4.9-10.8h4.7
		L327.7,153.4z"/>
	<path class="st7" d="M341.7,153.4h-10.4l2.7-16.1h10.1l-0.4,2.5h-7.3l-0.7,4.2h6l-0.4,2.4h-6l-0.8,4.5h7.6L341.7,153.4z
		 M342.5,132.2l0.8,1.6l-4.9,2.2l-0.5-1.3L342.5,132.2z"/>
	<path class="st7" d="M344.2,153.4l2.7-16.1h4.7c1.1,0,2,0.1,2.6,0.3c0.7,0.2,1.3,0.6,1.9,1.1c0.6,0.6,1.1,1.3,1.5,2.3
		c0.4,1,0.6,2.1,0.6,3.4c0,1.5-0.3,2.9-0.8,4.2c-0.6,1.3-1.2,2.3-2,3c-0.8,0.7-1.6,1.2-2.3,1.4c-0.8,0.2-1.9,0.3-3.3,0.3H344.2z
		 M347.5,151h2.6c0.9,0,1.5-0.1,2.1-0.3c0.5-0.2,1-0.6,1.5-1.1s0.9-1.3,1.1-2.3c0.3-1,0.4-2.1,0.4-3.1c0-0.9-0.1-1.7-0.4-2.4
		c-0.3-0.7-0.7-1.2-1.3-1.5c-0.6-0.3-1.3-0.4-2.3-0.4h-1.7L347.5,151z"/>
	<path class="st7" d="M362.5,153.4h-3l2.7-16.1h3L362.5,153.4z"/>
	<path class="st7" d="M378.8,149c-1.4,3.2-3.5,4.8-6.4,4.8c-1.7,0-3.2-0.6-4.3-1.9c-1.1-1.3-1.6-3-1.6-5.1c0-2.7,0.7-5,2.1-7
		c1.4-1.9,3.2-2.9,5.4-2.9c1.7,0,3.1,0.5,4.1,1.5c1,1,1.6,2.4,1.7,4.1l-2.6,0.5c-0.2-2.5-1.3-3.7-3.2-3.7c-1.6,0-2.7,0.9-3.4,2.8
		c-0.7,1.9-1,3.6-1,5.3c0,1.3,0.3,2.3,0.9,2.9c0.6,0.7,1.3,1,2.2,1c0.8,0,1.6-0.3,2.2-1c0.7-0.6,1.2-1.4,1.5-2.3L378.8,149z"/>
	<path class="st7" d="M392.9,153.4h-3.2l-0.7-3.9h-5.8l-1.8,3.9h-2.7l7.7-16.1h3.6L392.9,153.4z M388.8,147.3l-1.3-7.1l-3.3,7.1
		H388.8z"/>
	<path class="st7" d="M407,140.4l-2.6,1c-0.6-1.3-1.6-2-3.1-2c-0.9,0-1.6,0.2-2.1,0.6c-0.5,0.4-0.7,0.9-0.7,1.6
		c0,0.5,0.2,0.9,0.5,1.2c0.3,0.3,0.9,0.6,1.7,0.8l2.2,0.6c0.6,0.2,1.2,0.5,1.8,0.9c0.6,0.4,1,0.9,1.3,1.5c0.3,0.6,0.4,1.2,0.4,1.9
		c0,1.5-0.5,2.7-1.6,3.8c-1.1,1.1-2.7,1.6-4.8,1.6c-3.2,0-5.3-1.3-6.3-4l2.6-0.9c0.6,1.7,1.9,2.5,3.8,2.5c1.1,0,1.9-0.3,2.4-0.8
		c0.5-0.5,0.8-1.1,0.8-1.7c0-0.4-0.1-0.7-0.3-1c-0.2-0.3-0.5-0.5-0.8-0.6s-0.9-0.3-1.8-0.6c-1.3-0.4-2.2-0.7-2.9-1
		c-0.6-0.3-1.1-0.8-1.5-1.4c-0.4-0.6-0.6-1.4-0.6-2.2c0-1.5,0.5-2.7,1.6-3.6c1.1-0.9,2.5-1.4,4.3-1.4C404.1,137,406,138.1,407,140.4
		z"/>
</g>
</svg>
