<?xml version="1.0" encoding="utf-8"?>
<!-- Generator: Adobe Illustrator 22.0.0, SVG Export Plug-In . SVG Version: 6.00 Build 0)  -->
<svg version="1.1" id="Layer_1" xmlns="http://www.w3.org/2000/svg" xmlns:xlink="http://www.w3.org/1999/xlink" x="0px" y="0px"
	 viewBox="0 0 612 164.7" style="enable-background:new 0 0 612 164.7;" xml:space="preserve">
<style type="text/css">
	.st0{display:none;fill:#FFFFFF;}
	.st1{fill:#A9ABAE;}
	.st2{fill:#20BDB3;}
	.st3{fill:#AC0DA5;}
	.st4{fill:#F3DCF2;}
	.st5{fill:#B4B6B8;}
</style>
<path class="st0" d="M612.3,121.9c0,13.6,0,27.2,0,40.8c-180.8,0-361.6,0-542.6-0.1c1.1-1,1.3-2.3,1.3-3.6c0-11.6,0-23.2,0-34.8
	c0-0.5,0-1.1,0-1.8c69.6,0,138.9,0,208.5,0c-4.8-4.3-6.5-9.5-6.4-15.5c0.1-6.2,2.4-11,7.8-14.6c-66.9,0-133.5,0-200.1,0
	c0,0.5-0.1,1-0.1,1.5c0,2.6,0,5.1,0,7.7c0,2.9-1.7,4.5-4.4,4.5c-7-0.1-14,0-21,0c-0.2,0-0.2,0.1-0.2,0.4c0,7.1,0,14,0,20.9
	c0,3-1.4,4.3-4.3,4.3c-1.4,0-2.8,0-4.3,0c-1.9,0-3.9,0-5.8,0c0,0.5-0.1,0.7-0.1,1c0,9.1,0,18.2,0.1,27.3c0,0.9,0.9,1.8,1.4,2.7
	c-13.9,0-27.7,0-41.6,0c0-13.8,0-27.6,0.1-41.4c0.7,1,1.8,1.2,3,1.2c9,0,18,0,26.9,0c0.5,0,1-0.1,1.5-0.1c0-5.6,0-10.9,0-16.4
	c-0.6,0-1.1,0-1.7,0c-6.7,0-13.3,0-20,0c-0.6,0-1.2,0-1.7-0.2c-1.6-0.6-2.2-1.6-2.2-3.4c0-3.3,0-6.6,0-10.1c-1.1,0-2,0.1-2.8,0
	c-1.3-0.1-2.4,0.3-3.1,1.4c0-30.9,0-61.7,0-92.6C26.3,1,52,1,77.9,1.1C78,28.3,78,55.4,78,82.4c0,1.3,0.3,1.8,1.7,1.8
	c12-0.1,23.9,0,35.9-0.1c2.4,0,4.8-0.6,7-1.6c4.6-2.2,8.4-5.3,11.3-9.4c2.3-3.2,3.9-6.7,3.7-10.8c-0.1-2-0.1-4-0.3-5.9
	c-0.4-3-1.1-5.9-2.9-8.3c-1.4-1.9-2.9-3.7-4.5-5.7c0.6-0.6,1.4-1.2,2-1.9c2.1-2.3,4-4.8,4.9-7.9c0.9-3.3,1-6.6,0.8-9.9
	c-0.1-1.9-0.5-3.9-1.1-5.7c-1.4-4.1-3.9-7.7-7.4-10.3c-2.1-1.5-4.4-2.9-6.7-3.9c-2-0.9-4.2-1.2-6.4-1.7c16.9,0,33.8,0,50.8,0.1
	c-3.8,0.2-7.6,0.7-11.2,1.9c-7,2.3-11.6,6.9-13.8,13.9c-1,3.1-1.1,6.4-1,9.6c0.1,3.3,0.8,6.4,2.3,9.3c1.3,2.5,3,4.8,4.4,7
	c-1.2,1.7-2.7,3.4-3.8,5.4c-2.8,5.3-3.6,11-2.4,17c1.1,5.3,3.8,9.6,7.9,12.9c5.3,4.1,11.5,5.7,18.2,5.8c7.4,0.1,14.8,0,22.2,0
	c0.4,0,0.9,0,1.3,0c2.9,0,5.8,0,8.8,0c0-4.2,0-8.5,0-12.8c-0.6,0-1.1,0-1.6,0c-10.4,0-20.8,0-31.2,0c-1.1,0-2.2-0.1-3.2-0.3
	c-7.2-1.1-11.4-9.4-7.3-16.2c2.1-3.5,5.4-5.1,9.4-5.1c7-0.1,14,0,20.9,0c0.5,0,1,0,1.6,0c0-4.9,0-9.7,0-14.5c-0.6,0-1.1,0-1.6,0
	c-6.8,0-13.6,0-20.4,0c-0.8,0-1.7-0.2-2.5-0.3c-5.5-0.5-9.8-5.4-9.3-11.1c0.3-3.1,1.6-5.6,4-7.4c2.5-1.9,5.5-2.6,8.6-2.6
	c10.4-0.1,20.8,0,31.2,0c0.5,0,1,0,1.6,0c0-4.3,0-8.4,0-12.5c1.8,0,3.6,0,5.6,0.1c0.1,27.8,0.1,55.4,0.1,83c4.6,0,9,0,13.4,0
	c0-13.6,0-27,0-40.5c0.1-0.1,0.2-0.1,0.3-0.2c0.1,0.2,0.3,0.5,0.4,0.7c3.4,4.9,6.8,9.9,10.3,14.8c5.5,8,11.1,16.1,16.6,24.2
	c0.5,0.7,1,1.1,1.9,1.1c4.4,0,8.7,0,13.1,0c0.3,0,0.6-0.1,1-0.2c-8.3-11.6-16.5-23-24.7-34.3c2.2-0.5,4.4-0.8,6.5-1.4
	c6.2-2,10.9-6,14.4-11.5c2.8-4.3,3.9-8.9,3.3-13.9c-0.6-4.9-2.3-9.5-5.2-13.6c-2.6-3.7-5.8-6.8-10.3-7.9c-0.6-0.2-1.2-0.3-1.8-0.5
	c7.9,0,15.8,0,23.8,0.1c0.1,27.8,0.1,55.4,0.1,83c4.5,0,8.8,0,13.2,0c0-23.1,0-46.2,0-69.6c7,23.5,14,46.6,20.9,69.7
	c4.2,0,8.3-0.1,12.5,0.1c1.4,0,1.9-0.5,2.2-1.7c2.5-8.7,5-17.3,7.4-26c1.9-6.6,3.8-13.1,5.7-19.7c1.3-4.7,2.7-9.4,4-14.1
	c0.8-2.6,1.6-5.2,2.4-7.8c0.1,0,0.1,0,0.2,0c0,23,0,46,0,69c4.3,0,8.5,0,12.8,0c0-27.8,0-55.5,0-83.1c1.9,0,3.8,0,5.9,0.1
	c0.1,19.7,0.1,39.3,0.1,58.8c0,1.2,0.1,2.4,0.3,3.5c1.2,5.3,3.8,9.6,8,13.1c6.3,5.2,13.6,7.4,21.6,7.6c3,0.1,6.1-0.3,9.1-0.8
	c6.2-1.2,11.6-4,15.7-8.9c4.3-5.1,6.1-11,6.2-17.4C417,38.3,417,19.7,417,1c1.7,0,3.4,0,5.3,0.1c0.1,27.8,0.1,55.4,0.1,83.1
	c0.5,0,0.7,0,1,0c12.3,0,24.6,0,36.9,0c1.5,0,3-0.4,4.4-0.8c5-1.5,9.1-4.4,12.4-8.4c2.9-3.5,4.6-7.4,4.6-12c0-13.4,0-26.9,0-40.3
	c0-1.3,0-2.6-0.3-3.9c-1.6-8.1-6.2-13.7-14-16.6c-1.4-0.5-3-0.8-4.5-1.1c16.6,0,33.3,0,50,0.1c-4.8,0.3-9.4,1.5-13.6,4.1
	c-3.5,2.1-6.1,5.1-7.8,8.8c-2.3,5-2.6,10.4-1.8,15.7c0.8,5.1,2.8,9.7,6.9,13.3c-2.8,2.4-4.5,5.4-5.8,8.7c-1.5,4-1.8,8.2-1.1,12.4
	c0.9,5.9,3.7,10.8,8.6,14.4c5.3,3.9,11.3,5.4,17.8,5.4c7.9,0.1,15.8,0,23.7,0c0.4,0,0.9,0,1.3,0c2.4,0.1,4.9,0.2,7.3,0.4
	c0-4.6,0-8.9,0-13.2c-0.6,0-1.1,0-1.7,0c-10.7,0-21.4,0-32.1,0c-4.7,0-8.3-2-10.4-6.5c-1.7-3.7-0.8-8.7,1.9-11.6
	c2.4-2.6,5.4-3.5,8.7-3.5c6.8-0.1,13.7,0,20.5,0c0.5,0,1,0,1.5,0c0-4.9,0-9.7,0-14.5c-7.6,0-15.1,0.1-22.6,0
	c-4.2-0.1-7.7-1.6-10-5.4c-2.3-3.9-1.7-8.8,1.3-12c2.7-3,6.3-3.8,10-3.9c10.4-0.1,20.8,0,31.2,0c0.5,0,1,0,1.6,0c0-4.3,0-8.4,0-12.5
	c1.8,0,3.6,0,5.6,0.1c0.1,4.2,0.1,8.3,0.1,12.4c14.6,0,29,0,43.5,0c0,0.2,0,0.3-0.1,0.4c-3.5,4.7-7.1,9.4-10.6,14.1
	c-5.3,6.9-10.6,13.8-15.8,20.7c-5,6.6-9.9,13.2-15,19.7c-1.4,1.8-2.1,3.6-2,5.9c0.2,2.9,0,5.8,0,8.7c0,0.4,0.1,0.8,0.1,1
	c19.6,0,39,0,58.4,0c0,7.3,0,14.6-0.1,22.1c-0.4-2.1-1.7-3.5-3.7-4.1c-3.3-1-6.5-0.5-9.6,1c-1,0.5-1.2,1.3-1.3,2.1
	c-0.2,1.2,0.6,1.7,1.7,1.2c1.3-0.6,2.6-1.2,4-1.6c1.8-0.4,3.7-0.2,4.6,1.5c0.7,1.1,0.6,2.6,0.9,4c-2.4,0.2-4.4,0.1-6.4,0.5
	c-3.9,0.7-5.7,2.4-5.8,5.7c-0.1,4.9,3.7,6.7,7.8,6.1c1.6-0.2,3.1-1.2,4.4-1.8c0.3,0.5,0.5,1.4,0.9,1.6
	C610.6,122.3,611.5,122,612.3,121.9 M53.6,104c7.5,0,14.9,0,22.4,0c2.2,0,2.7-0.4,2.7-2.6c0-4.7,0-9.3,0-14c0-1.9-0.6-2.5-2.5-2.5
	c-7.2,0-14.3,0-21.5,0c-0.5,0-1,0-1.6,0c0-0.7,0-1.2,0-1.7c0-7.2,0-14.3,0-21.5c0-1.7-0.7-2.4-2.4-2.4c-4.7,0-9.4,0-14.1,0
	c-2.5,0-2.6,0.1-2.6,2.5c0,7.2,0,14.3,0,21.5c0,0.5,0,1,0,1.6c-0.7,0-1.2,0-1.7,0c-7.2,0-14.4,0-21.7,0c-2.1,0-2.2,0.2-2.2,2.1
	c0,4.9,0,9.9,0,14.8c0,2,0.2,2.1,2.1,2.1c7.3,0,14.6,0,21.9,0c0.5,0,1,0,1.6,0c0,0.7,0,1.2,0,1.6c0,7.2,0,14.4,0,21.7
	c0,2.2,0.1,2.4,2.3,2.4c4.7,0,9.3,0,14,0c2.5,0,2.8-0.4,2.8-2.9c0-7.5,0-15,0.2-22.6C53.2,104.2,53.3,104.1,53.6,104 M55,74.8
	c0,2.7,0,5.4,0,8c5.4,0,10.6,0,16,0c0-2.4,0-4.6,0-6.9c0-6.8,0-13.6,0-20.4c0-2.5-0.9-3.7-2.9-3.7c-8.3,0-16.5,0-24.8,0
	c-1.4,0-2.5,0.6-2.7,2c-0.2,1.1,0,2.2,0,3.3c0.3,0.1,0.4,0.1,0.5,0.1c3.1,0,6.2,0,9.3,0c3.4,0,4.7,1.4,4.8,4.7
	C55,66.1,55,70.3,55,74.8 M568.1,116c0.1,0.2,0.2,0.4,0.2,0.7c1,5.5,6.8,7.1,10.8,4.8c1-0.5,1.9-1.3,2.9-2.1c0,0.5,0,0.9,0,1.2
	c-0.2,1.3,0.4,1.6,1.6,1.6c1.3,0,1.6-0.5,1.6-1.7c0-6.8,0-13.6,0-20.4c0-2,0-4.1,0-6.1c0-0.9-0.3-1.2-1.2-1.3
	c-2.5,0-2.5-0.1-2.5,2.4c0,0.3,0,0.6,0,0.9c0,2.6,0,5.1,0,8c-0.4-0.4-0.6-0.6-0.8-0.8c-2.7-2.5-7.6-2.3-10,0.2
	C567.2,107.1,567.6,111.4,568.1,116 M464.2,96.3c-1.6-1-3.3-1.4-5.2-1.4c-2.2,0-4.4,0.1-6.5,0c-1.4,0-1.8,0.5-1.8,1.8
	c0,8,0.1,16,0,24.1c0,1.5,0.8,1.5,1.9,1.5s1.9,0,1.9-1.5c-0.1-3,0-5.9,0-8.9c2.3-0.2,4.5-0.1,6.6-0.5c3.9-0.8,6-3.5,6.4-7.3
	C467.8,101,467,98.3,464.2,96.3 M292.8,122.5c0.5-0.1,0.9-0.1,1.4-0.3c1.9-0.7,3.7-1.3,5.5-2.1c0.7-0.3,1.1-2.7,0.6-3.3
	c-0.9-0.9-1.6,0-2.3,0.4c-2.1,1.1-4.2,2-6.7,1.5c-2.8-0.5-4.7-2-5.7-4.7c-1.2-3.2-1.4-6.5-0.5-9.7c1.2-4.8,5-8.1,10.6-5.9
	c1.4,0.5,2.7,1.3,4,2c1.4-1.8,0.4-3.8-1.1-4.6c-2.4-1.3-4.8-1.5-7.5-1.4c-4.1,0.2-7.8,3.2-9.2,6.7c-1.4,3.5-1.7,7-1.2,10.7
	C281.8,118.9,285.6,122.4,292.8,122.5 M541.1,119.3c1.2,2.2,3.3,3,5.6,3.2c2.4,0.2,4.4-0.8,6.4-2.3c-0.4,1.8,0.5,2,1.8,2
	c1.4,0,1.6-0.8,1.6-1.9c-0.1-4.5-0.2-9-0.3-13.5c0-2.1-1.1-3.5-2.9-4.4c-2.4-1.2-4.9-1.2-7.5-0.5c-1.2,0.3-2.4,0.9-3.6,1.5
	c-0.6,0.3-1,2.3-0.5,2.8c0.8,0.8,1.4,0,2.1-0.3c1.4-0.5,2.8-1.1,4.2-1.3c0.9-0.1,2,0.1,2.8,0.5c1.9,1.1,1.9,3,1.9,4.9
	c-2.1,0.2-4.2,0.2-6.2,0.5c-1.8,0.2-3.5,0.9-4.7,2.4C540.3,114.8,540.6,116.9,541.1,119.3 M413.9,103.3c-0.3,0.4-0.8,0.8-0.8,1.3
	c-0.1,0.6,0.1,1.3,0.4,1.8c0.1,0.2,1-0.1,1.5-0.2c1.2-0.4,2.3-0.9,3.5-1.3c3.8-1.2,6.5,1.4,5.5,5.3c-2,0.1-4.1,0.1-6,0.5
	c-1.9,0.3-3.8,1-4.9,2.9c-1.3,2.3-1.3,5.2,0.5,7c1.7,1.9,4.1,2.4,6.6,1.9c1.6-0.4,3.1-1.3,4.6-2c0-0.1,0,0.1,0,0.2
	c-0.2,1.3,0.3,1.7,1.7,1.7c1.4,0,1.5-0.6,1.5-1.7c0-4,0-8.1,0-12.1c0-4.8-3.4-7.8-8.1-7C417.8,101.8,416,102.6,413.9,103.3
	 M356.6,116.7c0,1.5,0,2.9,0,4.4c0,0.9,0.3,1.2,1.2,1.1c0.5,0,1.1,0.1,1.5-0.1s0.9-0.7,0.9-1.1c0-4.5-0.1-9-0.2-13.5
	c-0.1-5.3-5.6-7.5-9.7-5.3c-1.1,0.6-2,1.4-3.1,2.1c0-0.8,0-1.5,0-2.3c-0.3-0.1-0.5-0.1-0.7-0.2c-1.8-0.6-2.7,0-2.7,1.9
	c0,5.7,0,11.4,0,17.1c0,1.5,1,1.3,1.9,1.3c1,0,1.9,0.1,1.9-1.4c-0.1-3.1,0.1-6.2-0.1-9.3c-0.2-2.4,0.5-4.1,2.3-5.5
	c1.2-1,2.5-1.5,4-1.1c1.7,0.5,2.5,1.8,2.6,3.5C356.4,111.1,356.5,113.7,356.6,116.7 M520.6,121.1c0.6,1.5,1.9,1.1,3,1.2
	c1.3,0.1,2-0.4,2.4-1.7c1.5-4.3,3.1-8.5,4.6-12.8c0.6-1.8,1.1-3.7,1.7-5.5c-2.7-1.1-3.6-0.7-4.4,1.7c-1,2.9-2,5.9-3,8.8
	c-0.5,1.5-1.1,3.1-1.7,4.9c-1.7-5-3.3-9.6-4.8-14.1c-0.5-1.6-1.8-2.2-3.4-1.8c-0.3,0.1-0.5,0.2-0.9,0.3c0.1,0.6,0.2,1.2,0.4,1.8
	C516.5,109.6,518.5,115.2,520.6,121.1 M389.4,105.3c-1.7,3-1.6,6.3-1.4,9.6c0.2,1.9,0.8,3.7,2.2,5.2c2.9,2.9,7.6,3.2,11.3,0.9
	c1.3-0.8,1.8-2,1.4-3.3c-0.3-0.9-0.7-1.2-1.6-0.5c-0.8,0.6-1.8,1.2-2.7,1.7c-1.9,0.9-4.6,0.2-5.7-1.7c-1.8-3.1-1.8-6.3-0.5-9.5
	c0.9-2.3,2.7-3.3,5.2-2.8c1.2,0.3,2.3,1.1,3.5,1.6c0.4,0.2,0.8,0.4,1.2,0.3c0.2-0.1,0.3-0.7,0.4-1c0.1-2.3-0.3-2.8-2.5-3.5
	C396.1,101,392.3,101.4,389.4,105.3 M314.7,113c0-6.7,0-13.4,0-20c-0.6-0.1-1.1-0.3-1.5-0.3c-1.2-0.2-2.2,0.4-2.2,1.4
	c0,9,0,17.9,0,26.9c0,1.7,1.2,1.2,2.1,1.2c0.9,0.1,1.7,0,1.6-1.3C314.6,118.4,314.7,115.8,314.7,113 M482.6,118.4
	c0-2.5,0.1-4.9,0-7.4c-0.1-1.7,0.6-2.8,1.5-4c1.3-1.7,2.9-2.3,4.9-1.5c0.2,0.1,0.6,0.1,0.7,0c0.6-0.4,0.4-3.3-0.3-3.5
	c-0.9-0.3-2-0.5-2.9-0.4c-1.8,0.1-3,1.4-4.1,2.9c-0.3-3-0.9-3.4-3.5-2.4c0,6.1,0,12.3,0,18.5c0,1.5,0.7,1.6,1.8,1.6
	c1.1,0,2.1,0,1.9-1.6C482.5,120,482.6,119.3,482.6,118.4 M327.5,103.6c0,5.7,0.1,11.5,0,17.2c0,1.5,0.8,1.4,1.8,1.4s2,0.2,1.9-1.4
	c-0.1-5.7,0-11.4,0-17.1c0-1.6-0.5-2.1-2.1-2c-0.5,0-1.1,0.2-1.6,0.4C327.5,102.6,327.5,102.9,327.5,103.6 M376.5,106.1
	c0-0.9,0-1.7,0-2.6c0-1.3-0.9-2.1-2.2-1.8c-0.5,0.1-1,0.3-1.5,0.4c0,6.2,0,12.4,0,18.7c0,1.5,0.9,1.4,1.8,1.4c1,0,2,0.1,1.9-1.4
	C376.5,116,376.5,111.2,376.5,106.1 M504,105.3c0-1,0-2.1,0-3.1c-0.5-0.2-0.9-0.3-1.4-0.4c-1.4-0.3-2.3,0.5-2.3,1.9
	c0,5.7,0,11.5,0,17.2c0,1.5,0.8,1.4,1.8,1.4s2,0.1,1.9-1.4C503.9,115.7,504,110.6,504,105.3 M329.7,94.6c-0.9,1.4-1.7,2.8-2.6,4.3
	c1.4,0.8,2.5,0.8,3.4-0.3c1.3-1.5,2.6-3.1,3.8-4.7c0.6-0.8,0-1.2-0.7-1.3C331.9,92.4,330.5,92.6,329.7,94.6 M372.7,94.9
	c-0.8,2.7,0,4,2.5,3.7c0.8-0.1,1.7-0.4,1.7-1.5c0-1.2,0.3-2.7-1.3-2.9C374.6,94,373.7,94.5,372.7,94.9 M504.3,95.8
	c-0.2-0.5-0.3-1.2-0.6-1.4c-0.9-0.7-3-0.5-3.3,0.4s-0.4,2.2-0.1,3c0.5,1.1,1.8,0.9,2.8,0.7C504.5,98.1,504.3,97,504.3,95.8z"/>
<path class="st1" d="M55.3,106c7,0,14-0.1,20.9,0c2.7,0,4.4-1.5,4.4-4.5c0-2.6,0-5.1,0-7.7c0-0.5,0-0.9,0.1-1.5
	c66.7,0,133.2,0,200.1,0c-5.4,3.5-7.8,8.3-7.8,14.6c-0.1,6,1.6,11.2,6.4,15.5c-69.6,0-138.9,0-208.5,0c0,0.7,0,1.2,0,1.8
	c0,11.6,0,23.2,0,34.8c0,1.4-0.2,2.6-1.4,3.6c-9.2,0.1-18.3,0.1-27.6,0.1c-0.6-0.9-1.5-1.8-1.5-2.7c-0.1-9.1-0.1-18.2-0.1-27.3
	c0-0.3,0-0.6,0.1-1c2,0,3.9,0,5.8,0c1.4,0,2.8,0,4.3,0c2.9,0,4.3-1.4,4.3-4.3c0-6.9,0-13.8,0.1-20.9C55.2,106.2,55.3,106.1,55.3,106
	z"/>
<path class="st2" d="M349.6,1.1c0.1,27.7,0.1,55.4,0.1,83.1c-4.3,0-8.5,0-12.8,0c0-23,0-46,0-69c-0.1,0-0.1,0-0.2,0
	c-0.8,2.6-1.6,5.2-2.4,7.8c-1.4,4.7-2.7,9.4-4,14.1c-1.9,6.6-3.8,13.1-5.7,19.7c-2.5,8.7-5,17.3-7.4,26c-0.3,1.1-0.8,1.7-2.2,1.7
	c-4.1-0.1-8.3-0.1-12.5-0.1c-6.9-23.1-13.9-46.2-20.9-69.7c0,23.4,0,46.4,0,69.6c-4.4,0-8.7,0-13.2,0c0-27.6,0-55.2,0-83
	c7.4-0.1,14.8-0.1,22.4,0c6.2,20.8,12.2,41.4,18.3,62c0.1,0,0.2,0,0.3,0c5.6-20.7,11.3-41.4,16.9-62.1
	C334.1,1.1,341.8,1.1,349.6,1.1z"/>
<path class="st2" d="M115.6,1.1c2.3,0.5,4.5,0.8,6.5,1.7c2.4,1,4.7,2.4,6.7,3.9c3.5,2.6,6,6.2,7.4,10.3c0.6,1.8,1,3.8,1.1,5.7
	c0.2,3.3,0.1,6.7-0.8,9.9c-0.9,3.1-2.7,5.6-4.9,7.9c-0.6,0.7-1.4,1.3-2,1.9c1.6,2,3.1,3.8,4.5,5.7c1.8,2.5,2.5,5.4,2.9,8.3
	c0.3,2,0.2,3.9,0.3,5.9c0.2,4.1-1.4,7.6-3.7,10.8c-2.9,4.1-6.7,7.3-11.3,9.4c-2.2,1-4.6,1.6-7,1.6c-12,0.1-23.9,0-35.9,0.1
	c-1.4,0-1.7-0.5-1.7-1.8c0-27.1,0-54.1,0-81.3C90.4,1.1,102.9,1.1,115.6,1.1 M91.2,52.8c0,6.1,0,12.2,0,18.4
	c8.1,0,15.9,0.1,23.8-0.1c1.8,0,3.3-1,4.4-2.6c2.9-4,3.1-8.4,1.7-12.9c-1.3-4.1-3.2-6.3-8.4-6.2c-6.6,0.1-13.3,0-19.9,0
	c-0.5,0-1,0-1.6,0C91.2,50.7,91.2,51.6,91.2,52.8 M114.4,13.9c-1.7-0.1-3.5-0.3-5.2-0.3c-5.5,0-10.9,0-16.4,0c-0.5,0-1,0-1.5,0
	c0,7.2,0,14.3,0,21.4c7.7,0,15.3,0.1,22.9,0c2.7,0,4.7-1.6,6-4c1.5-2.9,2-5.9,1.3-9.1C120.6,18,118.8,15,114.4,13.9z"/>
<path class="st2" d="M244.4,1.1c0.7,0.2,1.3,0.3,1.9,0.5c4.6,1.1,7.7,4.2,10.3,7.9c2.9,4.1,4.6,8.6,5.2,13.6s-0.6,9.6-3.3,13.9
	c-3.5,5.5-8.2,9.4-14.4,11.5c-2.1,0.7-4.3,1-6.5,1.4c8.1,11.3,16.4,22.8,24.7,34.3c-0.4,0.1-0.7,0.2-1,0.2c-4.4,0-8.7,0-13.1,0
	c-0.9,0-1.5-0.4-1.9-1.1c-5.5-8.1-11.1-16.1-16.6-24.2c-3.4-4.9-6.8-9.9-10.3-14.8c-0.2-0.2-0.3-0.5-0.4-0.7
	c-0.1,0.1-0.2,0.1-0.3,0.2c0,13.5,0,26.9,0,40.5c-4.5,0-8.9,0-13.4,0c0-27.6,0-55.2,0-83C218.3,1.1,231.3,1.1,244.4,1.1 M247.2,25
	c0.1-2.2-0.6-4.2-1.7-6.1c-2.5-4-6.4-5.2-10.7-5.3c-4.9-0.1-9.9,0-14.8,0c-0.4,0-0.8,0.1-1,0.1c0,8.6,0,17,0,25.6
	c6.1,0,12,0.1,17.9-0.1c2.6-0.1,4.9-1.3,6.6-3.2C246,32.9,247.4,29.3,247.2,25z"/>
<path class="st2" d="M462.5,1.1c1.6,0.4,3.2,0.6,4.6,1.1c7.8,2.9,12.4,8.5,14,16.6c0.3,1.3,0.3,2.6,0.3,3.9c0,13.4,0,26.9,0,40.3
	c0,4.6-1.7,8.5-4.6,12c-3.3,4.1-7.4,7-12.4,8.4c-1.4,0.4-2.9,0.8-4.4,0.8c-12.3,0.1-24.6,0-36.9,0c-0.3,0-0.6,0-1,0
	c0-27.7,0-55.3,0-83.1C435.6,1.1,449,1.1,462.5,1.1 M468.6,32c0-2.7,0.2-5.4,0-8.1c-0.2-3.5-1.6-6.4-4.8-8.3c-2.4-1.5-5.2-1.9-7.9-2
	c-6.8-0.1-13.7,0-20.5,0c-0.4,0-0.8,0.1-1.2,0.1c0,19.2,0,38.3,0,57.5c0.6,0,1.1,0,1.6,0c7,0,14,0.1,20.9,0c1.7,0,3.5-0.4,5.2-0.9
	c3.8-1.1,6.8-5.5,6.7-9.2C468.5,51.5,468.6,41.9,468.6,32z"/>
<path class="st2" d="M548,1.1c0.1,4.1,0.1,8.2,0.1,12.5c-0.6,0-1.1,0-1.6,0c-10.4,0-20.8-0.1-31.2,0c-3.7,0-7.3,0.9-10,3.9
	c-2.9,3.2-3.5,8.2-1.3,12c2.3,3.8,5.8,5.3,10,5.4c7.5,0.1,15,0,22.6,0c0,4.8,0,9.6,0,14.5c-0.5,0-1,0-1.5,0c-6.8,0-13.7-0.1-20.5,0
	c-3.3,0-6.3,0.9-8.7,3.5c-2.8,3-3.6,7.9-1.9,11.6c2,4.5,5.6,6.5,10.4,6.5c10.7,0,21.4,0,32.1,0c0.5,0,1,0,1.7,0c0,4.4,0,8.7,0,13.2
	c-2.4-0.1-4.9-0.3-7.3-0.4c-0.4,0-0.9,0-1.3,0c-7.9,0-15.8,0-23.7,0c-6.4,0-12.5-1.5-17.8-5.4c-4.9-3.6-7.7-8.4-8.6-14.4
	c-0.7-4.2-0.4-8.4,1.1-12.4c1.3-3.3,3-6.3,5.8-8.7c-4.1-3.6-6-8.2-6.9-13.3c-0.9-5.4-0.6-10.7,1.8-15.7c1.7-3.7,4.3-6.6,7.8-8.8
	c4.2-2.6,8.8-3.8,13.7-4.1C524.5,1.1,536.2,1.1,548,1.1z"/>
<path class="st2" d="M199.4,1.1c0.1,4.1,0.1,8.2,0.1,12.5c-0.6,0-1.1,0-1.6,0c-10.4,0-20.8,0-31.2,0c-3.1,0-6.1,0.7-8.6,2.6
	c-2.4,1.8-3.7,4.3-4,7.4c-0.5,5.7,3.8,10.6,9.3,11.1c0.8,0.1,1.7,0.3,2.5,0.3c6.8,0,13.6,0,20.4,0c0.5,0,1,0,1.6,0
	c0,4.9,0,9.6,0,14.5c-0.5,0-1.1,0-1.6,0c-7,0-14,0-20.9,0c-4,0-7.3,1.7-9.4,5.1c-4.1,6.9,0.1,15.1,7.3,16.2c1.1,0.2,2.1,0.3,3.2,0.3
	c10.4,0,20.8,0,31.2,0c0.5,0,1,0,1.6,0c0,4.4,0,8.7,0,12.8c-2.9,0-5.8,0-8.8,0c-0.4,0-0.9,0-1.3,0c-7.4,0-14.8,0-22.2,0
	c-6.6-0.1-12.9-1.6-18.2-5.8c-4.2-3.3-6.9-7.5-7.9-12.9c-1.2-6-0.5-11.6,2.4-17c1.1-2,2.6-3.8,3.8-5.4c-1.4-2.2-3.1-4.5-4.4-7
	c-1.5-2.9-2.2-6-2.3-9.3s0-6.5,1-9.6c2.2-7,6.8-11.6,13.8-13.9c3.7-1.2,7.4-1.8,11.4-1.9C177.6,1.1,188.4,1.1,199.4,1.1z"/>
<path class="st2" d="M416.6,1.1c0.1,18.7,0.2,37.3,0.1,56c-0.1,6.4-1.9,12.4-6.2,17.4c-4.2,4.9-9.5,7.7-15.7,8.9
	c-3,0.6-6.1,0.9-9.1,0.8c-8-0.3-15.3-2.5-21.6-7.6c-4.2-3.5-6.8-7.8-8-13.1c-0.3-1.1-0.3-2.3-0.3-3.5c0-19.6,0-39.1,0-58.8
	c4.5-0.1,8.9-0.1,13.5,0c0.1,19.3,0.2,38.5,0.1,57.7c0,2.1,0.6,4,1.8,5.6c3,4.4,7.5,6.1,12.4,6.6c4.5,0.5,9-0.1,13-2.5
	c4.1-2.5,6.7-6.1,6.7-11c0.1-18.8,0-37.7,0-56.5C407.7,1.1,412.1,1.1,416.6,1.1z"/>
<path class="st2" d="M612.3,83.9C592.9,84,573.5,84,553.9,84c0-0.2-0.1-0.6-0.1-1c0-2.9,0.1-5.8,0-8.7c-0.2-2.3,0.6-4.1,2-5.9
	c5.1-6.5,10-13.2,15-19.7c5.3-6.9,10.5-13.8,15.8-20.7c3.6-4.7,7.1-9.4,10.6-14.1c0-0.1,0-0.2,0.1-0.4c-14.4,0-28.8,0-43.5,0
	c0-4.2,0-8.2,0-12.4C573.2,1,592.7,1,612.2,1c0,5,0,10.1-0.1,15.3c-3,3.8-5.9,7.5-8.7,11.2c-3.1,4-6.1,8-9.2,12
	c-2.9,3.8-5.8,7.5-8.8,11.3c-2.4,3.1-4.8,6.2-7.2,9.3c-2.9,3.7-5.7,7.3-8.7,11.1c14.4,0,28.6,0,42.8,0
	C612.3,75.4,612.3,79.6,612.3,83.9z"/>
<path class="st0" d="M403.2,1.1c0.1,18.8,0.2,37.7,0.1,56.5c0,4.8-2.6,8.5-6.7,11c-4,2.4-8.5,3-13,2.5c-4.9-0.5-9.5-2.3-12.4-6.6
	c-1.2-1.7-1.8-3.5-1.8-5.6c0-19.2,0-38.4,0-57.7C380.6,1.1,391.9,1.1,403.2,1.1z"/>
<path class="st0" d="M612.3,71.1c-14.2,0.1-28.4,0.1-42.8,0.1c3-3.8,5.8-7.5,8.7-11.1c2.4-3.1,4.8-6.2,7.2-9.3
	c2.9-3.8,5.8-7.5,8.8-11.3c3.1-4,6.1-8,9.2-12c2.9-3.7,5.8-7.3,8.7-11C612.3,34.6,612.3,52.8,612.3,71.1z"/>
<path class="st0" d="M326.2,1.1c-5.5,20.7-11.2,41.4-16.8,62.1c-0.1,0-0.2,0-0.3,0c-6-20.6-12.1-41.3-18.1-62
	C302.7,1.1,314.4,1.1,326.2,1.1z"/>
<path class="st1" d="M0.3,93.8c0.7-1.3,1.8-1.7,3.1-1.6c0.9,0.1,1.8,0,2.8,0c0,3.5,0,6.8,0,10.1c0,1.8,0.7,2.8,2.2,3.4
	c0.5,0.2,1.1,0.2,1.7,0.2c6.7,0,13.3,0,20,0c0.5,0,1,0,1.7,0c0,5.5,0,10.9,0,16.4c-0.5,0-1,0.1-1.5,0.1c-9,0-18,0-26.9,0
	c-1.2,0-2.3-0.2-3-1.4C0.3,112,0.3,103,0.3,93.8z"/>
<path class="st3" d="M612.3,121.8c-0.8,0.2-1.7,0.5-2.5,0.3c-0.5-0.1-0.7-1.1-0.9-1.6c-1.4,0.6-2.8,1.6-4.4,1.8
	c-4.2,0.6-7.9-1.2-7.8-6.1c0.1-3.3,1.9-5,5.8-5.7c2-0.4,4-0.3,6.4-0.5c-0.3-1.3-0.2-2.9-0.9-4c-1-1.7-2.9-1.9-4.6-1.5
	c-1.4,0.3-2.7,1-4,1.6c-1.1,0.5-1.9,0-1.7-1.2c0.1-0.8,0.3-1.6,1.3-2.1c3.1-1.5,6.3-1.9,9.6-1c2,0.6,3.3,2,3.7,4.2
	C612.3,111.4,612.3,116.5,612.3,121.8 M600.6,115.7c0,2.2,0.7,3.5,2.2,3.7c3.5,0.4,7-1.8,5.6-6.3c-1.2,0-2.3,0-3.5,0
	C603,113.1,601.4,113.6,600.6,115.7z"/>
<path class="st3" d="M53,104.3c0,7.5,0,15-0.1,22.5c0,2.5-0.4,2.9-2.8,2.9c-4.7,0-9.3,0-14,0c-2.2,0-2.3-0.1-2.3-2.4
	c0-7.2,0-14.4,0-21.7c0-0.5,0-0.9,0-1.6c-0.6,0-1.1,0-1.6,0c-7.3,0-14.6,0-21.9,0c-1.9,0-2.1-0.2-2.1-2.1c0-4.9,0-9.9,0-14.8
	c0-2,0.2-2.1,2.2-2.1c7.2,0,14.4,0,21.7,0c0.5,0,1,0,1.7,0c0-0.6,0-1.1,0-1.6c0-7.2,0-14.3,0-21.5c0-2.4,0.1-2.5,2.6-2.5
	c4.7,0,9.4,0,14.1,0c1.7,0,2.4,0.7,2.4,2.4c0,7.2,0,14.3,0,21.5c0,0.5,0,1,0,1.7c0.6,0,1.1,0,1.6,0c7.2,0,14.3,0,21.5,0
	c1.9,0,2.5,0.6,2.5,2.5c0,4.7,0,9.3,0,14c0,2.2-0.5,2.6-2.7,2.6c-7.5,0-14.9,0-22.6,0C53.1,104.1,53.1,104.2,53,104.3z"/>
<path class="st1" d="M55,74.6c0-4.3,0-8.5,0-12.7c0-3.3-1.4-4.7-4.8-4.7c-3.1,0-6.2,0-9.3,0c-0.1,0-0.2-0.1-0.5-0.1
	c0-1.1-0.2-2.2,0-3.3c0.3-1.4,1.4-2,2.7-2c8.3,0,16.5,0,24.8,0c2,0,2.9,1.2,2.9,3.7c0,6.8,0,13.6,0,20.4c0,2.3,0,4.5,0,6.9
	c-5.3,0-10.5,0-16,0C55,80.1,55,77.4,55,74.6z"/>
<path class="st3" d="M568.1,115.9c-0.5-4.5-0.9-8.8,2.6-12.4c2.4-2.5,7.3-2.8,10-0.2c0.2,0.2,0.4,0.4,0.8,0.8c0-2.8,0-5.4,0-8
	c0-0.3,0-0.6,0-0.9c0-2.5,0-2.4,2.5-2.4c0.9,0,1.3,0.3,1.2,1.3c0,2,0,4.1,0,6.1c0,6.8,0,13.6,0,20.4c0,1.2-0.2,1.7-1.6,1.7
	c-1.2,0-1.8-0.3-1.6-1.6c0.1-0.4,0-0.7,0-1.2c-1,0.8-1.9,1.5-2.9,2.1c-4.1,2.2-9.8,0.7-10.8-4.8
	C568.3,116.5,568.2,116.2,568.1,115.9 M572.9,106.7c-1.9,3.1-1.8,6.4-0.5,9.6c0.4,1.1,1.6,2.4,2.7,2.7c3.2,0.8,6.4-2.1,6.4-5.3
	c0-1-0.2-2.1,0-3.1c0.4-2.1-0.7-3.4-2.1-4.5C577.2,104.4,574.7,104.2,572.9,106.7z"/>
<path class="st3" d="M464.3,96.3c2.7,2,3.5,4.7,3.1,7.7c-0.5,3.8-2.5,6.5-6.4,7.3c-2.1,0.4-4.3,0.3-6.6,0.5c0,2.9-0.1,5.9,0,8.9
	c0.1,1.5-0.8,1.5-1.9,1.5c-1,0-1.9,0-1.9-1.5c0.1-8,0-16,0-24.1c0-1.4,0.5-1.9,1.8-1.8c2.2,0.1,4.4,0,6.5,0
	C460.9,94.8,462.6,95.3,464.3,96.3 M454.4,99c0,3.2,0,6.3,0,9.7c2.1-0.3,4-0.3,5.8-0.8c2-0.5,3.5-3,3.4-5c-0.2-2.5-1.5-4.3-3.8-4.7
	c-1.5-0.3-3.1-0.3-4.6-0.3C454.8,98,454.6,98.5,454.4,99z"/>
<path class="st3" d="M292.7,122.5c-7.1-0.1-10.9-3.6-11.9-10.5c-0.6-3.7-0.3-7.3,1.2-10.7c1.4-3.5,5.1-6.6,9.2-6.7
	c2.6-0.1,5.1,0.1,7.5,1.4c1.5,0.8,2.5,2.7,1.1,4.6c-1.3-0.7-2.6-1.5-4-2c-5.6-2.2-9.4,1.1-10.6,5.9c-0.8,3.3-0.7,6.5,0.5,9.7
	c1,2.7,2.9,4.2,5.7,4.7c2.5,0.4,4.6-0.4,6.7-1.5c0.8-0.4,1.4-1.3,2.3-0.4c0.5,0.5,0.1,3-0.6,3.3c-1.8,0.8-3.7,1.4-5.5,2.1
	C293.7,122.4,293.3,122.4,292.7,122.5z"/>
<path class="st3" d="M541.1,119.2c-0.4-2.2-0.8-4.3,0.8-6.3c1.2-1.5,2.9-2.1,4.7-2.4c2-0.3,4-0.3,6.2-0.5c0.1-1.9,0.1-3.8-1.9-4.9
	c-0.8-0.5-1.9-0.7-2.8-0.5c-1.4,0.2-2.8,0.8-4.2,1.3c-0.7,0.3-1.3,1.1-2.1,0.3c-0.5-0.5-0.1-2.5,0.5-2.8c1.1-0.6,2.3-1.2,3.6-1.5
	c2.5-0.7,5.1-0.7,7.5,0.5c1.8,0.9,2.8,2.4,2.9,4.4c0.1,4.5,0.2,9,0.3,13.5c0,1.1-0.1,1.9-1.6,1.9c-1.3,0-2.2-0.2-1.8-2
	c-2,1.5-4,2.5-6.4,2.3C544.4,122.3,542.3,121.5,541.1,119.2 M548.2,119.4c3.6-1,5.2-2.3,4.3-6.3c-0.3,0-0.6,0-1,0
	c-1.2,0-2.4-0.1-3.6,0c-2,0.1-3.6,1.7-3.6,3.4C544.5,118,545.6,119.6,548.2,119.4z"/>
<path class="st3" d="M414,103.2c2-0.6,3.8-1.4,5.8-1.7c4.7-0.8,8.1,2.2,8.1,7c0,4,0,8.1,0,12.1c0,1.1-0.1,1.7-1.5,1.7
	c-1.3,0-1.9-0.4-1.7-1.7c0-0.1,0-0.3,0-0.2c-1.5,0.7-3,1.6-4.6,2c-2.4,0.6-4.8,0-6.6-1.9c-1.7-1.9-1.8-4.8-0.5-7
	c1.1-1.9,3-2.5,4.9-2.9c2-0.3,4-0.3,6-0.5c1-3.9-1.7-6.5-5.5-5.3c-1.2,0.4-2.3,0.9-3.5,1.3c-0.5,0.2-1.4,0.4-1.5,0.2
	c-0.3-0.5-0.5-1.2-0.4-1.8C413.1,104.1,413.6,103.7,414,103.2 M416,116.8c0.7,2.3,2.3,3.3,4.5,2.5c3-1.1,4.2-2.3,3.4-6.2
	c-1.3,0-2.5,0-3.8,0C417.7,113.1,416.5,114.2,416,116.8z"/>
<path class="st3" d="M356.6,116.5c-0.1-2.8-0.2-5.4-0.3-8.1c-0.1-1.7-0.9-3-2.6-3.5c-1.5-0.5-2.8,0.1-4,1.1
	c-1.8,1.4-2.5,3.2-2.3,5.5c0.2,3.1,0,6.2,0.1,9.3c0,1.5-0.9,1.4-1.9,1.4c-0.9,0-1.9,0.2-1.9-1.3c0.1-5.7,0-11.4,0-17.1
	c0-1.9,0.8-2.4,2.7-1.9c0.2,0.1,0.4,0.1,0.7,0.2c0,0.8,0,1.5,0,2.3c1.1-0.7,2.1-1.5,3.1-2.1c4.1-2.2,9.6,0.1,9.7,5.3
	c0.1,4.5,0.2,9,0.2,13.5c0,0.4-0.5,0.9-0.9,1.1s-1,0-1.5,0.1c-0.8,0.1-1.2-0.3-1.2-1.1C356.6,119.6,356.6,118.1,356.6,116.5z"/>
<path class="st3" d="M520.6,121c-2.1-5.7-4.1-11.3-6-17c-0.2-0.6-0.3-1.2-0.4-1.8c0.4-0.2,0.7-0.3,0.9-0.3c1.6-0.5,2.9,0.2,3.4,1.8
	c1.6,4.6,3.1,9.2,4.8,14.1c0.6-1.9,1.2-3.4,1.7-4.9c1-2.9,2-5.9,3-8.8c0.8-2.4,1.7-2.8,4.4-1.7c-0.6,1.8-1.1,3.7-1.7,5.5
	c-1.5,4.3-3.2,8.5-4.6,12.8c-0.4,1.3-1.1,1.8-2.4,1.7C522.5,122.1,521.2,122.5,520.6,121z"/>
<path class="st3" d="M389.4,105.2c2.9-3.9,6.6-4.3,10.8-3c2.2,0.7,2.6,1.2,2.5,3.5c0,0.4-0.2,1-0.4,1c-0.4,0.1-0.8-0.1-1.2-0.3
	c-1.2-0.5-2.3-1.4-3.5-1.6c-2.4-0.5-4.2,0.5-5.2,2.8c-1.3,3.2-1.3,6.4,0.5,9.5c1.1,1.8,3.7,2.6,5.7,1.7c1-0.5,1.9-1,2.7-1.7
	c0.9-0.7,1.3-0.4,1.6,0.5c0.4,1.3-0.1,2.5-1.4,3.3c-3.8,2.3-8.5,2-11.3-0.9c-1.4-1.4-2-3.3-2.2-5.2
	C387.7,111.7,387.7,108.4,389.4,105.2z"/>
<path class="st3" d="M314.7,113.1c0,2.7-0.1,5.3,0,7.8c0,1.3-0.7,1.4-1.6,1.3s-2.1,0.4-2.1-1.2c0-9,0-17.9,0-26.9c0-1,1-1.6,2.2-1.4
	c0.5,0.1,0.9,0.2,1.5,0.3C314.7,99.6,314.7,106.3,314.7,113.1z"/>
<path class="st3" d="M482.6,118.5c0,0.8-0.1,1.5,0,2.1c0.2,1.6-0.8,1.6-1.9,1.6s-1.8-0.1-1.8-1.6c0.1-6.2,0-12.3,0-18.5
	c2.7-1,3.2-0.6,3.5,2.4c1.1-1.5,2.3-2.8,4.1-2.9c1-0.1,2,0.1,2.9,0.4c0.7,0.2,0.8,3.1,0.3,3.5c-0.2,0.1-0.5,0.1-0.7,0
	c-2-0.8-3.7-0.2-4.9,1.5c-0.9,1.2-1.6,2.4-1.5,4C482.7,113.4,482.6,115.9,482.6,118.5z"/>
<path class="st3" d="M327.5,103.5c0-0.5,0-0.9,0-1.4c0.5-0.1,1.1-0.4,1.6-0.4c1.6-0.1,2.1,0.4,2.1,2c0,5.7,0,11.4,0,17.1
	c0,1.6-1,1.4-1.9,1.4c-1,0-1.8,0.2-1.8-1.4C327.6,115.1,327.5,109.3,327.5,103.5z"/>
<path class="st3" d="M376.5,106.3c0,4.9,0,9.7,0,14.5c0,1.6-0.9,1.4-1.9,1.4s-1.8,0.1-1.8-1.4c0.1-6.2,0-12.4,0-18.7
	c0.5-0.2,1-0.3,1.5-0.4c1.3-0.2,2.2,0.5,2.2,1.8C376.6,104.4,376.5,105.3,376.5,106.3z"/>
<path class="st3" d="M504,105.4c0,5.2,0,10.3,0,15.4c0,1.6-0.9,1.4-1.9,1.4s-1.8,0.1-1.8-1.4c0.1-5.7,0-11.5,0-17.2
	c0-1.4,1-2.2,2.3-1.9c0.4,0.1,0.9,0.3,1.4,0.4C504,103.2,504,104.2,504,105.4z"/>
<path class="st3" d="M329.7,94.5c0.8-1.9,2.2-2.1,3.8-1.9c0.8,0.1,1.3,0.5,0.7,1.3c-1.2,1.6-2.5,3.2-3.8,4.7c-0.9,1.1-2,1.1-3.4,0.3
	C327.9,97.4,328.8,96,329.7,94.5z"/>
<path class="st3" d="M372.8,94.8c1-0.3,1.9-0.8,2.7-0.7c1.7,0.3,1.4,1.7,1.3,2.9c0,1.1-0.8,1.4-1.7,1.5
	C372.7,98.9,371.9,97.6,372.8,94.8z"/>
<path class="st3" d="M504.3,95.9c0,1.1,0.1,2.3-1.2,2.6c-1,0.2-2.3,0.4-2.8-0.7c-0.4-0.9-0.3-2.1,0.1-3c0.3-0.9,2.4-1,3.3-0.4
	C504,94.6,504.1,95.3,504.3,95.9z"/>
<path class="st4" d="M53.1,104.2c0-0.1,0-0.1,0.1-0.2C53.3,104.1,53.2,104.2,53.1,104.2z"/>
<path class="st5" d="M55.2,106c0,0.1,0,0.1-0.1,0.2C55,106.2,55.1,106.1,55.2,106z"/>
<path class="st0" d="M91.2,52.7c0-1.1,0-2,0-3.1c0.6,0,1.1,0,1.6,0c6.6,0,13.3,0.1,19.9,0c5.2-0.1,7.1,2,8.4,6.2
	c1.4,4.5,1.2,8.9-1.7,12.9c-1.1,1.5-2.7,2.5-4.4,2.6c-7.9,0.1-15.7,0.1-23.8,0.1C91.2,65,91.2,58.9,91.2,52.7z"/>
<path class="st0" d="M114.5,13.9c4.3,1.1,6.1,4.1,6.9,8c0.7,3.2,0.2,6.2-1.3,9.1c-1.3,2.4-3.3,3.9-6,4c-7.6,0.1-15.2,0-22.9,0
	c0-7.1,0-14.2,0-21.4c0.5,0,1,0,1.5,0c5.5,0,10.9,0,16.4,0C110.9,13.6,112.7,13.8,114.5,13.9z"/>
<path class="st0" d="M247.2,25.1c0.2,4.2-1.2,7.8-3.8,10.8c-1.7,2-4.1,3.2-6.6,3.2c-5.9,0.2-11.8,0.1-17.9,0.1c0-8.5,0-17,0-25.6
	c0.2,0,0.6-0.1,1-0.1c4.9,0,9.9-0.1,14.8,0c4.3,0.1,8.2,1.3,10.7,5.3C246.6,20.8,247.3,22.8,247.2,25.1z"/>
<path class="st0" d="M468.6,32.1c0,9.7-0.1,19.3,0,28.9c0.1,3.7-2.9,8.1-6.7,9.2c-1.7,0.5-3.5,0.8-5.2,0.9c-7,0.1-14,0-20.9,0
	c-0.5,0-1,0-1.6,0c0-19.2,0-38.3,0-57.5c0.4,0,0.8-0.1,1.2-0.1c6.8,0,13.7-0.1,20.5,0c2.7,0,5.5,0.5,7.9,2c3.1,1.9,4.5,4.8,4.8,8.3
	C468.8,26.6,468.6,29.3,468.6,32.1z"/>
<path class="st0" d="M600.6,115.5c0.8-1.9,2.4-2.4,4.2-2.4c1.2,0,2.4,0,3.5,0c1.4,4.4-2.1,6.7-5.6,6.3
	C601.3,119.2,600.6,117.9,600.6,115.5z"/>
<path class="st0" d="M573,106.6c1.7-2.4,4.2-2.3,6.4-0.6c1.5,1.1,2.5,2.4,2.1,4.5c-0.2,1,0,2.1,0,3.1c0,3.2-3.2,6.1-6.4,5.3
	c-1.1-0.3-2.3-1.6-2.7-2.7C571.1,113.1,571,109.8,573,106.6z"/>
<path class="st0" d="M454.4,98.9c0.2-0.4,0.5-0.9,0.7-0.9c1.5,0,3.1,0,4.6,0.3c2.3,0.4,3.6,2.1,3.8,4.7c0.2,2-1.4,4.6-3.4,5
	c-1.8,0.4-3.7,0.5-5.8,0.8C454.4,105.3,454.4,102.2,454.4,98.9z"/>
<path class="st0" d="M548.1,119.4c-2.5,0.2-3.6-1.3-3.7-2.8c-0.1-1.8,1.5-3.3,3.6-3.4c1.2-0.1,2.4,0,3.6,0c0.3,0,0.6,0,1,0
	C553.4,117.1,551.8,118.4,548.1,119.4z"/>
<path class="st0" d="M416,116.7c0.5-2.5,1.8-3.6,4.2-3.6c1.3,0,2.5,0,3.8,0c0.8,3.9-0.4,5.1-3.4,6.2
	C418.3,120.1,416.8,119.1,416,116.7z"/>
</svg>
