<?xml version="1.0" encoding="utf-8"?>
<!-- Generator: Adobe Illustrator 22.0.0, SVG Export Plug-In . SVG Version: 6.00 Build 0)  -->
<svg version="1.1" xmlns="http://www.w3.org/2000/svg" xmlns:xlink="http://www.w3.org/1999/xlink" x="0px" y="0px"
	 viewBox="0 0 466.7 240" style="enable-background:new 0 0 466.7 240;" xml:space="preserve">
<style type="text/css">
	.st0{fill:#3D5280;}
	.st1{fill:#DB833C;fill-opacity:0.9765;}
	.st2{fill:#446BAF;}
	.st3{fill:#F9F9F9;fill-opacity:0.9922;}
	.st4{enable-background:new    ;}
	.st5{fill:#DB833C;}
</style>
<g id="svg1" sodipodi:docname="Logo cem.png" xmlns:inkscape="http://www.inkscape.org/namespaces/inkscape" xmlns:sodipodi="http://sodipodi.sourceforge.net/DTD/sodipodi-0.dtd" xmlns:svg="http://www.w3.org/2000/svg">
	
		<sodipodi:namedview  bordercolor="#ffffff" borderopacity="1" id="namedview1" inkscape:deskcolor="#505050" inkscape:export-bgcolor="#ffffff00" inkscape:pagecheckerboard="1" inkscape:pageopacity="0" inkscape:showpageshadow="0" pagecolor="#505050" showgrid="false">
		</sodipodi:namedview>
	<g id="layer1" inkscape:groupmode="layer" inkscape:label="trazado">
		<path id="path1" class="st0" d="M133.8,135.1l10-55.3c0,0,6.8-19.2,25.1-19.2s52.2-0.3,52.2-0.3l-2.8,19L180,78.7
			c0,0-13.7-2.1-17.8,13.4s-6.4,37-6.4,37s-0.3,11.3,11.3,11.3s42-0.8,42-0.8s-1.4,18.3-15.3,18.3c-13.9,0-37.5-0.1-37.5-0.1
			S133.8,159.9,133.8,135.1z"/>
		<path id="path6" sodipodi:nodetypes="cccscscccscscscscc" class="st0" d="M242.9,134.3l0.3-18.4l52.9-24.1c0,0,7.4-2,0.3-10.5
			c-2.1-2.5-36.6-1.3-36.6-1.3s-12.4-1.1-12.4,29.4s-3.9,26.8-3.9,26.8l4.2,2.9h62.9c0,0,0.4,19-19,19S241,158,241,158
			s-22.4,0.4-18.2-28c4.2-27.9,8.8-51.4,8.8-51.4s6.7-18.4,27.5-18.4s41.1-0.1,41.1-0.1s22.2,1,20.3,21.6
			c-1.8,20.2-2.7,21.5-2.7,21.5L242.9,134.3z"/>
		<path id="path7" sodipodi:nodetypes="cccscscscssccscccscsc" class="st0" d="M376.5,158l21.2,0.3l12-67.5c0,0,0.8-10.2,11.4-10.5
			s11.5-0.1,11.5-0.1s10.1-0.9,9.2,10.2s-11.9,67.8-11.9,67.8s19.3,0.5,23.1-13.9c3.9-14.4,10.9-59.1,10.9-59.1s4.7-24.9-18.4-24.9
			s-32.7-3.9-42.6,10c-1.4,1.9-12.8-5.1-12.8-5.1l-24-5.2c0,0-21.5-2.1-28.4,17.9C330.7,98,323,158,323,158l20.2,0.3l12.4-69.4
			c0,0,3-9,12.1-9s10.7-0.3,10.7-0.3s9.7,0.4,9.7,9.7S376.5,158,376.5,158z"/>
		<path id="path8" class="st0" d="M359,64.9c-0.2-2.1-0.6-3.9-0.6-3.9s38.5-7.6,44.2,9.5C408.4,87.6,359,64.9,359,64.9L359,64.9z"/>
	</g>
	<g id="layer2" inkscape:groupmode="layer" inkscape:label="logo">
		<g id="g25" inkscape:label="lineas naranjas">
			<path id="path9" class="st1" d="M21,180.7l3.5,0.3L47.1,59h-3.5L21,180.7z"/>
			<path id="path10" class="st1" d="M26.4,180.9l3.5,0.3L52.6,58.9L49,59L26.4,180.9z"/>
			<path id="path11" sodipodi:nodetypes="ccccc" class="st1" d="M54.6,58.6h3.5L35.9,181.3l-3.2-0.1L54.6,58.6z"/>
			<path id="path12" class="st1" d="M103.1,166.4l3.7-2.8l12.8-68.7l-2.8-4.3L103.1,166.4z"/>
			<path id="path13" sodipodi:nodetypes="ccccc" class="st1" d="M60.8,58.6H64L41.3,181.3l-3.3-0.1L60.8,58.6z"/>
			<path id="path14" class="st1" d="M112.4,83.8l2.5,4l-14.7,80.5l-3.5,3.3L112.4,83.8z"/>
			<path id="path15" class="st1" d="M44,181.3l2.8,0.1L69.9,59L66,58.9L44,181.3z"/>
			<path id="path16" sodipodi:nodetypes="ccccc" class="st1" d="M71.9,59.4l2.9,0.8L52.7,181l-3.2,0.3L71.9,59.4z"/>
			<path id="path17" class="st1" d="M89.9,175.4l3.8-2l17.1-91.6l-2.5-3L89.9,175.4z"/>
			<path id="path18" class="st1" d="M55.2,181.2h2.9L80.2,61.5l-3.4-1L55.2,181.2z"/>
			<path id="path19" class="st1" d="M110.3,159.7l3.8-4l9.3-50.2L121,99L110.3,159.7z"/>
			<path id="path20" class="st1" d="M103.2,73.4l2.8,3.5l-17.7,99l-3.8,1.9L103.2,73.4z"/>
			<path id="path21" class="st1" d="M78.2,179.6l3.7-1.4l19.7-105.4L98,69.7L78.2,179.6z"/>
			<path id="path22" class="st1" d="M82.2,62.2l3.4,1.4L64.1,181h-3.4L82.2,62.2z"/>
			<path id="path23" class="st1" d="M87.9,64.4l3.2,1.3L70,180.7l-3.4,0.1L87.9,64.4z"/>
			<path id="path24" class="st1" d="M92.9,66.6l3,1.8L76.1,179.6l-3.7,0.8L92.9,66.6z"/>
			<path id="path25" sodipodi:nodetypes="ccc" class="st1" d="M124.4,110.2l-7.7,41.2C116.7,151.3,129.4,128.6,124.4,110.2z"/>
		</g>
		<g id="g27" inkscape:label="cruz">
			<path id="path26" class="st0" d="M106.5,147.9L11.6,92.5l7.1-11.9L45.1,96L45,65.3l27.9-0.1l-0.1,31.2l26.8-16.2l14.8,24.3
				l-27.5,15.3l27.2,15.9L106.5,147.9z"/>
			<path id="path27" class="st2" d="M11.9,92.2l94.9,55.5l-7.1,11.9l-26.4-15.4l0.1,30.7L45.5,175l0.1-31.2L18.8,160L4,135.7
				l27.5-15.3L4.4,104.5L11.9,92.2z"/>
		</g>
		<path id="path28" class="st3" d="M57.1,65.3l3.8,0.1l-0.4,109.2l-3.7-0.1L57.1,65.3z"/>
		<path id="path29" class="st3" d="M12.3,90.5l-1.8,3.4l95.6,55.6l1.8-3.3L12.3,90.5z"/>
		<path id="path31" class="st3" d="M10,145.8l2,3.3l96.3-54.3l-1.9-3.2L10,145.8z"/>
	</g>
</g>
<g id="Layer_2">
	<g class="st4">
		<path class="st5" d="M144.4,174.3c-1.1,2.5-2.8,3.8-5,3.8c-1.4,0-2.5-0.5-3.4-1.5c-0.9-1-1.3-2.3-1.3-4c0-2.1,0.6-4,1.7-5.5
			c1.1-1.5,2.5-2.3,4.3-2.3c1.4,0,2.4,0.4,3.2,1.2c0.8,0.8,1.2,1.9,1.4,3.3l-2.1,0.4c-0.2-1.9-1-2.9-2.6-2.9c-1.2,0-2.1,0.7-2.7,2.2
			c-0.5,1.5-0.8,2.8-0.8,4.2c0,1,0.2,1.8,0.7,2.3c0.5,0.5,1,0.8,1.7,0.8c0.6,0,1.2-0.3,1.8-0.8c0.5-0.5,0.9-1.1,1.2-1.8L144.4,174.3
			z"/>
		<path class="st5" d="M153.9,177.8h-8.2l2.1-12.7h8l-0.3,2h-5.7l-0.5,3.3h4.8l-0.3,1.9h-4.8l-0.6,3.5h6L153.9,177.8z"/>
		<path class="st5" d="M165.4,177.8h-1.8l-4.3-9.5l-1.6,9.5h-1.8l2.1-12.7h2.3l3.9,8.7l1.5-8.7h1.8L165.4,177.8z"/>
		<path class="st5" d="M177.3,167.1h-3.2l-1.8,10.7H170l1.8-10.7h-3.2l0.3-2h8.8L177.3,167.1z"/>
		<path class="st5" d="M186.8,177.8h-2.4l-1.3-5.2h-3l-0.9,5.2h-2.3l2.1-12.7h4.8c1,0,1.7,0.1,2.3,0.3c0.6,0.2,1.1,0.6,1.5,1.2
			c0.4,0.6,0.7,1.3,0.7,2.1c0,0.8-0.2,1.6-0.7,2.3c-0.5,0.7-1.2,1.2-2.3,1.4L186.8,177.8z M180.4,170.8h3.1c1,0,1.6-0.2,1.9-0.6
			c0.3-0.4,0.5-0.9,0.5-1.4c0-0.4-0.1-0.8-0.3-1c-0.2-0.3-0.5-0.5-0.8-0.6c-0.3-0.1-0.7-0.1-1.3-0.1H181L180.4,170.8z"/>
		<path class="st5" d="M199.1,177.8h-2.5l-0.5-3.1h-4.6l-1.4,3.1H188l6.1-12.7h2.8L199.1,177.8z M195.9,173l-1-5.6l-2.6,5.6H195.9z"
			/>
		<path class="st5" d="M208.1,177.8h-7.6l2.1-12.7h2.4l-1.8,10.7h5.2L208.1,177.8z"/>
		<path class="st5" d="M214.6,177.8l2.1-12.7h3.7c0.9,0,1.6,0.1,2.1,0.2c0.5,0.2,1,0.5,1.5,0.9c0.5,0.4,0.9,1,1.2,1.8
			c0.3,0.8,0.5,1.7,0.5,2.7c0,1.2-0.2,2.3-0.7,3.3c-0.4,1-1,1.8-1.6,2.4c-0.6,0.6-1.3,0.9-1.9,1.1c-0.6,0.2-1.5,0.3-2.6,0.3H214.6z
			 M217.2,175.9h2c0.7,0,1.2-0.1,1.6-0.3c0.4-0.2,0.8-0.5,1.2-0.9c0.4-0.4,0.7-1,0.9-1.8c0.2-0.8,0.3-1.6,0.3-2.5
			c0-0.7-0.1-1.3-0.3-1.9c-0.2-0.6-0.6-1-1-1.2c-0.4-0.2-1.1-0.3-1.8-0.3h-1.4L217.2,175.9z"/>
		<path class="st5" d="M234.9,177.8h-8.2l2.1-12.7h8l-0.3,2h-5.7l-0.5,3.3h4.8l-0.3,1.9h-4.8l-0.6,3.5h6L234.9,177.8z"/>
		<path class="st5" d="M249.9,177.8h-8.2l2.1-12.7h8l-0.3,2h-5.7l-0.5,3.3h4.8l-0.3,1.9h-4.8l-0.6,3.5h6L249.9,177.8z"/>
		<path class="st5" d="M264.2,177.8H262l1.9-11.5l-5.4,11.5h-1.2l-1.7-11.4l-1.9,11.4h-1.8l2.1-12.7h3.5l1.3,8.5l3.9-8.5h3.7
			L264.2,177.8z"/>
		<path class="st5" d="M275.2,177.8H267l2.1-12.7h8l-0.3,2h-5.7l-0.5,3.3h4.8l-0.3,1.9h-4.8l-0.6,3.5h6L275.2,177.8z"/>
		<path class="st5" d="M287.1,177.8h-2.4l-1.3-5.2h-3l-0.9,5.2h-2.3l2.1-12.7h4.8c1,0,1.7,0.1,2.3,0.3c0.6,0.2,1.1,0.6,1.5,1.2
			c0.4,0.6,0.7,1.3,0.7,2.1c0,0.8-0.2,1.6-0.7,2.3c-0.5,0.7-1.2,1.2-2.3,1.4L287.1,177.8z M280.6,170.8h3.1c1,0,1.6-0.2,1.9-0.6
			c0.3-0.4,0.5-0.9,0.5-1.4c0-0.4-0.1-0.8-0.3-1c-0.2-0.3-0.5-0.5-0.8-0.6c-0.3-0.1-0.7-0.1-1.3-0.1h-2.5L280.6,170.8z"/>
		<path class="st5" d="M298.9,177.8h-1l-0.4-1.7c-0.7,1.3-1.8,1.9-3.5,1.9c-1.4,0-2.4-0.5-3.3-1.4c-0.8-0.9-1.3-2.3-1.3-4.1
			c0-2.2,0.6-4,1.7-5.5c1.1-1.5,2.6-2.3,4.5-2.3c2.4,0,4,1.2,4.6,3.7l-2,0.5c-0.4-1.5-1.3-2.3-2.7-2.3c-1.1,0-2,0.6-2.7,1.8
			c-0.7,1.2-1,2.6-1,4.1c0,1.2,0.2,2.1,0.7,2.6c0.5,0.6,1.1,0.9,1.9,0.9c1.4,0,2.4-1,2.9-3h-2.8l0.3-1.9h4.9L298.9,177.8z"/>
		<path class="st5" d="M309.8,177.8h-8.2l2.1-12.7h8l-0.3,2h-5.7l-0.5,3.3h4.8l-0.3,1.9h-4.8l-0.6,3.5h6L309.8,177.8z"/>
		<path class="st5" d="M321.3,177.8h-1.8l-4.3-9.5l-1.6,9.5h-1.8l2.1-12.7h2.3l3.9,8.7l1.5-8.7h1.8L321.3,177.8z"/>
		<path class="st5" d="M334.1,174.3c-1.1,2.5-2.8,3.8-5,3.8c-1.4,0-2.5-0.5-3.4-1.5c-0.9-1-1.3-2.3-1.3-4c0-2.1,0.6-4,1.7-5.5
			c1.1-1.5,2.5-2.3,4.3-2.3c1.4,0,2.4,0.4,3.2,1.2s1.2,1.9,1.4,3.3l-2.1,0.4c-0.2-1.9-1-2.9-2.6-2.9c-1.2,0-2.1,0.7-2.7,2.2
			c-0.5,1.5-0.8,2.8-0.8,4.2c0,1,0.2,1.8,0.7,2.3c0.5,0.5,1,0.8,1.7,0.8c0.6,0,1.2-0.3,1.8-0.8c0.5-0.5,0.9-1.1,1.2-1.8L334.1,174.3
			z"/>
		<path class="st5" d="M337.6,177.8h-2.3l2.1-12.7h2.3L337.6,177.8z"/>
		<path class="st5" d="M350.5,177.8H348l-0.5-3.1h-4.6l-1.4,3.1h-2.1l6.1-12.7h2.8L350.5,177.8z M347.2,173l-1-5.6l-2.6,5.6H347.2z"
			/>
		<path class="st5" d="M361.6,167.5l-2.1,0.8c-0.4-1.1-1.2-1.6-2.4-1.6c-0.7,0-1.3,0.2-1.6,0.5s-0.6,0.7-0.6,1.2
			c0,0.4,0.1,0.7,0.4,0.9s0.7,0.4,1.3,0.6l1.7,0.5c0.5,0.1,1,0.4,1.4,0.7c0.5,0.3,0.8,0.7,1,1.2s0.3,1,0.3,1.5c0,1.2-0.4,2.1-1.3,3
			c-0.9,0.8-2.1,1.3-3.8,1.3c-2.5,0-4.2-1.1-5-3.2l2.1-0.7c0.5,1.3,1.5,2,3,2c0.9,0,1.5-0.2,1.9-0.6c0.4-0.4,0.6-0.9,0.6-1.4
			c0-0.3-0.1-0.5-0.2-0.8c-0.2-0.2-0.4-0.4-0.6-0.5s-0.7-0.3-1.4-0.5c-1-0.3-1.8-0.6-2.3-0.8s-0.9-0.6-1.2-1.1
			c-0.3-0.5-0.5-1.1-0.5-1.8c0-1.2,0.4-2.1,1.3-2.8c0.8-0.7,2-1.1,3.4-1.1C359.3,164.8,360.8,165.7,361.6,167.5z"/>
		<path class="st5" d="M379.5,177.8h-2.3l1.9-11.5l-5.4,11.5h-1.2l-1.7-11.4l-1.9,11.4h-1.8l2.1-12.7h3.5l1.3,8.5l3.9-8.5h3.7
			L379.5,177.8z"/>
		<path class="st5" d="M390.5,177.8h-8.2l2.1-12.7h8l-0.3,2h-5.7l-0.5,3.3h4.8l-0.3,1.9h-4.8l-0.6,3.5h6L390.5,177.8z M391.1,161.1
			l0.6,1.3l-3.9,1.8l-0.4-1L391.1,161.1z"/>
		<path class="st5" d="M392.5,177.8l2.1-12.7h3.7c0.9,0,1.6,0.1,2.1,0.2c0.5,0.2,1,0.5,1.5,0.9c0.5,0.4,0.9,1,1.2,1.8
			c0.3,0.8,0.5,1.7,0.5,2.7c0,1.2-0.2,2.3-0.7,3.3c-0.4,1-1,1.8-1.6,2.4c-0.6,0.6-1.3,0.9-1.9,1.1c-0.6,0.2-1.5,0.3-2.6,0.3H392.5z
			 M395.1,175.9h2c0.7,0,1.2-0.1,1.6-0.3c0.4-0.2,0.8-0.5,1.2-0.9s0.7-1,0.9-1.8c0.2-0.8,0.3-1.6,0.3-2.5c0-0.7-0.1-1.3-0.3-1.9
			c-0.2-0.6-0.6-1-1-1.2c-0.4-0.2-1.1-0.3-1.8-0.3h-1.4L395.1,175.9z"/>
		<path class="st5" d="M407,177.8h-2.3l2.1-12.7h2.3L407,177.8z"/>
		<path class="st5" d="M419.8,174.3c-1.1,2.5-2.8,3.8-5,3.8c-1.4,0-2.5-0.5-3.4-1.5c-0.9-1-1.3-2.3-1.3-4c0-2.1,0.6-4,1.7-5.5
			c1.1-1.5,2.5-2.3,4.3-2.3c1.4,0,2.4,0.4,3.2,1.2c0.8,0.8,1.2,1.9,1.4,3.3l-2.1,0.4c-0.2-1.9-1-2.9-2.6-2.9c-1.2,0-2.1,0.7-2.7,2.2
			s-0.8,2.8-0.8,4.2c0,1,0.2,1.8,0.7,2.3c0.5,0.5,1,0.8,1.7,0.8c0.6,0,1.2-0.3,1.8-0.8c0.5-0.5,0.9-1.1,1.2-1.8L419.8,174.3z"/>
		<path class="st5" d="M430.9,177.8h-2.5l-0.5-3.1h-4.6l-1.4,3.1h-2.1l6.1-12.7h2.8L430.9,177.8z M427.7,173l-1-5.6l-2.6,5.6H427.7z
			"/>
		<path class="st5" d="M442,167.5l-2.1,0.8c-0.4-1.1-1.2-1.6-2.4-1.6c-0.7,0-1.3,0.2-1.6,0.5s-0.6,0.7-0.6,1.2
			c0,0.4,0.1,0.7,0.4,0.9s0.7,0.4,1.3,0.6l1.7,0.5c0.5,0.1,1,0.4,1.4,0.7c0.5,0.3,0.8,0.7,1,1.2s0.3,1,0.3,1.5c0,1.2-0.4,2.1-1.3,3
			c-0.9,0.8-2.1,1.3-3.8,1.3c-2.5,0-4.2-1.1-5-3.2l2.1-0.7c0.5,1.3,1.5,2,3,2c0.9,0,1.5-0.2,1.9-0.6c0.4-0.4,0.6-0.9,0.6-1.4
			c0-0.3-0.1-0.5-0.2-0.8c-0.2-0.2-0.4-0.4-0.6-0.5s-0.7-0.3-1.4-0.5c-1-0.3-1.8-0.6-2.3-0.8s-0.9-0.6-1.2-1.1
			c-0.3-0.5-0.5-1.1-0.5-1.8c0-1.2,0.4-2.1,1.3-2.8c0.8-0.7,2-1.1,3.4-1.1C439.8,164.8,441.2,165.7,442,167.5z"/>
	</g>
</g>
</svg>
